{"glyphs":{"0":{"ha":1310,"x_min":35,"x_max":1293,"o":"m 1293 865 q 1274 888 1293 881 q 1240 896 1256 896 q 1208 883 1229 896 q 1162 849 1188 869 q 1108 802 1136 828 q 1058 753 1081 776 q 1020 710 1035 729 q 1004 682 1006 690 q 969 692 989 683 q 931 712 950 701 q 895 731 911 722 q 872 739 879 739 q 835 733 864 739 q 773 722 806 728 q 712 710 740 715 q 676 704 683 704 q 642 713 668 704 q 585 731 615 721 q 528 749 554 740 q 494 757 503 757 q 473 753 486 757 q 444 745 460 750 q 414 733 429 740 q 388 721 399 726 q 358 769 381 750 q 310 801 336 788 q 258 828 283 815 q 218 858 232 842 q 158 939 182 903 q 116 1001 135 975 q 79 1044 97 1028 q 35 1068 61 1061 l 35 1014 q 47 974 35 999 q 60 933 60 949 l 60 692 q 73 660 60 679 q 104 621 86 640 q 140 588 122 601 q 168 574 158 574 q 196 579 185 574 q 207 585 207 585 q 181 731 194 669 q 161 851 168 793 q 177 830 164 844 q 207 800 190 815 q 240 773 224 785 q 268 761 257 761 q 292 743 278 758 q 321 709 307 728 q 345 671 335 690 q 356 642 356 651 q 329 627 343 633 q 304 607 315 621 l 308 569 q 293 553 297 564 q 289 531 289 543 q 296 506 289 515 q 282 488 288 500 q 278 454 276 476 q 306 433 289 444 q 340 413 322 422 q 372 398 357 404 q 394 392 388 392 q 418 400 396 392 q 476 422 440 408 q 544 451 511 436 q 601 481 576 467 q 625 504 625 494 q 591 560 625 533 q 515 606 557 586 q 438 636 474 625 q 399 649 401 647 q 419 662 413 654 q 442 669 426 669 q 465 665 450 669 q 497 656 481 661 q 527 647 513 651 q 550 643 542 643 q 563 646 558 643 q 570 652 567 649 q 578 658 574 656 q 594 661 583 661 q 640 648 614 661 q 681 635 665 635 q 701 639 688 635 q 731 648 715 643 q 760 657 746 653 q 781 661 774 661 q 797 656 782 661 q 828 644 811 651 q 863 628 846 636 q 885 615 879 621 q 759 585 811 622 q 676 492 707 547 q 728 428 706 450 q 768 396 750 406 q 803 385 786 386 q 838 383 819 383 q 903 394 881 383 q 936 440 925 404 q 924 447 931 444 q 910 451 917 449 q 939 472 929 457 q 949 506 949 486 q 938 524 949 517 q 915 533 928 531 q 939 546 931 539 q 944 563 947 553 q 885 604 914 590 q 928 608 903 607 q 976 616 953 610 q 1017 638 999 622 q 1039 683 1035 653 q 1082 680 1063 681 q 1128 672 1101 679 q 1086 622 1107 643 q 1047 584 1065 601 q 1018 551 1029 567 q 1007 518 1007 536 q 1013 497 1007 511 q 1024 466 1018 482 q 1036 435 1031 450 q 1042 414 1042 421 q 1033 365 1042 404 q 1013 281 1025 325 q 986 201 1000 236 q 961 165 972 165 q 944 177 957 169 q 915 192 931 185 q 885 205 900 200 q 863 210 871 210 q 842 207 858 210 q 803 201 826 204 q 760 217 782 210 q 728 236 738 225 q 759 268 744 246 q 789 306 774 290 q 790 311 792 308 q 785 311 788 314 q 775 301 779 306 q 767 290 771 296 q 747 263 757 278 q 721 240 736 247 q 719 236 715 240 q 748 215 728 222 q 789 199 768 207 q 751 193 771 196 q 711 188 732 190 q 693 248 704 219 q 682 313 682 276 q 680 316 682 315 q 676 314 678 317 q 653 246 661 281 q 639 175 644 211 l 633 175 q 615 249 624 210 q 597 325 607 289 q 594 328 597 328 q 592 325 593 328 q 572 288 581 310 q 554 246 564 267 q 533 207 544 225 q 507 179 522 189 q 506 178 507 179 q 506 176 506 178 q 431 195 471 183 q 358 218 390 207 q 334 188 346 203 q 317 157 322 172 q 279 264 297 204 q 247 381 261 324 q 226 488 233 439 q 219 564 218 538 q 190 538 207 560 q 158 490 174 517 q 131 436 142 464 q 121 392 121 408 q 150 331 121 371 q 211 243 179 292 q 264 142 243 194 q 269 39 285 89 q 300 16 276 35 q 357 -29 324 -3 q 429 -85 390 -56 q 506 -140 468 -115 q 576 -182 543 -165 q 629 -199 610 -199 q 703 -177 664 -199 q 783 -117 742 -156 q 866 -27 824 -79 q 950 86 908 25 q 957 71 954 79 q 994 126 979 90 q 1028 207 1008 163 q 1124 403 1076 304 q 1210 590 1172 501 q 1270 750 1247 678 q 1293 865 1293 822 m 1267 867 q 1249 805 1257 836 q 1231 748 1242 774 q 1205 706 1221 722 q 1164 689 1189 689 q 1180 729 1171 706 q 1197 775 1189 753 q 1210 813 1204 797 q 1215 829 1215 829 q 1222 842 1217 831 q 1240 863 1228 853 q 1267 867 1253 874 m 1169 782 q 1152 735 1163 763 q 1135 689 1142 708 l 1068 689 q 1115 739 1088 715 q 1169 782 1143 763 m 1010 676 q 1004 672 1008 676 q 997 663 1000 668 q 997 658 993 658 q 955 635 978 644 q 915 626 932 626 q 897 633 907 626 q 877 649 888 640 q 856 665 867 657 q 835 674 844 672 q 897 674 867 672 q 954 679 928 676 q 965 677 950 678 q 993 676 979 676 q 1010 676 1007 676 m 928 690 l 746 690 q 819 700 778 692 q 899 721 860 708 l 928 690 m 933 517 q 922 483 932 501 q 896 464 913 464 q 867 468 876 464 q 858 490 858 472 q 867 514 858 506 q 868 507 867 510 q 882 489 874 494 l 888 483 q 908 478 903 472 q 924 499 913 485 q 928 505 926 497 q 932 515 929 513 l 933 517 m 853 464 q 819 472 833 467 q 797 490 804 478 q 822 503 808 497 q 849 513 835 508 q 844 490 844 501 q 853 464 844 472 m 915 551 q 834 535 868 549 q 763 490 800 522 q 783 463 767 472 q 819 447 799 453 q 863 439 840 442 q 907 432 886 436 q 874 416 893 424 q 838 408 854 408 q 804 408 818 408 q 778 415 792 408 q 747 440 764 422 q 703 492 729 457 q 770 564 735 536 q 838 592 806 592 q 876 578 853 592 q 915 551 899 564 m 1174 678 q 1126 573 1146 632 q 1090 450 1106 514 q 1059 324 1074 386 q 1028 207 1044 261 q 989 144 1008 175 q 950 86 969 114 q 918 115 939 101 q 876 137 897 128 q 835 151 854 146 q 811 157 817 157 q 783 156 804 157 q 736 156 763 156 q 684 155 710 156 q 642 154 658 154 l 643 158 l 708 168 l 708 167 q 713 163 710 163 q 715 167 717 164 l 715 169 q 770 178 743 174 q 821 185 797 182 l 824 182 q 828 181 826 181 q 829 185 831 182 q 868 190 853 188 q 889 192 883 192 q 905 183 896 192 q 922 166 914 175 q 939 149 931 157 q 954 140 947 140 q 975 159 963 140 q 1000 206 988 178 q 1024 269 1013 235 q 1046 333 1036 303 q 1061 384 1056 363 q 1067 410 1067 406 q 1061 432 1067 417 q 1049 464 1056 447 q 1038 496 1043 481 q 1032 518 1032 511 q 1049 551 1032 531 q 1088 593 1065 571 q 1135 638 1111 615 q 1174 678 1158 660 m 733 674 q 710 667 722 674 q 681 661 697 661 q 660 665 672 661 q 635 674 649 669 q 610 683 622 679 q 590 688 599 688 q 578 685 583 688 q 569 678 574 682 q 560 672 565 675 q 546 669 554 669 q 526 672 538 669 q 503 678 515 675 q 479 685 490 682 q 460 688 468 688 q 424 681 444 688 q 385 661 404 674 q 346 713 365 681 q 314 772 326 746 q 333 751 324 763 q 352 728 343 739 q 369 711 361 718 q 386 704 378 704 q 408 708 394 704 q 438 717 422 713 q 467 726 453 722 q 490 731 482 731 q 537 722 504 731 q 607 702 569 713 q 679 683 644 692 q 733 674 714 674 m 599 518 q 558 483 589 501 q 492 447 526 464 q 429 419 458 431 q 394 408 400 408 q 381 415 392 408 q 357 431 369 421 q 332 455 344 442 q 315 483 319 468 q 365 477 338 485 q 407 469 392 469 q 444 483 422 469 q 486 510 467 497 q 460 536 481 524 q 416 558 440 549 q 367 575 392 568 q 329 586 343 582 q 360 612 340 597 q 399 626 381 626 q 444 615 414 626 q 505 588 474 604 q 563 553 536 572 q 599 518 589 535 m 181 601 q 149 617 165 604 q 119 648 133 631 q 95 684 104 665 q 86 718 86 703 l 86 908 l 63 1043 q 79 1018 67 1035 q 104 981 92 1001 q 126 937 117 960 q 133 893 135 914 q 135 833 131 863 q 147 771 139 804 q 164 697 154 738 q 181 601 174 656 m 442 510 q 423 500 428 504 q 403 496 418 496 q 389 497 396 496 q 374 501 382 499 q 393 543 390 517 q 423 528 410 536 q 442 510 436 519 m 704 186 l 646 176 q 658 238 651 208 q 676 297 664 268 q 688 241 679 268 q 704 186 697 214 m 376 550 q 368 526 374 539 q 353 508 363 514 q 339 513 346 511 q 325 514 332 514 q 308 511 322 514 q 303 531 303 519 q 311 554 303 546 q 313 547 311 550 q 326 529 318 535 l 332 524 q 352 519 347 513 q 368 539 357 525 q 375 550 369 539 l 376 550 m 754 153 l 642 154 l 754 153 m 626 174 q 588 168 603 171 q 568 165 572 165 q 547 168 561 165 q 514 175 533 171 q 540 202 529 185 q 558 240 550 219 q 575 279 567 260 q 593 315 583 299 q 609 243 601 279 q 626 174 617 207 m 632 154 l 611 154 l 631 157 l 632 154 m 928 85 q 909 53 928 74 q 859 11 890 33 q 790 -35 828 -11 q 717 -78 753 -58 q 652 -109 682 -97 q 607 -121 622 -121 q 558 -108 586 -121 q 500 -76 531 -96 q 440 -32 469 -56 q 386 15 410 -8 q 347 56 363 38 q 329 85 331 75 q 374 103 336 94 q 463 117 411 111 q 576 128 515 124 q 688 135 636 132 q 778 139 740 138 q 824 140 817 140 q 834 132 824 140 q 871 118 844 124 q 898 110 881 121 q 928 85 915 100 m 265 232 q 226 277 246 258 q 188 313 206 296 q 158 347 169 329 q 147 388 147 364 q 152 411 147 394 q 165 448 157 428 q 181 490 172 468 q 196 531 189 513 q 202 456 194 494 q 222 380 210 418 q 246 304 233 342 q 265 232 258 267 m 832 -44 q 788 -81 813 -60 q 735 -123 763 -103 q 681 -158 708 -143 q 629 -172 654 -172 q 599 -169 608 -172 q 582 -159 590 -167 q 559 -140 574 -151 q 511 -110 544 -128 q 565 -129 538 -121 q 607 -137 592 -137 q 658 -126 625 -137 q 726 -99 692 -114 q 790 -68 760 -83 q 832 -44 819 -53 m 529 147 q 481 144 513 146 q 414 136 449 142 q 349 119 379 131 q 306 88 319 107 q 301 106 306 94 q 304 135 297 118 q 328 147 319 140 q 342 160 338 153 q 351 176 347 168 q 358 192 354 183 q 391 183 368 189 q 440 169 414 176 q 492 156 467 163 q 529 147 517 150 z "},"1":{"ha":1318,"x_min":22,"x_max":1279,"o":"m 1275 -42 q 1276 -33 1272 -37 q 1274 -22 1279 -28 q 1244 9 1256 -11 q 1229 53 1232 29 q 1196 70 1214 68 q 1161 75 1178 72 q 1144 96 1154 86 q 1132 119 1135 106 q 1117 122 1125 124 q 1104 117 1110 121 q 1072 147 1089 133 q 1026 164 1054 160 q 1010 190 1021 176 q 989 210 1000 203 q 936 260 956 231 q 893 314 917 290 q 890 332 890 321 q 899 346 889 343 q 860 397 875 367 q 839 458 846 428 q 839 478 838 469 q 836 496 840 486 q 906 583 871 539 q 964 675 942 628 l 971 669 q 969 667 969 668 q 967 664 969 665 l 978 664 q 976 669 975 667 q 976 674 978 671 q 985 676 981 672 q 992 675 989 681 q 988 665 992 669 q 989 657 983 661 q 1024 660 1006 661 q 1057 663 1042 658 q 1062 671 1061 665 q 1069 676 1063 676 l 1071 675 l 1068 672 q 1072 667 1071 669 q 1075 663 1072 665 q 1093 676 1088 665 q 1101 700 1099 688 q 1102 715 1099 706 q 1097 726 1106 725 q 1096 732 1094 729 q 1100 738 1097 735 q 1094 748 1093 743 q 1099 758 1096 753 q 1103 767 1101 763 q 1101 779 1106 772 q 1113 817 1113 803 q 1111 856 1113 832 q 1115 860 1110 858 q 1124 858 1121 863 q 1123 863 1122 861 q 1122 865 1124 864 q 1114 872 1119 874 q 1104 867 1108 871 q 1103 874 1104 869 q 1104 882 1101 879 q 1139 908 1124 892 q 1165 944 1154 925 q 1169 956 1171 950 q 1166 966 1168 961 q 1165 975 1164 971 q 1175 983 1165 979 q 1164 987 1171 990 q 1151 990 1157 983 q 1095 972 1128 975 q 1036 964 1063 969 q 1019 979 1028 971 q 1001 990 1011 988 q 1008 1002 1000 997 q 1017 1014 1015 1007 q 1008 1029 1019 1025 q 989 1040 997 1033 q 988 1049 992 1047 q 976 1050 983 1051 l 897 999 q 840 985 865 997 q 792 954 814 972 q 751 915 771 936 q 711 874 732 893 q 667 873 690 874 q 621 868 643 872 q 578 853 599 864 q 542 822 558 843 l 542 815 q 550 820 546 815 q 558 824 554 825 q 503 776 535 796 q 436 754 472 757 q 426 758 433 760 q 415 753 419 756 l 425 742 q 383 734 406 736 q 346 717 361 732 q 332 705 340 711 q 324 689 324 699 q 381 720 353 711 q 440 733 410 729 q 501 735 469 736 q 567 735 532 733 q 529 681 543 714 q 513 621 515 647 q 516 614 513 618 q 524 613 519 610 q 524 644 519 629 q 538 675 529 658 q 544 669 544 678 q 551 667 544 661 q 538 642 546 654 q 532 615 531 631 q 544 617 539 611 q 574 685 558 650 q 613 743 590 719 l 618 738 q 590 697 604 715 q 565 654 576 678 q 560 640 563 649 q 565 625 558 631 q 585 638 581 622 q 596 664 589 653 q 635 738 607 703 q 701 797 664 774 q 707 783 713 797 q 696 746 703 764 q 693 710 689 728 l 697 718 q 747 665 726 697 q 783 600 768 632 q 792 576 789 586 q 803 550 796 565 q 813 547 806 546 q 819 540 821 547 q 810 534 813 535 q 801 532 808 533 l 804 539 q 790 547 797 543 q 783 563 782 551 q 778 553 772 560 q 785 539 785 546 l 764 521 q 740 510 753 514 q 715 514 726 506 q 696 499 707 500 q 671 496 685 497 q 639 545 664 528 q 596 581 614 563 l 590 597 q 625 650 596 632 q 625 610 631 631 q 626 571 619 590 q 630 613 625 590 q 628 657 635 635 q 601 640 611 657 q 585 607 592 622 q 591 579 585 590 q 607 558 597 568 q 627 540 617 549 q 646 519 638 531 q 653 508 649 513 q 654 496 657 503 q 647 500 650 500 l 646 496 q 639 496 643 492 q 643 507 643 500 q 628 509 635 506 q 615 507 622 513 q 618 515 618 514 q 615 525 618 518 q 590 522 601 526 q 567 509 578 517 q 544 494 556 501 q 521 482 533 486 q 547 516 532 501 q 575 550 561 531 q 574 556 578 554 q 567 558 569 558 q 523 530 543 547 q 479 501 503 513 q 478 513 474 507 q 479 525 483 518 l 476 522 q 470 505 474 514 q 474 489 467 496 q 500 500 490 492 q 519 517 510 508 q 538 535 528 526 q 564 549 549 544 q 544 525 554 535 q 525 506 535 515 q 513 490 521 497 q 513 474 506 482 q 532 475 524 471 q 548 486 540 479 q 563 500 556 493 q 581 511 571 507 q 595 517 588 513 q 608 514 603 521 q 598 499 608 501 q 582 489 588 497 q 581 478 585 481 q 572 476 578 475 q 560 478 567 476 q 551 478 554 479 q 560 465 553 469 q 575 458 567 461 q 591 449 583 454 q 600 433 599 444 q 597 431 597 432 q 594 429 597 429 q 613 415 608 426 q 631 401 617 403 q 634 406 633 404 q 638 410 635 407 l 640 407 q 638 388 640 399 q 632 365 636 376 l 629 368 q 625 356 625 364 q 626 342 625 349 q 631 338 631 342 q 631 332 632 335 q 613 348 619 338 q 597 365 607 358 q 591 374 594 368 q 583 376 588 379 q 556 404 576 397 q 551 411 550 410 q 555 414 551 413 q 563 417 558 415 q 567 422 567 418 q 550 422 558 425 q 533 417 542 418 q 516 421 528 419 q 510 433 504 422 q 458 422 483 433 q 436 426 447 425 q 414 428 425 426 q 394 436 403 431 q 379 453 385 442 q 390 456 383 461 q 404 456 397 451 q 394 462 400 460 q 394 471 388 464 q 368 469 383 464 q 342 474 353 475 q 357 466 347 467 q 374 460 367 465 q 374 453 371 457 q 371 447 378 450 q 394 422 374 428 q 432 411 414 415 q 413 401 424 404 q 396 393 403 397 q 328 372 361 369 q 260 375 296 375 l 331 369 q 313 360 322 364 q 292 358 303 357 q 281 365 288 367 q 269 368 274 363 q 256 369 267 365 q 242 365 244 372 q 261 356 247 356 q 279 347 275 357 l 261 338 q 290 351 278 344 q 319 361 303 357 q 355 360 336 351 q 393 372 374 369 q 421 393 404 386 q 453 407 438 400 q 470 403 460 404 q 486 394 481 403 q 438 364 461 381 q 392 332 415 347 l 371 336 q 374 340 371 339 q 375 344 376 342 l 372 343 q 367 337 369 340 q 361 331 364 333 q 433 307 393 311 q 504 318 474 303 q 476 319 489 321 q 453 328 464 318 q 433 329 442 331 q 415 333 424 328 q 454 364 435 349 q 494 388 474 379 l 549 356 q 572 339 561 350 q 596 325 583 328 q 599 321 596 321 q 604 321 603 321 q 616 308 607 311 q 626 294 625 306 q 594 244 614 269 q 556 193 574 219 q 518 190 538 197 q 481 175 499 182 l 522 186 q 519 183 521 183 q 517 182 518 183 q 526 184 521 182 q 528 189 531 186 q 539 192 532 192 q 549 189 546 192 q 525 153 538 169 q 499 122 513 138 q 476 122 485 119 q 458 128 467 124 q 442 137 450 132 q 421 143 433 142 q 383 148 400 140 q 352 168 367 156 q 323 193 338 181 q 290 214 308 206 q 319 208 304 215 q 347 208 335 201 q 358 217 354 211 q 360 229 363 222 l 346 218 q 274 233 310 218 q 207 267 239 249 q 203 282 204 274 q 194 294 203 290 q 190 294 192 293 q 188 292 188 294 l 181 297 q 182 303 179 300 q 188 304 185 307 l 189 324 q 190 362 186 340 q 200 401 193 383 q 209 438 200 419 q 232 471 218 456 q 262 500 246 486 q 292 525 278 514 l 306 526 q 313 523 311 526 q 314 515 314 519 q 315 510 314 513 q 319 508 315 507 l 324 521 q 320 528 321 524 q 313 532 319 533 q 290 535 300 539 q 269 522 279 531 q 249 503 258 514 q 229 485 239 492 l 228 488 q 258 562 243 524 q 293 632 272 600 q 292 640 296 639 q 286 646 288 640 q 314 665 297 658 q 344 679 331 672 l 340 683 l 308 672 q 281 663 293 676 q 258 640 269 650 q 240 612 256 622 q 215 586 224 601 q 198 583 204 588 q 188 570 192 578 q 180 554 183 563 q 172 540 176 546 q 126 422 157 479 q 72 307 96 365 l 71 307 l 71 297 l 86 297 q 86 283 89 290 q 85 269 83 276 l 89 267 l 86 260 q 95 207 86 231 q 117 164 104 183 l 115 161 q 137 108 128 138 q 164 56 146 79 q 157 44 161 49 q 160 31 153 39 l 161 32 q 166 35 167 32 q 165 42 165 39 q 168 39 165 42 l 168 44 q 168 47 167 46 q 172 49 169 49 q 175 45 174 46 q 174 42 176 44 q 196 28 185 35 q 222 19 207 22 q 226 26 228 22 q 225 35 225 31 q 224 57 224 46 q 222 79 224 68 q 236 77 231 81 q 245 69 242 74 q 253 58 249 64 q 264 49 257 53 q 285 46 275 38 q 307 56 296 54 q 297 53 303 57 q 285 51 292 49 l 289 56 q 321 64 304 61 q 353 61 338 67 q 354 67 350 67 q 361 69 358 67 q 324 77 342 67 q 294 100 306 88 q 331 91 314 93 q 372 86 349 89 q 378 78 382 83 q 383 69 374 72 q 416 76 400 71 q 447 85 432 82 q 478 86 457 85 q 504 78 499 88 q 501 75 503 75 q 500 72 500 75 q 511 78 508 69 q 515 72 514 72 q 521 68 517 71 q 486 55 504 60 q 450 44 468 50 q 415 32 432 39 q 383 13 397 25 q 440 17 407 10 q 503 35 472 25 q 446 11 475 24 q 390 -8 417 -1 q 320 -23 354 -14 q 249 -15 286 -32 l 249 -12 l 283 -11 l 232 -11 q 197 1 215 -8 q 168 17 178 10 q 168 17 168 17 q 169 18 168 18 l 171 18 l 169 18 q 165 20 167 18 q 165 25 164 22 q 160 28 163 26 q 157 25 158 29 q 160 21 156 21 q 164 17 164 21 q 150 19 154 13 q 138 26 146 26 q 121 41 131 33 q 103 51 111 49 q 129 13 111 28 q 169 -12 147 -1 q 217 -29 192 -22 q 264 -42 242 -36 q 323 -43 292 -44 q 385 -29 354 -42 q 397 -28 392 -24 q 407 -22 401 -33 q 442 -15 426 -18 q 481 -14 458 -11 q 502 -8 492 -10 q 526 -6 513 -7 l 529 -8 q 460 -33 494 -24 q 392 -54 425 -42 l 394 -60 q 472 -43 432 -53 q 549 -18 513 -33 q 573 -9 560 -15 q 599 -1 586 -3 q 578 -17 588 -8 q 558 -31 568 -26 q 592 -17 579 -26 q 628 -1 606 -7 q 774 -9 707 0 q 918 -29 842 -18 q 936 -31 926 -31 q 947 -19 947 -31 l 932 -15 q 861 -8 894 -11 q 797 -1 828 -4 q 733 6 765 1 q 664 14 700 10 q 670 17 667 15 q 678 15 674 18 q 753 38 717 33 q 799 24 776 22 q 853 22 821 25 l 857 31 q 860 21 860 29 q 871 28 867 25 q 875 38 875 31 q 820 88 847 60 q 760 132 793 115 q 764 135 763 135 q 767 139 765 136 q 792 126 781 133 q 815 115 804 119 q 841 99 826 107 q 868 78 856 92 q 876 61 874 71 q 886 51 879 51 q 886 67 883 61 q 883 81 889 72 q 831 121 863 103 q 778 158 800 139 l 804 199 q 813 214 807 206 q 811 231 818 222 q 783 213 794 225 q 756 190 771 201 l 750 193 q 770 222 760 208 q 792 250 781 235 q 823 241 811 251 q 846 215 835 231 q 867 167 849 188 q 908 133 885 146 q 901 132 906 135 q 900 124 897 129 q 929 94 911 107 q 969 79 947 82 q 981 80 974 76 q 988 76 988 83 q 994 65 985 69 q 1010 53 1003 60 q 1034 45 1021 47 q 1053 35 1047 43 q 1004 36 1032 38 q 954 44 976 35 q 951 37 954 42 q 943 35 949 32 q 935 53 932 40 q 919 61 928 56 q 904 61 910 67 q 913 47 904 50 q 924 35 921 43 q 915 31 919 32 q 906 28 910 29 q 899 25 901 28 q 899 15 896 22 l 938 17 q 947 8 944 15 q 958 4 950 1 l 961 13 q 999 6 981 10 q 1035 -7 1017 3 q 1068 -1 1047 6 q 1140 3 1104 6 q 1213 -7 1176 0 l 1214 -18 q 1242 -31 1228 -22 q 1275 -42 1257 -40 m 1250 -46 q 1249 -42 1251 -43 q 1247 -40 1247 -42 q 1143 -28 1199 -32 q 1035 -14 1088 -25 l 1036 -26 q 1086 -40 1061 -37 q 1140 -40 1111 -42 q 1184 -42 1160 -43 q 1232 -49 1208 -42 q 1240 -49 1236 -44 q 1250 -46 1244 -53 m 500 579 q 499 580 501 581 q 497 581 497 579 l 490 575 q 427 560 457 575 q 381 518 397 546 q 399 503 383 503 q 402 508 403 507 q 399 512 401 510 q 393 515 396 514 q 392 521 390 517 q 417 543 404 536 q 446 558 429 550 q 476 563 461 564 q 500 579 492 561 m 564 332 l 553 335 q 535 330 547 328 q 517 329 522 332 q 532 328 524 325 q 544 321 540 332 q 540 318 542 318 q 536 317 539 317 q 533 319 536 317 l 532 317 l 536 317 q 540 318 539 317 q 554 320 549 319 q 564 332 560 321 m 521 354 q 517 361 521 361 q 497 359 507 356 q 479 353 486 363 q 478 356 478 354 l 464 347 q 463 342 460 343 q 468 338 465 340 q 475 341 472 342 q 481 338 478 340 q 486 334 483 336 q 493 335 489 332 q 492 336 499 333 q 490 343 486 339 q 505 352 497 350 q 521 354 513 354 m 246 311 l 229 311 q 225 318 225 314 q 221 311 219 315 q 225 304 222 307 q 238 302 232 301 q 246 311 243 303 m 119 93 q 84 118 104 108 q 51 138 64 128 q 38 203 38 169 q 42 269 39 236 q 53 310 47 289 q 65 353 58 332 q 83 393 72 374 q 113 428 94 413 q 94 423 103 431 q 79 408 86 415 q 47 326 57 368 q 25 238 36 283 l 28 231 q 24 194 22 211 q 28 158 26 178 q 38 129 28 139 q 61 113 47 119 q 91 103 75 107 q 119 93 107 99 m 1133 944 q 1128 931 1128 938 q 1110 916 1118 921 q 1093 907 1103 911 l 1089 917 q 1111 931 1100 924 q 1133 944 1122 938 m 1075 890 q 1071 896 1071 892 q 1072 906 1071 901 q 1078 901 1082 908 q 1075 890 1075 894 m 1018 964 q 999 962 1008 963 q 981 965 989 961 q 974 970 976 968 q 969 978 971 972 q 977 977 974 978 q 983 978 981 976 l 982 978 q 988 975 985 972 q 994 978 992 978 l 992 976 q 1005 972 999 972 q 1018 969 1011 971 l 1018 964 m 988 1018 q 978 1003 985 1007 q 963 999 971 1000 q 947 998 954 999 q 935 989 939 997 q 947 979 943 986 l 919 972 q 915 974 918 974 q 915 978 913 975 q 929 986 926 978 l 919 992 q 936 1003 928 994 q 953 1017 944 1011 q 971 1026 963 1024 q 988 1018 979 1028 m 1053 746 q 1043 726 1050 732 l 1039 726 l 1053 746 m 1038 738 q 1028 728 1036 733 q 1032 734 1031 731 q 1038 738 1033 738 m 1025 743 q 994 727 1010 735 q 960 714 978 719 q 957 721 960 715 q 990 733 972 725 q 1025 743 1008 740 m 808 943 q 788 921 799 935 q 763 900 778 907 q 783 921 768 910 q 808 943 797 932 m 1003 721 q 1000 713 1006 713 q 992 707 994 713 q 985 708 989 708 q 978 710 982 707 q 990 715 985 713 q 1003 721 996 718 m 1007 707 q 1009 694 1013 699 q 999 685 1006 690 l 964 689 q 985 699 975 696 q 1007 707 994 703 m 1086 792 q 1082 799 1086 794 q 1075 810 1078 804 q 1054 789 1068 794 q 1059 776 1057 783 q 1057 761 1061 768 q 1056 768 1058 764 q 1050 772 1054 772 l 1053 772 q 1052 780 1051 776 q 1053 789 1053 783 q 1040 786 1044 786 l 1038 786 q 1033 779 1035 783 q 1031 768 1031 775 l 1038 768 q 997 749 1018 753 q 953 736 975 744 q 945 744 950 742 q 935 748 940 746 q 928 753 931 750 q 926 764 925 757 q 925 792 924 775 q 943 815 926 810 l 947 815 q 945 800 949 808 q 949 783 942 792 q 974 798 964 783 q 996 819 985 813 l 978 781 q 996 774 981 774 q 999 779 1001 776 q 996 785 996 782 q 1000 797 997 792 q 1006 808 1003 803 q 1003 816 1004 813 q 1003 824 1003 819 q 1004 831 1003 829 q 979 813 990 825 q 957 793 968 800 q 966 839 954 817 q 985 885 978 861 q 976 889 982 890 q 961 857 968 875 q 950 822 954 839 q 931 817 939 819 q 919 804 924 814 q 918 765 914 781 q 929 732 922 749 q 922 731 924 729 q 919 735 921 732 q 917 742 918 739 q 910 743 915 744 q 900 760 904 750 q 890 779 896 769 q 876 797 885 789 q 856 808 868 804 q 867 838 858 824 q 882 867 875 851 l 879 868 q 858 838 865 857 q 844 804 851 819 l 843 804 l 840 800 q 853 763 843 781 q 883 738 864 746 q 901 725 894 736 q 914 707 907 714 q 924 692 918 703 q 939 681 931 682 q 929 646 936 660 q 920 645 925 649 q 913 638 915 642 q 912 627 917 632 q 906 617 907 622 q 888 599 896 608 q 872 581 881 589 l 856 608 q 865 618 863 608 q 856 622 861 625 q 844 622 850 618 q 803 672 824 643 q 767 726 782 701 q 756 744 761 733 q 738 758 751 754 l 732 749 q 779 677 750 707 q 835 611 808 647 l 808 581 q 799 594 800 588 q 793 607 799 600 q 760 673 776 639 q 710 731 743 707 q 715 746 711 738 q 713 763 718 754 q 726 811 719 790 q 743 856 733 832 q 751 860 747 856 q 749 868 754 865 q 790 908 768 888 q 835 949 811 929 q 831 953 836 953 q 824 953 826 954 l 825 951 l 813 943 l 813 944 q 846 965 826 958 q 882 978 865 971 q 910 965 901 978 q 924 939 918 951 l 928 939 q 923 954 929 944 q 925 971 917 964 q 935 970 929 968 q 947 973 942 972 q 956 972 953 974 q 957 960 958 969 q 981 944 967 949 q 1010 939 994 939 q 1025 942 1018 942 q 1040 942 1032 942 q 1032 926 1036 935 q 1032 906 1028 917 q 1035 915 1035 911 q 1039 925 1036 919 q 1046 922 1044 926 q 1049 914 1047 917 q 1040 906 1047 908 q 1027 901 1033 903 q 1018 895 1021 899 q 1022 885 1015 892 q 1031 885 1026 882 q 1039 890 1035 888 q 1047 894 1043 893 q 1053 889 1050 894 q 1051 872 1049 883 l 1057 879 q 1060 867 1058 874 q 1063 854 1063 861 q 1076 832 1075 844 q 1081 842 1081 836 q 1082 854 1081 847 q 1077 857 1076 854 q 1074 863 1078 860 l 1075 874 q 1091 835 1089 858 q 1086 792 1093 811 m 879 756 q 863 772 869 763 q 857 789 857 781 q 871 775 863 783 q 879 756 879 767 m 724 844 q 719 826 721 838 q 711 806 717 814 q 701 809 706 807 q 690 808 696 811 q 706 826 694 815 q 724 844 717 836 m 851 579 q 854 570 853 576 q 850 561 856 564 q 851 579 846 567 m 842 594 q 844 582 851 588 q 835 569 838 576 q 826 560 831 565 q 818 551 822 556 q 820 556 818 554 q 825 560 822 557 q 827 578 817 569 q 842 594 838 588 m 685 843 q 654 815 675 821 q 615 797 633 808 q 546 769 579 778 q 476 749 513 760 q 538 786 511 760 q 592 835 564 813 q 606 837 600 838 q 618 843 613 836 q 629 856 621 854 q 647 854 638 857 q 667 847 657 851 q 685 843 676 843 m 664 811 q 667 794 669 801 q 659 781 665 788 q 645 769 653 775 q 633 756 638 763 q 621 760 626 756 q 608 761 615 765 q 599 750 604 753 q 589 747 594 747 q 579 748 585 747 q 567 747 574 749 q 548 744 557 746 q 526 744 539 743 l 531 750 q 597 778 564 763 q 664 811 631 793 m 811 519 q 792 505 804 511 q 767 494 779 499 q 785 510 772 507 q 811 519 799 513 m 868 349 q 835 411 844 375 q 822 481 825 447 q 839 418 825 446 q 868 361 853 390 l 868 349 m 574 718 l 553 671 q 553 698 547 685 q 574 718 560 711 m 1135 79 l 1121 81 q 1124 86 1124 83 q 1119 90 1124 90 l 1111 90 q 1112 103 1108 97 q 1122 110 1115 110 l 1135 79 m 746 440 l 742 440 l 746 460 q 749 449 744 454 q 746 440 753 443 m 738 474 l 728 443 l 725 469 q 738 474 731 475 m 1221 21 q 1199 15 1210 21 q 1178 19 1188 10 q 1149 22 1163 19 q 1119 25 1135 25 l 1121 22 l 1158 15 q 1131 16 1147 15 q 1104 26 1114 17 l 1082 32 q 1098 45 1082 43 q 1125 51 1114 47 q 1138 51 1131 54 q 1153 44 1146 47 q 1167 41 1160 42 q 1179 49 1174 40 q 1206 45 1194 53 q 1221 21 1218 38 m 1072 111 q 1058 116 1065 121 q 1043 118 1050 111 q 1037 128 1036 122 q 1035 140 1038 135 q 1042 138 1039 138 q 1050 139 1046 139 q 1057 133 1051 136 q 1067 128 1063 131 q 1075 121 1072 125 q 1072 111 1078 117 m 694 489 q 694 481 694 486 q 688 478 693 476 q 676 485 676 474 q 685 488 679 490 q 694 489 692 486 m 913 192 q 910 188 913 189 q 907 183 907 186 q 887 199 897 188 q 865 221 876 210 l 868 225 q 828 275 844 249 q 793 329 813 301 q 785 335 785 329 q 782 343 785 340 q 753 381 768 360 q 728 419 739 401 q 730 424 731 422 q 729 431 729 426 q 740 425 732 422 q 753 429 747 428 l 771 443 q 756 420 764 431 q 751 394 747 410 q 773 396 764 386 q 794 413 782 406 q 791 386 793 397 q 807 368 789 375 q 811 390 814 376 q 814 413 808 404 q 810 422 815 415 q 800 429 806 429 l 767 406 q 783 439 771 425 q 806 471 796 453 q 799 481 804 475 l 757 447 q 757 457 758 451 q 753 467 756 463 q 753 476 751 472 q 763 481 754 479 l 810 503 q 813 494 811 500 q 813 481 815 488 l 807 474 q 811 470 806 468 q 814 467 817 472 q 831 391 821 431 q 865 319 840 351 q 885 256 869 283 q 913 192 901 228 m 717 432 q 705 448 710 442 q 704 463 700 454 q 710 467 707 465 q 717 468 713 469 l 717 432 m 1006 150 q 972 181 986 165 q 943 213 958 197 q 938 210 940 214 q 936 204 936 206 q 922 228 926 217 q 911 250 918 239 q 952 213 935 235 q 994 181 969 192 q 1004 167 999 174 q 1006 150 1010 160 m 1107 64 q 1090 59 1097 61 q 1074 58 1083 57 q 1069 65 1074 64 q 1060 66 1065 67 q 1051 64 1056 65 q 1042 65 1046 63 q 1023 78 1031 72 q 1007 92 1015 85 l 1010 96 q 983 107 994 99 q 961 126 972 115 q 1015 101 985 108 q 1064 81 1044 94 l 1067 69 q 1078 76 1074 72 q 1090 76 1082 81 l 1107 64 m 1018 124 q 992 133 1004 124 q 965 143 981 143 q 942 159 954 150 q 922 179 929 168 l 933 181 q 963 154 949 165 q 996 133 976 143 l 1008 139 l 1018 124 m 771 339 q 746 360 757 350 q 726 383 735 371 q 747 364 739 375 q 769 346 756 353 l 771 339 m 706 389 q 678 408 689 396 q 668 436 668 421 l 683 447 q 695 418 692 432 q 706 389 699 404 m 643 488 l 643 481 l 601 464 q 600 474 599 469 q 606 483 601 479 q 615 491 610 488 q 624 499 621 494 q 631 489 626 496 q 643 488 636 482 m 654 469 q 650 453 653 461 q 636 440 647 444 q 626 445 631 442 q 618 453 622 449 q 635 466 625 460 q 654 469 644 472 m 778 299 q 767 294 772 293 q 757 299 763 296 q 747 308 751 303 q 736 314 742 313 q 728 333 729 321 q 724 353 726 346 l 778 299 m 804 269 q 792 276 796 271 q 781 283 788 281 l 785 290 q 795 282 792 288 q 804 269 799 276 m 976 94 q 947 106 963 97 q 921 128 932 115 l 921 138 l 976 94 m 757 278 q 749 264 754 269 q 738 251 743 258 q 735 266 735 258 q 732 281 736 274 l 729 294 l 757 278 m 771 267 q 760 257 768 264 q 746 244 753 250 l 769 269 l 771 267 m 651 328 q 643 343 640 331 q 644 365 646 356 l 651 328 m 778 260 q 763 235 775 246 q 743 213 751 225 q 738 224 736 219 q 744 233 739 229 q 757 242 750 238 q 767 251 764 246 l 778 260 m 694 235 q 691 226 692 232 q 692 214 690 219 q 676 284 685 249 q 657 357 668 319 q 658 364 660 360 q 656 372 657 368 q 653 381 654 376 q 658 388 653 385 q 667 383 664 385 q 672 376 669 382 q 679 304 675 342 q 694 235 683 267 m 801 219 q 784 190 797 204 q 764 164 771 176 l 749 171 q 756 172 751 169 q 760 181 761 175 l 758 185 q 778 203 768 193 q 801 219 789 213 m 665 278 q 653 287 657 278 q 647 303 650 296 l 650 313 q 657 311 653 310 q 661 306 661 313 l 665 278 m 611 342 q 595 358 603 349 q 579 369 588 367 q 592 363 589 369 q 604 354 596 356 l 611 342 m 571 376 l 546 392 l 567 382 l 571 376 m 604 326 q 595 330 600 331 q 592 336 590 329 l 556 365 q 583 349 571 358 q 604 326 596 340 m 681 217 q 673 221 669 217 q 676 231 676 225 l 681 217 m 708 194 q 711 185 714 192 q 706 176 708 179 l 704 175 q 703 185 701 182 q 708 194 706 189 m 654 229 l 651 228 l 640 243 q 650 242 649 253 q 654 229 651 232 m 751 147 q 749 137 753 139 q 739 135 744 135 q 726 138 733 136 q 715 139 719 139 q 711 149 708 143 q 706 157 714 154 l 711 165 q 715 157 708 160 q 735 156 726 161 q 751 147 743 151 m 851 38 l 819 53 q 837 50 828 56 q 851 38 846 44 m 792 92 l 769 100 q 780 99 775 104 q 792 94 785 94 l 792 92 m 751 94 l 750 89 q 742 91 747 92 q 733 93 738 90 q 742 95 738 96 q 751 94 747 94 m 618 213 q 616 200 624 204 q 604 190 608 196 l 618 213 m 738 110 q 707 108 724 107 q 676 107 690 110 q 667 109 671 111 q 657 107 664 107 q 663 112 656 111 q 674 113 671 113 q 672 111 672 113 l 672 110 q 703 113 688 115 q 735 113 719 110 l 738 110 m 681 143 q 668 135 675 136 q 654 132 661 135 q 667 143 661 135 q 681 143 674 151 m 610 240 l 608 232 l 564 183 q 585 213 572 199 q 610 240 599 226 m 763 64 q 733 55 747 58 q 704 46 719 51 q 733 56 718 51 q 763 64 747 61 m 669 151 q 650 135 658 147 q 626 122 642 122 l 654 157 l 665 157 q 667 154 665 154 q 669 151 668 154 m 611 226 q 586 188 601 207 q 556 150 571 169 q 577 190 558 174 q 611 226 596 207 m 644 164 q 615 125 629 144 q 574 103 601 106 q 586 118 581 111 q 597 132 592 125 q 581 118 589 129 q 564 100 572 107 q 595 140 581 118 q 629 174 610 161 l 632 174 l 626 165 q 636 168 632 164 q 644 164 640 172 m 619 193 q 586 141 607 165 q 546 93 565 117 l 531 93 q 533 98 529 97 q 538 101 536 99 q 532 103 538 103 q 574 150 556 126 q 619 193 592 174 m 722 72 q 680 55 701 65 q 636 34 658 44 q 591 17 614 24 q 546 11 568 10 q 597 30 569 22 q 647 49 624 38 q 640 49 644 51 q 631 49 636 46 q 649 60 638 60 q 672 67 661 60 q 638 61 656 68 q 607 57 621 54 q 651 73 629 65 q 692 71 672 81 q 706 74 699 74 q 722 72 714 74 m 275 635 q 240 548 254 592 q 211 458 225 504 q 188 421 197 440 q 168 379 178 401 l 169 372 l 178 372 q 186 396 183 383 q 199 415 189 408 q 187 374 193 397 q 181 328 181 350 q 174 328 176 321 q 176 372 169 350 q 167 369 169 372 q 164 360 164 365 q 165 349 164 354 q 164 340 165 344 q 165 339 164 340 q 165 335 167 338 l 164 335 q 167 319 165 326 q 175 304 168 311 l 174 306 q 178 292 171 299 q 179 278 186 285 q 142 341 146 303 q 146 415 139 379 q 194 497 167 451 q 249 579 221 542 q 241 583 246 585 q 233 579 236 581 q 199 534 217 556 q 169 489 181 513 q 183 520 172 504 q 199 551 194 536 q 211 565 206 556 q 225 575 217 575 q 245 607 228 592 q 275 635 263 622 m 549 157 q 542 143 544 151 q 535 126 539 135 q 525 113 531 118 q 511 107 519 107 l 507 107 l 549 157 m 574 58 l 508 35 l 508 38 q 541 50 525 44 q 574 58 557 56 m 446 122 q 422 130 435 126 q 403 139 408 133 q 426 133 414 135 q 446 122 439 132 m 403 124 q 380 126 392 121 q 361 138 368 131 q 383 137 372 143 q 403 124 393 131 m 507 14 q 496 8 503 10 q 482 6 489 7 q 495 10 489 8 q 506 15 501 11 l 507 14 m 458 101 q 376 99 418 99 q 297 115 335 100 q 329 126 313 125 q 361 113 346 128 q 384 108 372 107 q 408 110 396 108 q 433 110 421 111 q 458 101 446 110 m 365 150 q 356 147 363 147 q 344 145 350 146 q 335 142 339 144 q 333 132 331 139 q 314 133 324 129 q 294 131 304 136 q 274 133 283 133 q 256 143 265 132 q 247 138 247 146 q 242 128 246 131 l 222 128 q 211 144 215 136 q 196 154 207 151 q 192 142 188 147 q 194 129 197 136 q 185 138 186 133 q 181 150 183 142 q 175 147 175 150 q 178 142 174 143 q 176 138 182 142 q 140 153 151 138 q 117 183 129 168 q 115 210 117 194 q 106 239 114 226 q 112 267 107 253 q 128 290 117 281 q 109 288 119 293 q 94 276 99 282 l 94 275 q 92 278 92 276 q 93 283 92 281 q 94 288 94 285 q 90 292 94 290 q 100 321 97 307 q 110 343 103 335 q 119 370 115 357 q 133 394 124 383 q 136 321 126 356 q 176 264 146 286 q 172 231 176 249 q 174 197 167 213 q 181 225 181 210 q 192 251 181 240 q 201 242 199 249 q 202 229 203 236 q 201 215 201 222 q 203 201 200 207 q 206 222 208 211 q 208 240 204 232 q 292 202 253 226 q 365 150 331 178 m 90 328 q 88 315 90 322 q 85 301 85 307 q 83 314 76 307 q 90 328 89 321 m 293 79 q 284 80 290 79 q 281 88 278 81 l 293 79 m 308 65 q 292 58 301 63 q 279 64 282 54 l 279 72 q 294 69 288 74 q 308 65 301 65 m 271 68 l 265 69 q 245 90 258 81 q 240 113 232 99 q 248 98 246 106 q 261 92 250 90 q 268 81 264 85 q 271 68 272 76 m 200 93 q 188 87 197 85 q 176 79 179 89 q 162 92 165 82 q 153 113 158 103 q 148 124 153 118 q 146 136 143 129 q 154 132 151 133 q 164 125 157 131 q 175 119 176 126 q 183 108 174 113 l 185 110 q 188 104 185 107 q 188 99 192 101 l 200 93 m 200 86 q 195 73 194 81 q 185 65 196 65 l 179 68 q 187 79 181 75 q 200 86 193 83 m 1078 824 q 1076 832 1078 829 q 1076 831 1076 832 q 1074 831 1075 831 q 1075 810 1068 821 q 1078 824 1078 818 m 1072 842 q 1065 840 1069 843 q 1057 842 1061 836 q 1063 854 1063 844 q 1040 861 1053 861 l 1032 861 q 1035 853 1035 857 q 1042 846 1035 849 l 1038 842 q 1044 835 1040 836 q 1053 835 1049 835 q 1060 833 1057 835 q 1065 826 1064 832 q 1071 834 1069 829 q 1072 842 1072 839 m 1032 861 q 1029 864 1031 863 q 1024 865 1028 865 q 1022 857 1022 863 q 1027 859 1025 858 q 1032 861 1029 860 m 1044 813 q 1032 835 1040 824 q 1022 857 1024 846 q 1004 831 1007 847 l 1007 832 q 1010 820 1011 825 q 1006 808 1008 815 q 1038 786 1014 789 q 1044 799 1042 793 q 1044 813 1047 804 m 1054 789 l 1054 790 l 1051 790 q 1051 789 1051 790 q 1053 789 1051 789 l 1054 789 m 856 675 q 836 692 849 688 q 814 703 824 697 q 793 724 803 713 q 782 751 783 736 l 778 744 q 799 702 781 718 q 838 678 817 686 l 836 665 q 849 667 842 668 q 856 675 856 667 m 619 157 q 607 145 614 153 q 599 133 600 138 q 609 146 604 140 q 619 157 614 151 z "},"2":{"ha":768,"x_min":0,"x_max":0,"o":""},"3":{"ha":768,"x_min":0,"x_max":0,"o":""},"4":{"ha":768,"x_min":0,"x_max":0,"o":""},"5":{"ha":768,"x_min":0,"x_max":0,"o":""},"6":{"ha":768,"x_min":0,"x_max":0,"o":""},"7":{"ha":768,"x_min":0,"x_max":0,"o":""},"8":{"ha":768,"x_min":0,"x_max":0,"o":""},"9":{"ha":768,"x_min":0,"x_max":0,"o":""},"\f":{"ha":550,"x_min":0,"x_max":0,"o":""},"\u001a":{"ha":768,"x_min":0,"x_max":0,"o":""}," ":{"ha":489,"x_min":0,"x_max":0,"o":""},"!":{"ha":1497,"x_min":56,"x_max":1442,"o":"m 1442 1 l 1442 1388 l 56 1388 l 56 1 l 1442 1 m 997 1021 q 990 1033 992 1026 q 986 1047 989 1040 q 988 1047 988 1047 q 989 1046 989 1046 l 997 1021 m 971 919 l 964 919 q 944 935 953 926 q 933 958 936 944 l 940 960 l 971 919 m 876 892 q 867 905 871 897 q 868 919 863 913 l 876 892 m 829 814 l 825 814 l 804 836 q 806 843 804 843 q 817 829 813 838 q 829 814 822 821 m 779 743 q 755 761 767 750 q 739 786 743 772 q 739 798 736 793 q 746 807 742 803 q 756 772 749 789 q 779 743 764 756 m 1276 1178 q 1268 1140 1279 1157 q 1242 1111 1257 1124 q 1181 1042 1217 1074 q 1118 972 1144 1011 q 1102 930 1115 949 q 1072 894 1089 911 q 1036 861 1054 878 q 1006 825 1018 844 l 1004 814 q 998 804 1003 807 q 988 796 993 801 q 958 738 976 764 q 914 689 939 713 q 914 683 915 686 q 918 676 913 679 q 941 659 935 675 q 954 632 947 643 l 953 628 q 953 591 960 608 q 939 557 946 574 l 908 550 q 870 531 889 544 q 849 494 851 517 q 860 488 854 486 q 873 497 867 489 q 874 513 879 504 q 897 528 885 521 q 925 536 910 535 q 938 531 932 531 q 949 535 943 532 q 959 542 954 539 q 971 546 964 546 q 981 542 976 546 q 989 535 985 538 q 1007 516 996 526 q 1010 494 1018 506 q 1020 477 1014 486 q 1038 467 1026 468 q 1047 438 1040 451 q 1053 410 1053 425 q 1047 406 1050 406 q 1040 408 1043 407 q 1034 408 1038 408 q 1029 403 1031 407 q 1037 390 1026 390 q 1051 383 1047 389 q 1040 385 1044 381 q 1028 386 1035 389 q 1017 381 1024 383 q 1011 369 1010 379 q 1030 362 1018 361 q 1050 361 1042 363 q 1045 321 1047 340 q 1040 278 1043 301 l 1035 286 q 1024 282 1028 289 q 1023 260 1026 272 q 1032 244 1019 247 q 1033 233 1031 239 q 1028 225 1035 228 q 1017 248 1025 236 q 1007 272 1010 260 q 993 282 1001 282 q 969 272 983 274 q 942 267 954 269 l 897 276 q 886 257 882 271 q 890 243 896 250 q 882 229 885 236 q 874 217 879 222 q 863 208 869 211 q 855 231 856 219 q 853 256 854 243 q 857 268 858 263 q 851 279 856 274 q 843 290 847 285 q 839 301 839 294 q 837 326 833 317 q 840 347 840 336 l 844 347 q 860 363 857 351 q 851 369 856 369 q 843 367 847 369 q 834 364 839 365 q 824 365 829 363 q 819 375 818 372 q 825 379 821 378 q 835 383 829 381 q 842 389 840 385 q 829 399 840 401 q 813 400 818 397 q 809 428 818 415 q 794 453 800 440 q 779 452 788 456 q 768 460 771 449 q 790 487 779 471 q 794 519 801 503 q 791 519 792 518 q 789 521 790 521 q 775 497 779 510 q 758 476 771 483 q 778 516 769 496 q 790 560 786 536 q 785 565 788 563 q 778 565 782 567 q 763 524 767 546 q 739 488 758 501 q 722 487 731 486 q 704 493 713 488 q 715 512 710 503 q 726 531 719 521 q 733 548 726 539 q 731 565 739 557 q 724 566 726 568 q 718 561 721 564 q 715 547 718 554 q 715 535 711 540 q 702 524 706 533 q 693 515 699 515 q 704 539 700 526 q 714 563 708 551 q 721 590 717 575 q 718 615 725 604 q 704 611 710 619 q 704 601 700 606 q 707 592 708 597 q 691 549 700 571 q 661 515 682 526 q 599 533 625 513 q 612 549 606 542 q 624 565 618 557 q 631 578 629 572 q 626 590 633 583 q 619 591 622 593 q 614 586 617 589 q 606 567 611 575 q 593 551 600 560 q 591 551 590 549 q 589 556 592 554 q 613 607 608 579 q 619 664 617 635 l 613 671 q 603 665 610 672 q 599 608 606 636 q 571 561 592 581 q 558 558 564 556 q 546 564 551 561 q 525 558 538 553 q 501 563 513 563 q 521 592 510 578 q 533 624 532 606 q 519 636 531 638 q 522 649 519 643 q 525 661 525 654 q 528 685 525 672 q 522 707 532 697 q 517 708 519 710 q 513 703 515 706 q 503 639 515 669 q 463 589 492 608 q 445 590 453 586 q 431 599 438 594 q 415 598 424 596 q 401 590 406 600 q 402 583 400 586 q 406 578 404 581 q 397 569 403 571 q 362 574 382 572 q 331 560 342 576 q 336 546 325 549 q 349 543 344 542 q 357 549 353 544 q 365 556 361 553 q 376 557 369 558 q 393 544 388 554 l 365 544 q 354 538 360 542 q 346 528 349 535 q 351 521 349 521 q 360 522 356 521 q 369 526 364 524 q 378 528 374 528 q 383 521 385 525 q 391 499 386 510 q 396 475 396 488 q 362 474 379 478 q 332 456 344 469 q 336 444 329 447 q 365 456 350 450 q 396 451 381 461 l 374 451 q 359 443 365 450 q 349 429 353 436 q 358 422 353 421 q 367 427 363 424 q 376 433 371 431 q 388 432 381 436 l 388 425 q 384 415 383 419 q 388 406 385 410 q 393 397 390 401 q 396 389 396 393 q 389 374 396 381 q 389 358 382 367 q 365 354 378 356 q 343 340 351 353 q 344 335 342 338 q 349 329 346 332 q 358 332 354 329 q 365 338 361 335 q 383 338 374 338 q 396 328 392 339 q 371 325 385 325 q 354 310 358 325 q 363 303 358 303 q 372 305 367 303 q 383 308 378 307 q 393 308 389 310 q 403 297 404 303 q 397 285 401 292 q 390 272 393 279 q 397 258 388 265 q 390 244 388 250 q 398 233 393 238 q 406 222 403 228 q 403 206 410 215 q 385 188 396 193 q 361 179 374 182 q 358 188 361 186 q 349 190 354 190 q 339 189 344 190 q 329 189 333 188 l 311 206 q 303 240 303 221 q 307 274 304 258 q 315 289 315 279 q 310 294 313 293 q 304 299 307 296 q 308 306 303 306 q 315 313 313 307 q 313 324 322 319 q 301 333 304 328 l 304 351 q 295 431 296 392 q 299 511 294 469 q 303 524 300 518 q 301 538 307 531 q 299 551 300 543 q 304 564 299 558 q 295 599 297 579 q 294 636 293 618 q 284 711 283 668 q 285 790 285 754 q 288 813 294 800 q 285 838 282 825 q 292 846 288 843 q 293 856 296 849 q 279 885 282 869 q 277 918 276 901 q 280 951 278 935 q 282 983 282 967 q 290 994 283 990 q 294 1007 296 997 q 278 1034 283 1018 q 281 1067 274 1050 q 287 1076 281 1074 q 292 1086 293 1079 q 284 1110 289 1097 q 290 1132 279 1124 q 292 1149 297 1139 q 292 1168 286 1160 q 304 1189 299 1178 q 325 1199 310 1200 q 333 1197 332 1200 q 335 1190 335 1194 q 337 1182 336 1186 q 343 1176 338 1178 q 365 1186 356 1179 q 365 1196 367 1190 q 368 1204 364 1201 q 376 1204 372 1204 q 385 1201 382 1204 q 398 1178 389 1189 q 415 1158 407 1168 q 428 1137 424 1149 q 429 1108 433 1125 q 426 1081 425 1096 q 418 1056 428 1065 q 391 1047 406 1049 q 364 1057 376 1046 q 360 1050 358 1054 q 361 1043 361 1046 q 379 1031 368 1032 q 399 1028 390 1029 q 386 1025 393 1024 q 372 1025 379 1026 q 365 1026 368 1024 q 357 1030 361 1028 q 349 1031 353 1032 q 343 1025 346 1031 q 350 1013 344 1017 q 363 1009 356 1010 q 376 1008 369 1008 q 390 1007 383 1008 q 405 995 397 1000 q 424 992 413 990 q 428 977 426 985 q 418 968 429 969 q 406 957 414 958 q 389 956 399 956 q 372 954 381 956 q 358 944 364 953 q 384 935 369 933 q 411 939 399 936 l 411 936 q 389 928 400 931 q 365 929 378 925 q 356 919 356 926 q 364 910 358 913 q 376 909 369 908 q 388 911 382 910 q 399 913 394 913 q 420 921 410 915 q 442 929 431 926 q 458 897 458 918 q 435 865 450 879 q 400 849 419 851 q 387 853 392 856 q 378 844 382 850 q 371 833 375 839 q 360 828 367 828 q 363 819 358 822 q 371 811 368 815 q 400 805 386 804 q 428 812 414 806 q 453 827 442 818 q 476 844 465 836 q 483 842 483 847 q 486 835 483 838 q 488 765 493 799 q 463 704 482 732 q 447 698 451 707 q 431 688 442 689 q 405 688 418 685 q 381 699 392 692 q 382 710 381 707 q 371 717 379 718 q 367 712 368 714 q 364 707 367 710 q 366 692 361 699 q 378 678 371 685 q 414 667 393 668 q 449 675 435 667 q 458 682 456 676 q 468 681 461 688 q 476 697 479 689 q 503 749 496 721 q 507 807 510 778 q 514 804 511 807 q 519 799 517 801 q 538 801 529 796 q 553 811 546 807 q 628 788 593 804 q 694 743 663 771 q 697 721 697 732 q 708 703 697 710 q 722 721 722 708 q 717 751 718 735 q 726 778 715 767 q 733 771 729 775 q 738 761 736 767 q 769 729 750 743 q 813 718 788 715 q 822 723 817 721 q 828 731 826 725 q 791 754 811 742 q 764 790 771 767 q 765 811 763 800 q 772 829 767 822 q 780 835 776 831 q 789 835 783 839 q 806 813 796 824 q 828 793 817 801 q 858 781 842 789 q 888 785 874 772 q 882 799 888 796 q 848 818 864 804 q 825 849 832 832 q 831 864 835 856 q 831 881 828 872 q 839 894 835 886 q 851 901 843 901 q 872 869 861 885 q 901 843 882 853 q 916 841 908 840 q 928 849 924 842 l 903 874 q 887 906 894 889 q 890 940 879 922 q 903 948 897 944 q 915 951 908 951 q 938 920 925 935 q 969 901 950 906 q 987 907 976 906 q 999 919 997 908 q 965 951 982 935 q 946 992 949 967 q 953 997 949 999 q 961 1000 958 994 q 965 1017 963 1007 q 975 1029 967 1026 q 1006 989 988 1008 q 1051 972 1024 969 q 1058 981 1056 972 q 1038 997 1049 990 q 1019 1017 1028 1004 q 1008 1036 1017 1026 q 1010 1057 1000 1046 q 1010 1063 1013 1060 q 1007 1071 1007 1067 q 1013 1079 1008 1075 q 1021 1083 1017 1083 q 1025 1076 1026 1081 q 1053 1047 1039 1061 q 1089 1036 1068 1033 q 1096 1047 1099 1039 q 1069 1070 1085 1061 q 1053 1099 1054 1079 q 1056 1108 1056 1104 q 1063 1117 1056 1114 q 1072 1119 1069 1115 q 1076 1126 1075 1122 q 1080 1133 1078 1131 q 1089 1136 1082 1136 q 1090 1147 1096 1143 q 1086 1158 1083 1151 q 1097 1162 1092 1161 q 1107 1169 1103 1163 q 1106 1177 1107 1174 q 1103 1185 1104 1181 q 1125 1197 1114 1197 q 1150 1194 1138 1197 q 1153 1185 1154 1190 q 1152 1174 1153 1179 q 1153 1165 1151 1168 q 1164 1161 1156 1161 q 1171 1181 1172 1169 q 1167 1203 1169 1192 q 1180 1205 1174 1206 q 1190 1197 1186 1204 q 1194 1188 1194 1192 q 1190 1182 1193 1185 q 1185 1176 1188 1179 q 1185 1167 1182 1172 q 1201 1157 1188 1160 q 1213 1174 1215 1163 q 1213 1197 1210 1185 q 1219 1193 1218 1199 q 1226 1185 1221 1188 q 1231 1156 1236 1171 q 1219 1128 1226 1140 q 1212 1126 1217 1125 q 1204 1121 1207 1126 q 1173 1067 1190 1093 q 1132 1022 1156 1042 q 1108 1007 1121 1011 q 1089 989 1096 1003 q 1074 973 1085 978 q 1057 961 1064 968 q 1042 924 1058 940 q 1015 890 1026 908 q 985 855 1004 868 q 951 822 965 842 q 942 818 944 822 q 938 808 940 814 q 933 799 936 803 q 924 794 931 794 q 911 788 918 792 q 908 775 904 785 q 880 744 896 758 q 844 721 864 731 q 851 706 842 713 q 868 710 861 706 q 906 701 890 717 q 919 706 911 700 q 911 719 922 717 q 893 728 900 722 q 906 727 900 731 q 918 721 911 724 q 925 733 926 726 q 907 746 914 744 q 915 753 908 754 q 924 757 921 751 q 929 777 921 771 q 946 789 938 783 q 972 824 957 808 q 1004 856 988 840 q 1037 888 1021 872 q 1065 925 1053 904 l 1075 953 q 1096 972 1089 960 q 1114 993 1103 983 q 1174 1043 1150 1013 q 1219 1106 1197 1074 q 1236 1124 1231 1113 q 1247 1146 1242 1135 q 1251 1160 1251 1153 q 1249 1175 1251 1168 q 1244 1188 1247 1182 q 1243 1199 1242 1194 l 1246 1199 q 1263 1192 1257 1199 q 1276 1178 1269 1185 m 464 857 q 414 824 440 833 q 399 822 407 824 q 388 828 390 821 q 428 840 410 829 q 463 867 446 851 l 464 857 m 515 621 l 511 606 l 486 572 q 478 570 483 571 q 472 575 474 569 q 488 590 481 582 q 503 604 494 597 q 509 614 508 608 q 515 621 510 619 m 194 931 l 194 1249 l 1303 1249 l 1303 372 q 1197 373 1250 369 q 1090 376 1143 376 q 1081 375 1085 371 q 1072 382 1076 379 q 1084 388 1075 389 q 1100 390 1093 388 l 1118 390 q 1113 399 1115 393 q 1104 404 1111 404 q 1087 403 1094 404 q 1069 404 1079 401 q 1058 446 1060 425 q 1046 488 1057 467 q 1010 532 1028 508 q 965 564 993 556 q 965 585 958 574 q 971 610 972 597 q 960 653 971 633 q 943 694 949 672 q 972 733 957 714 q 992 774 986 753 q 1010 797 999 788 q 1022 821 1022 806 q 1049 851 1035 838 q 1078 879 1064 865 q 1106 908 1093 893 q 1125 943 1118 924 q 1134 958 1132 950 q 1139 974 1136 965 q 1208 1048 1175 1013 q 1276 1124 1242 1083 q 1292 1186 1300 1153 q 1269 1209 1283 1204 q 1238 1214 1254 1214 q 1206 1214 1222 1214 q 1176 1221 1189 1214 q 1148 1213 1164 1214 q 1118 1213 1132 1213 q 1100 1205 1106 1211 q 1090 1190 1094 1199 q 1082 1174 1086 1182 q 1068 1160 1078 1165 q 1069 1146 1074 1151 q 1061 1133 1064 1140 l 1039 1124 q 987 1072 1013 1097 q 946 1014 961 1046 q 926 997 935 1007 q 917 975 917 988 q 857 934 885 960 q 811 876 829 908 q 797 868 804 872 q 788 856 790 864 q 735 818 760 843 q 704 763 711 793 l 701 758 q 607 813 658 794 q 503 829 556 832 q 481 895 493 863 q 444 954 468 928 q 442 985 449 971 q 428 1013 435 999 q 427 1028 419 1022 q 432 1044 435 1035 q 440 1126 446 1081 q 411 1203 435 1171 q 371 1221 394 1221 q 361 1219 367 1219 q 354 1213 356 1219 q 330 1213 342 1211 q 306 1208 318 1215 q 274 1162 286 1188 q 271 1107 263 1136 l 267 1104 q 272 1092 272 1100 q 271 1076 272 1083 q 265 1058 265 1068 q 265 1038 264 1047 q 270 1019 268 1029 q 274 1000 272 1010 q 269 978 271 989 q 267 957 268 968 q 260 950 260 957 q 253 935 258 943 l 251 939 q 249 954 251 944 q 239 960 247 964 q 216 947 226 954 q 194 931 206 939 m 265 926 q 264 913 264 919 q 264 899 264 906 q 272 867 264 881 q 269 835 279 853 q 272 736 275 785 q 279 636 268 688 q 286 551 288 596 q 282 467 285 506 q 280 428 279 450 q 289 396 281 407 q 289 372 285 383 q 290 347 293 360 q 290 323 288 336 q 286 299 292 310 q 290 287 288 293 q 289 275 292 281 q 288 249 289 263 q 290 224 288 236 q 298 201 292 211 q 315 182 304 190 q 335 165 322 168 q 358 158 347 163 l 364 164 q 408 188 392 168 q 419 210 418 199 q 417 234 419 222 q 412 258 414 246 q 413 282 410 269 q 415 318 419 297 q 404 354 411 339 q 405 367 403 361 q 410 378 407 372 q 413 388 413 383 q 410 400 414 393 q 404 423 397 411 q 411 446 411 435 q 418 459 422 451 q 411 474 414 467 q 405 503 408 488 q 415 529 401 518 q 413 556 413 543 q 425 581 414 569 q 442 569 433 575 q 458 560 450 564 q 508 545 482 549 q 560 540 533 542 q 610 508 581 517 q 665 496 639 499 q 704 475 683 481 q 742 453 725 469 q 758 443 749 446 q 775 436 767 440 q 790 426 783 432 q 797 407 796 419 q 794 392 800 397 q 781 386 789 386 q 742 384 763 383 q 703 382 722 385 q 697 372 697 378 l 711 365 l 800 372 l 808 361 q 766 352 788 350 q 721 347 744 354 q 678 342 701 344 q 635 340 654 339 q 624 338 631 344 q 626 326 621 331 q 638 321 632 322 q 706 331 669 328 q 775 340 742 335 q 795 342 783 338 q 817 335 807 346 q 827 293 822 314 q 839 251 832 272 q 842 218 836 235 q 854 186 849 201 q 861 183 857 182 q 868 186 865 185 q 894 217 882 201 q 910 253 906 233 q 939 253 924 257 q 968 256 954 250 q 992 257 979 261 q 1010 226 1006 244 q 1031 194 1014 207 q 1038 196 1036 192 q 1043 203 1040 200 q 1053 261 1049 232 q 1065 321 1058 290 q 1066 343 1068 331 q 1072 363 1064 356 q 1190 358 1135 361 q 1303 358 1244 354 l 1303 140 l 194 140 l 194 913 q 215 927 206 919 q 236 942 225 935 l 236 936 q 238 921 238 932 q 247 913 238 910 q 265 926 257 915 m 1031 429 q 1028 434 1032 432 q 1022 438 1025 436 q 1012 432 1017 436 q 1002 425 1007 428 q 992 422 997 422 q 981 429 986 422 q 958 427 968 431 q 938 421 949 424 q 934 424 936 422 q 935 429 932 426 q 943 433 938 433 q 953 433 949 433 q 961 435 958 433 q 963 444 964 438 q 956 451 957 446 q 953 460 954 456 q 951 468 953 465 q 940 469 949 471 q 933 464 935 468 q 931 454 932 460 q 927 444 929 449 q 919 439 925 440 q 905 424 917 428 q 885 414 893 421 q 871 422 876 417 q 854 424 865 426 q 847 417 851 419 q 846 407 843 414 q 857 403 851 400 q 869 404 863 406 q 874 394 872 399 q 876 383 875 389 q 869 378 874 381 q 865 369 865 376 q 876 365 869 363 q 886 369 882 368 q 891 382 890 375 q 893 396 892 389 q 899 408 894 403 q 911 414 903 413 q 924 413 918 417 q 933 403 931 408 q 929 378 939 388 q 918 354 919 368 l 925 351 q 953 355 939 354 q 979 361 967 356 q 975 372 981 368 q 964 381 969 376 q 955 390 958 385 q 958 404 951 396 q 958 410 956 408 q 963 414 961 411 q 978 414 969 414 q 989 404 986 414 q 990 388 990 396 q 996 372 989 379 q 1001 372 1001 372 q 1005 384 1010 376 q 1008 397 1000 392 q 1010 412 1007 404 q 1021 422 1014 419 q 1031 429 1028 419 m 1014 310 q 1007 322 1017 319 q 1000 320 1004 321 q 996 314 996 319 q 997 307 993 310 q 1003 301 1000 304 q 1010 303 1010 299 q 1014 310 1011 307 m 896 299 q 890 310 896 308 q 882 308 886 308 q 876 301 878 307 q 885 293 878 294 q 896 299 892 292 m 883 243 q 883 258 882 250 q 875 269 885 265 q 865 264 868 272 q 866 244 872 253 q 865 224 860 235 q 877 230 874 224 q 883 243 881 236 m 1125 572 l 1118 583 l 1118 585 l 1125 572 m 1201 411 q 1186 415 1194 417 q 1171 411 1178 413 q 1149 405 1160 406 q 1128 407 1139 404 q 1123 404 1125 401 q 1118 407 1121 407 l 1114 404 q 1124 394 1121 400 q 1136 390 1128 388 q 1167 393 1153 388 q 1196 400 1181 399 q 1201 406 1199 403 q 1201 411 1203 408 z "},",":{"ha":768,"x_min":0,"x_max":0,"o":""},"-":{"ha":768,"x_min":0,"x_max":0,"o":""},".":{"ha":768,"x_min":0,"x_max":0,"o":""},":":{"ha":768,"x_min":0,"x_max":0,"o":""},";":{"ha":768,"x_min":0,"x_max":0,"o":""},"<":{"ha":768,"x_min":0,"x_max":0,"o":""},">":{"ha":768,"x_min":0,"x_max":0,"o":""},"?":{"ha":1365,"x_min":25,"x_max":1332,"o":"m 1328 86 q 1290 122 1313 107 q 1253 158 1268 136 q 1284 182 1272 169 q 1319 201 1296 194 q 1324 211 1326 204 q 1314 215 1321 218 q 1283 199 1294 208 q 1257 179 1272 190 q 1243 170 1253 175 q 1236 158 1233 165 q 1252 135 1242 146 q 1274 116 1263 125 q 1296 98 1285 107 q 1315 78 1307 89 q 1326 76 1319 72 q 1328 86 1332 79 m 1224 82 q 1227 122 1224 104 q 1232 158 1231 140 q 1228 193 1233 175 q 1207 232 1224 211 q 1194 232 1200 239 q 1164 192 1179 211 q 1138 151 1149 174 q 1108 194 1125 171 q 1076 232 1092 217 q 1114 297 1100 264 q 1128 368 1128 331 q 1117 401 1128 378 q 1075 438 1107 424 q 1067 381 1086 411 q 1015 326 1049 351 q 944 283 982 300 q 876 267 906 267 q 829 258 856 267 q 772 249 803 250 q 724 247 746 247 q 681 248 701 246 q 641 256 661 250 q 599 276 621 263 q 554 313 574 292 q 522 358 535 335 q 501 405 508 382 q 493 444 493 428 q 513 513 493 476 q 567 580 533 549 q 645 631 601 611 q 735 651 689 651 q 809 635 771 651 q 879 590 847 618 q 932 524 911 561 q 953 449 953 488 q 940 406 953 419 q 910 383 928 393 q 874 360 893 372 q 844 319 856 347 q 938 345 899 321 q 1001 401 976 369 q 1039 463 1026 432 q 1051 510 1051 494 q 1022 607 1051 550 q 944 717 992 664 q 837 807 896 769 q 718 844 778 844 q 662 833 696 844 q 593 806 628 822 q 526 774 558 790 q 476 747 494 757 q 457 735 458 736 q 488 760 457 735 q 563 815 519 785 q 654 871 607 846 q 735 896 701 896 q 888 866 826 896 q 989 790 949 836 q 1051 686 1029 743 q 1089 576 1074 629 q 1116 478 1104 522 q 1146 415 1128 435 q 1157 565 1146 486 q 1176 728 1168 643 q 1181 901 1183 813 q 1150 1085 1178 990 q 1122 1162 1139 1121 q 1090 1238 1106 1203 q 1063 1297 1075 1274 q 1051 1321 1051 1321 q 1053 1284 1051 1321 q 1049 1201 1054 1247 q 1030 1112 1044 1154 q 982 1058 1015 1069 q 965 1114 969 1076 q 958 1192 961 1151 q 953 1267 956 1232 q 943 1318 951 1303 q 914 1277 931 1307 q 881 1215 897 1247 q 850 1154 864 1182 q 828 1119 836 1126 q 785 1194 808 1150 q 742 1277 763 1238 q 708 1344 722 1317 q 694 1372 694 1372 q 693 1342 694 1369 q 688 1267 692 1314 q 675 1171 683 1219 q 653 1080 667 1122 q 619 1018 640 1038 q 581 1055 607 1028 q 527 1114 556 1082 q 471 1178 499 1146 q 426 1231 443 1211 q 408 1251 410 1250 q 411 1224 408 1249 q 417 1158 414 1199 q 419 1081 419 1118 q 412 1015 418 1043 q 390 988 406 988 q 298 1015 344 988 q 213 1074 251 1042 q 149 1133 174 1106 q 125 1160 125 1160 q 135 1132 125 1160 q 158 1065 146 1104 q 178 983 169 1025 q 182 911 186 940 q 147 915 169 903 q 101 949 125 928 q 55 991 76 969 q 25 1021 33 1013 l 78 892 q 103 785 93 843 q 128 669 113 728 q 172 554 144 611 q 249 449 199 497 q 263 476 258 467 q 269 490 267 485 q 272 499 271 494 q 278 513 274 503 q 331 593 299 551 q 394 669 363 635 q 447 725 425 703 q 469 747 469 747 q 463 731 474 751 q 434 674 453 710 q 393 597 415 639 q 350 517 371 554 q 315 453 329 479 q 297 424 300 426 q 374 362 326 394 q 467 301 421 329 q 546 255 513 274 q 579 236 579 236 q 587 226 581 235 q 600 206 593 218 q 606 185 607 193 q 523 231 572 200 q 424 294 474 261 q 331 358 375 326 q 260 409 286 390 q 232 429 233 428 q 250 399 232 429 q 300 324 268 369 q 374 226 332 278 q 463 128 415 174 q 560 52 510 82 q 658 22 611 22 q 750 36 696 22 q 862 76 804 50 q 974 139 919 103 q 1068 221 1029 175 q 1101 178 1083 203 q 1132 133 1119 153 q 1146 133 1139 122 q 1172 176 1157 157 q 1201 215 1186 196 q 1216 181 1214 197 q 1217 149 1218 165 q 1212 117 1215 133 q 1208 82 1208 100 q 1215 75 1208 75 q 1224 82 1224 75 m 811 444 q 786 517 811 485 q 713 550 761 550 q 626 525 660 550 q 592 454 592 500 q 598 417 592 438 q 617 379 604 397 q 651 349 631 361 q 701 338 672 338 q 740 344 721 338 q 776 365 760 351 q 801 399 792 379 q 811 444 811 419 m 756 489 q 744 462 756 474 q 714 450 732 450 q 685 462 697 450 q 672 489 672 474 q 685 517 672 506 q 714 528 697 528 q 744 517 732 528 q 756 489 756 506 z "},"@":{"ha":1489,"x_min":56,"x_max":1433,"o":"m 1433 7 l 1433 1383 l 56 1383 l 56 7 l 1433 7 m 1347 147 q 1346 138 1351 142 q 1336 140 1340 135 q 1319 158 1329 150 q 1298 175 1308 167 q 1278 192 1288 183 q 1264 213 1269 201 q 1270 223 1261 218 q 1283 231 1279 228 q 1307 249 1297 242 q 1335 264 1317 257 q 1344 260 1342 267 q 1339 251 1346 254 q 1308 233 1319 244 q 1279 213 1296 222 q 1313 180 1293 193 q 1347 147 1333 167 m 1254 144 q 1247 138 1254 138 q 1240 144 1240 138 q 1243 176 1240 161 q 1247 205 1246 190 q 1246 233 1249 219 q 1233 264 1243 247 q 1206 228 1218 244 q 1183 190 1193 211 q 1177 185 1181 186 q 1171 189 1174 185 q 1144 230 1160 207 q 1113 268 1128 253 q 1029 194 1078 228 q 928 138 981 161 q 827 103 876 115 q 744 90 778 90 q 656 117 701 90 q 569 185 611 144 q 488 273 526 225 q 422 361 450 321 q 378 428 394 401 q 361 456 361 456 q 386 438 363 454 q 450 392 410 421 q 535 334 490 364 q 623 277 579 304 q 697 236 667 250 q 692 255 699 243 q 681 274 686 267 q 674 282 675 281 q 644 299 674 282 q 572 340 614 315 q 488 395 531 365 q 419 451 444 425 q 435 476 422 453 q 467 534 449 500 q 506 606 486 568 q 542 676 526 644 q 568 727 558 708 q 574 742 578 746 q 553 722 574 742 q 506 672 533 703 q 449 603 479 640 q 401 531 419 565 q 396 519 397 522 q 393 511 394 515 q 388 499 392 507 q 375 474 385 490 q 306 568 331 517 q 268 672 282 619 q 245 776 254 725 q 222 872 236 828 l 175 988 q 202 961 183 981 q 242 924 221 942 q 285 894 264 906 q 317 889 306 882 q 313 953 321 915 q 295 1027 306 992 q 275 1088 285 1063 q 265 1113 265 1113 q 287 1088 265 1113 q 343 1035 308 1064 q 420 983 378 1007 q 503 958 463 958 q 523 983 517 958 q 529 1042 529 1008 q 527 1113 529 1076 q 522 1172 525 1149 q 519 1196 519 1194 q 535 1177 521 1194 q 575 1131 550 1160 q 626 1072 600 1101 q 676 1019 653 1043 q 710 985 699 994 q 740 1041 728 1003 q 760 1123 753 1079 q 772 1210 768 1167 q 776 1278 775 1253 q 778 1306 778 1303 q 790 1281 778 1306 q 819 1219 801 1256 q 858 1144 838 1183 q 897 1076 879 1104 q 917 1108 904 1083 q 944 1163 929 1133 q 974 1219 960 1192 q 1000 1256 989 1246 q 1010 1210 1008 1242 q 1015 1142 1013 1178 q 1021 1072 1017 1106 q 1036 1022 1025 1039 q 1079 1070 1065 1032 q 1097 1150 1093 1108 q 1100 1225 1101 1192 q 1099 1258 1099 1258 q 1109 1238 1099 1258 q 1134 1185 1119 1217 q 1163 1115 1149 1153 q 1188 1046 1178 1078 q 1215 881 1213 961 q 1210 724 1217 800 q 1193 578 1203 649 q 1183 443 1183 507 q 1156 500 1167 461 q 1133 588 1146 539 q 1099 687 1119 636 q 1042 780 1078 738 q 951 849 1006 822 q 813 876 896 876 q 756 861 789 876 q 691 825 724 846 q 628 782 658 804 q 581 746 599 760 q 563 731 564 732 q 581 741 564 732 q 626 765 597 750 q 685 795 654 781 q 747 820 717 810 q 799 831 778 831 q 905 797 851 831 q 1001 716 958 764 q 1072 617 1044 668 q 1099 529 1099 565 q 1088 487 1099 515 q 1053 430 1076 458 q 996 380 1031 401 q 913 357 961 358 q 939 394 922 382 q 971 415 956 406 q 998 435 986 424 q 1010 474 1010 447 q 991 542 1010 508 q 943 601 972 575 q 879 642 914 626 q 813 657 844 657 q 732 638 771 657 q 663 592 693 619 q 615 531 633 564 q 596 469 596 499 q 602 433 596 454 q 621 392 608 413 q 651 351 633 371 q 690 318 668 332 q 765 293 731 294 q 847 293 800 292 q 899 302 875 294 q 940 310 922 310 q 1001 325 967 310 q 1066 363 1036 340 q 1113 413 1096 386 q 1119 464 1129 440 q 1157 431 1147 451 q 1167 401 1167 410 q 1121 279 1167 336 q 1150 244 1135 264 q 1176 206 1165 224 q 1201 242 1188 225 q 1228 278 1214 260 q 1239 279 1232 286 q 1258 244 1254 260 q 1262 213 1263 228 q 1258 181 1261 197 q 1254 144 1254 164 m 882 469 q 851 399 882 424 q 783 374 819 374 q 738 385 757 374 q 708 411 719 396 q 690 444 696 426 q 685 478 685 463 q 715 542 685 519 q 793 565 746 565 q 860 535 838 565 q 882 469 882 506 m 833 510 q 822 535 833 525 q 794 544 810 544 q 768 535 779 544 q 757 510 757 525 q 768 485 757 494 q 794 475 779 475 q 822 485 810 475 q 833 510 833 494 z "},"A":{"ha":1357,"x_min":26,"x_max":1331,"o":"m 1007 729 q 990 740 1001 742 q 981 715 979 729 q 987 709 983 713 q 996 708 990 706 q 1007 729 1007 717 m 881 732 q 875 739 878 736 q 865 742 872 742 q 859 735 863 739 q 856 725 856 731 q 860 715 858 719 q 869 708 863 710 q 877 718 876 711 q 881 732 878 725 m 1328 651 q 1331 660 1331 657 q 1326 668 1331 664 q 1211 664 1267 675 q 1094 650 1156 653 l 1086 657 q 1072 703 1076 679 q 1066 750 1068 726 q 1060 797 1064 774 q 1050 844 1057 821 q 1044 856 1049 853 q 1035 859 1040 858 q 1025 860 1031 860 q 1015 864 1019 861 q 981 941 1000 903 q 943 1017 963 979 q 906 1092 924 1054 q 875 1171 888 1131 q 842 1219 856 1193 q 815 1271 828 1244 q 784 1322 801 1297 q 742 1365 767 1346 q 727 1375 735 1374 q 711 1375 719 1376 q 694 1372 703 1374 q 676 1376 686 1371 q 613 1334 639 1361 q 565 1275 586 1307 q 527 1208 544 1243 q 492 1142 510 1174 q 401 942 454 1038 q 297 746 347 846 q 291 715 297 729 q 281 686 285 701 q 238 596 256 642 q 233 571 239 582 q 219 549 226 560 q 206 527 211 539 q 204 501 200 515 q 160 428 176 467 q 135 346 143 389 q 131 319 138 331 q 118 297 125 308 q 105 275 111 286 q 101 250 99 264 q 69 195 85 222 q 44 136 53 168 q 42 111 43 124 q 32 89 40 99 q 28 59 29 75 q 38 32 26 43 q 62 20 49 25 q 90 21 75 15 q 149 14 118 8 q 206 31 181 19 q 231 19 217 19 q 258 22 244 19 q 278 36 269 28 q 293 56 286 44 q 297 76 296 65 q 307 93 299 86 l 301 100 q 308 110 304 106 q 310 122 311 115 q 367 211 338 168 q 411 307 396 254 q 419 343 411 326 q 439 375 428 360 q 462 406 450 390 q 482 438 474 421 q 531 440 506 442 q 581 444 556 438 q 639 432 608 429 q 701 433 669 435 q 695 441 699 438 q 689 449 692 444 q 660 449 674 450 q 633 447 646 447 q 608 450 621 447 q 586 465 596 453 q 527 458 558 456 q 468 460 496 461 l 468 461 l 456 461 q 447 472 449 464 q 440 486 444 479 q 479 557 464 519 q 492 636 494 594 q 479 653 485 644 q 463 664 474 663 q 455 659 460 663 q 453 650 450 656 q 460 644 456 646 q 468 640 465 643 q 469 572 481 606 q 438 510 457 538 q 424 495 431 504 q 411 478 418 486 q 397 469 404 471 q 378 474 389 467 q 369 467 371 471 q 366 458 367 463 q 364 448 365 453 q 354 442 363 443 q 347 423 349 433 q 353 404 346 413 q 307 292 335 346 q 246 186 279 239 q 232 180 236 185 q 226 168 228 175 q 222 154 224 161 q 214 142 219 147 q 218 126 211 131 q 228 114 225 121 q 217 83 222 99 q 200 56 213 68 q 191 43 196 44 q 180 46 186 42 q 167 55 174 50 q 156 61 161 60 q 147 49 144 58 q 139 38 149 40 q 128 33 135 35 q 119 39 122 32 q 122 64 129 51 q 107 75 114 75 q 98 64 100 71 q 96 51 96 57 q 78 42 86 49 q 60 40 71 35 q 46 55 49 44 q 44 76 43 65 q 51 84 47 82 q 58 89 56 86 q 66 149 51 121 q 93 206 81 178 q 101 221 94 214 q 113 235 107 228 q 121 251 118 243 q 119 268 124 258 q 129 286 126 276 q 143 301 132 296 q 224 504 151 415 q 223 526 218 517 q 235 543 228 535 q 249 560 243 551 q 250 581 254 569 q 281 656 264 619 q 315 728 297 692 q 317 742 313 735 q 322 756 322 749 q 358 822 343 788 q 393 890 374 857 q 442 987 421 938 q 485 1086 464 1036 q 529 1185 506 1136 q 585 1279 553 1233 q 605 1301 594 1289 q 626 1325 615 1314 q 649 1344 636 1336 q 676 1354 661 1353 q 688 1350 682 1350 q 699 1352 693 1350 q 710 1356 704 1354 q 722 1357 715 1358 q 779 1288 758 1328 q 829 1211 800 1247 q 853 1165 840 1188 q 875 1118 867 1143 q 914 1032 889 1072 q 954 947 939 992 q 987 886 969 917 q 997 819 1004 856 q 990 799 997 804 q 974 794 983 794 q 953 796 964 794 q 933 796 942 797 q 911 792 922 794 q 890 793 900 790 q 891 797 889 796 q 894 801 893 799 q 887 811 894 810 q 875 817 879 813 q 878 828 871 825 q 883 838 885 831 q 878 844 881 843 q 873 843 876 844 q 867 840 869 842 q 861 842 864 839 q 861 850 858 847 q 868 855 864 853 q 877 860 872 857 q 882 869 882 863 q 874 874 879 874 q 864 872 869 874 q 853 869 858 869 q 843 872 847 868 q 852 885 843 883 q 864 893 861 886 q 876 902 869 897 q 874 914 883 907 q 850 903 861 910 q 828 899 839 896 q 828 914 824 908 q 839 924 832 919 q 853 933 846 929 q 863 946 860 938 q 851 948 856 950 q 840 942 846 946 q 829 934 835 938 q 817 933 824 931 q 810 939 811 935 q 810 947 810 943 q 835 962 824 954 q 854 982 846 969 q 850 985 851 985 q 847 986 849 985 q 826 974 836 979 q 804 971 815 968 l 804 979 q 814 990 807 985 q 826 999 821 994 q 834 1010 832 1004 q 832 1022 836 1015 q 811 1007 822 1015 q 789 1006 800 999 q 803 1024 792 1018 q 824 1038 814 1031 q 827 1046 826 1040 q 824 1054 828 1051 q 806 1042 815 1046 q 785 1035 796 1038 q 783 1045 781 1042 q 790 1051 785 1049 q 799 1058 794 1054 q 807 1067 804 1061 q 812 1074 811 1069 q 807 1082 813 1079 q 788 1069 797 1079 q 767 1063 779 1060 q 763 1069 763 1065 q 763 1075 764 1072 q 785 1091 772 1085 q 799 1110 797 1097 q 789 1113 793 1115 q 780 1107 785 1111 q 770 1099 775 1103 q 758 1094 765 1094 q 751 1107 749 1103 q 760 1115 753 1111 q 774 1122 767 1118 q 785 1132 782 1125 q 781 1146 785 1146 q 771 1140 776 1146 q 758 1129 765 1135 q 744 1126 750 1124 q 735 1140 735 1131 q 758 1153 746 1147 q 778 1171 771 1160 q 766 1178 772 1179 q 753 1174 760 1178 q 741 1165 747 1169 q 728 1164 735 1161 q 749 1181 735 1175 q 767 1203 764 1186 q 757 1210 767 1210 q 748 1204 750 1210 q 742 1196 746 1199 q 735 1191 739 1192 q 728 1196 731 1190 l 739 1210 q 742 1218 742 1213 q 735 1226 742 1224 q 710 1211 718 1224 q 686 1196 703 1199 q 685 1187 689 1190 q 679 1179 682 1183 q 658 1110 674 1143 q 613 1053 642 1076 q 608 1035 608 1043 q 607 1018 607 1028 q 600 1006 604 1011 q 586 1004 596 1001 q 576 990 575 999 q 565 921 578 954 q 532 857 551 888 q 515 841 518 851 q 513 818 513 831 q 513 794 513 807 q 507 774 514 782 q 518 756 504 763 q 576 767 549 758 q 636 764 604 775 q 658 755 647 757 q 679 760 668 753 q 694 752 686 751 q 710 756 703 753 q 730 768 718 765 q 754 769 742 771 q 778 763 767 767 q 801 760 790 760 q 808 767 806 763 q 813 774 810 771 q 822 788 821 779 q 824 806 824 796 q 824 825 824 815 q 829 843 824 835 q 836 841 833 844 q 842 835 839 838 q 847 817 838 822 q 856 801 857 813 q 868 773 857 778 q 894 771 879 768 q 924 778 908 774 q 953 775 940 782 q 972 776 961 781 q 992 771 982 772 q 1001 778 994 776 q 1007 788 1007 781 q 1011 811 1004 801 q 1024 832 1018 821 q 1036 822 1036 835 q 1042 801 1036 810 q 1044 757 1038 779 q 1050 714 1050 735 q 1058 687 1054 700 q 1067 661 1063 674 q 1065 650 1069 654 q 1056 643 1061 646 q 1054 637 1056 640 q 1057 631 1053 633 q 1069 608 1072 622 q 1067 579 1065 593 l 1061 579 q 1059 587 1054 583 q 1061 596 1064 590 q 1041 608 1047 599 q 1025 628 1035 618 q 1014 631 1021 632 q 1004 624 1007 629 q 1017 596 1001 608 q 1015 569 1024 579 q 997 549 1006 560 q 981 549 989 549 q 967 557 974 550 q 965 585 969 571 q 965 615 960 600 q 974 625 968 621 q 986 633 981 629 q 993 643 992 638 q 988 656 994 649 l 921 656 l 914 650 q 915 643 911 646 q 921 638 918 640 q 937 623 932 635 q 944 600 942 611 q 945 572 947 589 q 926 549 943 556 q 910 549 918 546 q 897 558 903 551 q 885 571 890 564 q 875 583 879 578 q 874 597 872 589 q 877 612 876 604 q 876 625 878 619 q 864 633 874 631 q 856 628 857 633 q 856 618 854 622 q 852 607 856 608 q 844 607 849 606 q 833 610 839 608 q 824 611 828 613 q 817 603 821 607 q 817 592 814 599 q 823 584 818 586 q 831 579 828 582 q 854 576 846 586 q 868 554 863 565 q 883 542 874 546 q 900 533 892 538 q 915 522 908 528 q 922 504 922 515 q 938 488 929 496 q 960 486 947 481 q 983 504 975 492 q 997 531 992 517 q 1014 543 1007 532 q 1028 564 1021 554 q 1045 578 1036 574 q 1068 574 1054 583 q 1060 510 1074 543 q 1017 461 1046 478 q 975 438 1000 443 q 926 439 950 432 l 922 444 q 894 458 907 447 q 865 475 881 468 q 856 488 860 482 q 844 496 853 493 q 837 511 844 504 q 838 525 829 518 q 837 537 840 532 q 829 547 833 542 q 819 549 824 553 q 811 544 815 544 q 831 483 806 511 q 901 429 860 451 q 990 418 942 407 q 1064 328 1031 378 q 1124 264 1101 303 q 1165 186 1146 225 l 1165 174 q 1179 156 1163 156 q 1191 140 1193 150 q 1196 121 1189 131 q 1220 106 1208 115 q 1243 88 1232 97 q 1247 64 1242 75 q 1244 40 1253 53 q 1235 40 1238 38 q 1233 46 1233 42 q 1230 55 1232 50 q 1224 61 1228 60 q 1215 61 1219 64 q 1208 56 1211 58 q 1208 47 1207 51 q 1211 38 1210 42 q 1201 25 1208 29 q 1186 22 1194 21 q 1173 28 1175 22 q 1171 40 1171 33 q 1169 53 1171 47 q 1158 63 1168 60 q 1153 63 1156 63 q 1147 61 1150 64 q 1146 49 1140 54 q 1149 36 1151 43 q 1144 31 1146 33 q 1140 25 1142 28 q 1126 22 1133 18 q 1111 25 1118 25 q 1094 34 1103 29 q 1082 49 1085 39 q 1081 62 1086 56 q 1071 74 1076 68 q 1072 90 1075 83 q 1062 103 1068 97 q 1049 113 1056 108 q 1038 126 1042 118 q 1038 138 1040 135 q 1030 142 1035 140 q 1019 144 1025 143 q 1010 149 1014 146 q 1010 158 1007 154 q 1014 165 1013 161 q 1002 170 1008 175 q 990 171 996 165 q 990 179 988 176 q 997 184 993 182 q 1003 189 1001 186 q 1003 197 1006 192 q 993 197 997 194 q 985 193 989 200 q 975 197 981 196 q 967 200 969 197 q 969 210 961 210 q 981 218 978 210 q 981 224 981 221 q 979 229 982 226 q 966 226 972 229 q 954 229 960 222 q 959 240 951 238 q 969 247 967 243 q 963 253 967 253 q 953 253 958 254 q 944 251 949 251 q 936 257 940 251 q 934 269 931 263 q 944 278 938 275 q 943 287 946 286 q 935 287 940 288 q 925 287 931 286 q 917 294 919 288 q 922 303 915 303 q 932 310 929 303 q 934 316 935 313 q 931 321 933 319 q 922 321 925 322 q 915 318 919 319 q 904 318 908 311 q 900 332 900 325 q 907 337 903 335 q 914 342 911 339 q 913 353 917 351 q 904 353 910 354 q 892 352 899 353 q 881 358 885 351 q 891 368 883 367 q 903 376 899 369 q 890 385 900 390 q 869 381 881 379 q 861 391 860 388 q 868 397 863 394 q 880 401 874 399 q 886 411 886 404 q 879 418 883 418 q 872 416 876 418 q 863 413 868 414 q 854 415 858 411 q 853 425 850 421 q 859 433 856 429 q 864 440 863 436 q 860 449 865 444 q 827 454 840 442 q 799 472 814 467 q 754 453 779 457 q 706 449 729 449 l 721 432 q 753 438 738 435 q 786 444 769 442 q 824 417 808 435 q 847 376 840 399 q 913 263 883 321 q 979 151 942 204 l 1051 85 q 1055 62 1053 74 q 1063 39 1057 50 q 1095 11 1076 24 q 1138 4 1114 -1 q 1160 8 1147 10 q 1185 6 1172 7 q 1209 6 1197 4 q 1231 18 1221 7 q 1280 15 1254 8 q 1321 39 1306 21 q 1322 72 1326 57 q 1309 101 1318 88 q 1290 127 1300 114 q 1271 153 1279 140 q 1248 201 1260 176 q 1218 244 1236 225 q 1207 251 1211 246 q 1200 263 1203 257 q 1194 274 1197 268 q 1185 283 1190 279 q 1156 338 1172 311 q 1123 390 1139 364 q 1094 444 1107 417 q 1074 500 1081 471 q 1085 544 1085 519 q 1086 593 1085 569 q 1106 611 1092 610 q 1135 617 1121 613 q 1192 611 1164 613 q 1249 611 1219 610 q 1253 617 1256 614 q 1250 625 1251 621 q 1208 628 1231 631 q 1165 629 1185 626 q 1146 629 1157 629 q 1126 633 1136 629 q 1150 639 1138 642 q 1172 643 1163 636 q 1194 645 1183 646 q 1217 651 1206 644 l 1219 649 q 1328 651 1278 657 m 813 643 q 816 650 813 646 q 813 657 819 654 q 774 663 793 660 q 736 667 756 665 q 694 667 717 669 q 653 671 671 665 q 628 670 642 664 q 604 667 615 676 q 607 650 599 657 q 647 650 628 649 q 683 652 665 651 q 719 651 701 653 q 757 643 738 650 l 746 640 q 707 638 725 633 q 671 631 689 642 q 676 619 671 621 q 705 617 690 615 q 734 622 719 619 q 763 624 749 624 q 792 617 778 624 q 801 619 800 615 q 803 629 803 624 q 803 639 803 635 q 813 643 804 643 m 813 863 q 806 843 807 854 q 806 821 806 832 q 803 801 806 811 q 793 783 801 792 q 759 788 776 783 q 726 788 742 793 q 711 781 719 781 q 694 783 703 782 q 678 785 686 785 q 663 778 669 785 q 601 785 633 781 q 536 782 568 790 q 531 801 529 793 q 538 817 533 810 q 546 833 542 825 q 549 853 550 842 q 578 910 564 881 q 597 972 593 939 q 617 992 613 979 q 625 1017 622 1004 q 633 1044 628 1031 q 651 1065 638 1057 q 678 1109 667 1086 q 697 1156 689 1132 l 701 1156 q 727 1103 717 1131 q 744 1047 738 1075 q 756 1032 753 1040 q 762 1015 760 1024 q 767 999 764 1007 q 776 982 769 990 q 796 922 783 950 q 813 863 808 894 m 971 526 q 960 508 969 518 q 949 510 951 506 q 943 521 946 515 q 942 528 943 524 q 946 535 940 532 q 959 533 954 539 q 971 526 964 526 m 1301 49 q 1287 39 1294 43 q 1269 35 1279 35 q 1264 83 1269 57 q 1232 121 1258 108 q 1217 131 1221 124 q 1210 147 1213 139 q 1203 164 1207 156 q 1188 176 1199 172 q 1146 260 1167 217 q 1085 335 1125 303 q 1015 425 1050 383 q 1028 442 1015 439 q 1046 456 1040 446 q 1056 465 1051 465 q 1063 459 1060 464 q 1068 448 1067 454 q 1072 438 1069 442 q 1110 374 1090 404 q 1149 310 1129 343 q 1153 292 1149 299 q 1165 277 1158 285 q 1178 262 1172 269 q 1185 244 1183 254 q 1235 190 1218 222 q 1257 121 1251 157 q 1275 111 1261 108 q 1298 83 1286 99 q 1301 49 1310 68 m 461 433 q 442 408 453 421 q 422 383 432 396 q 406 357 413 371 q 400 326 400 343 q 362 231 389 276 q 303 146 335 186 q 291 138 297 140 q 282 128 285 135 q 281 115 285 121 q 274 104 278 110 q 271 93 271 99 q 281 82 271 88 q 274 60 281 71 q 257 43 268 49 q 248 49 249 42 q 239 58 247 57 l 226 58 q 240 92 233 75 q 246 124 246 108 q 248 135 249 128 q 250 147 247 142 q 288 224 268 186 q 326 301 308 261 q 347 341 340 319 q 360 383 353 363 q 378 422 367 404 q 411 451 389 440 q 461 433 439 449 z "},"B":{"ha":1339,"x_min":60,"x_max":1299,"o":"m 1297 411 q 1288 438 1294 426 q 1274 463 1281 450 q 1297 515 1296 482 q 1289 572 1299 549 q 1274 591 1278 581 q 1267 612 1271 601 q 1260 633 1264 622 q 1244 651 1256 643 q 1240 669 1246 663 q 1232 683 1235 675 q 1164 739 1194 708 q 1096 789 1133 769 q 1124 808 1108 803 q 1153 824 1139 813 q 1224 940 1201 872 q 1221 1078 1246 1008 q 1172 1191 1214 1140 q 1078 1272 1129 1242 q 1012 1299 1046 1289 q 946 1322 978 1308 q 769 1344 857 1338 q 586 1349 682 1351 l 585 1347 q 446 1335 514 1344 q 315 1301 378 1326 q 265 1272 288 1290 q 224 1231 243 1253 q 190 1183 206 1208 q 157 1136 174 1158 q 149 1104 154 1119 q 140 1074 144 1089 q 134 1044 136 1060 q 135 1010 132 1028 q 117 943 122 978 q 110 872 111 908 q 113 800 110 836 q 118 731 115 764 q 125 672 129 703 q 121 608 121 640 q 133 521 135 564 q 135 432 132 478 q 119 423 128 425 q 103 420 111 421 q 86 417 94 419 q 71 407 78 414 q 65 380 60 390 q 83 361 71 369 q 108 344 94 353 q 128 324 122 336 q 132 267 133 296 q 133 215 131 239 q 136 181 143 194 q 116 154 129 167 q 88 129 103 142 q 69 101 74 117 q 92 84 82 94 q 118 72 101 74 q 157 68 138 68 q 198 69 178 68 q 238 71 218 71 q 278 65 258 71 q 276 7 281 38 q 265 -51 272 -24 l 276 -62 q 288 -55 286 -61 q 290 -42 290 -49 q 290 -27 290 -35 q 293 -14 289 -19 q 297 7 297 -4 q 297 29 297 18 q 299 50 297 40 q 311 67 301 60 q 318 47 317 58 q 319 24 319 36 q 319 1 319 13 q 322 -19 319 -10 q 343 -24 328 -33 l 335 56 l 344 65 q 406 68 372 68 q 467 75 439 68 q 504 90 485 89 q 543 88 524 92 q 582 78 563 83 q 621 75 601 72 q 688 63 653 68 q 756 63 722 57 q 818 58 788 60 q 881 61 849 56 q 924 71 901 68 q 970 76 947 74 q 1015 83 993 79 q 1058 99 1038 88 q 1160 147 1111 115 q 1240 228 1208 179 q 1279 315 1268 268 q 1297 411 1290 363 m 1061 1006 q 1042 983 1050 994 q 1019 968 1035 971 q 978 976 1000 982 q 936 967 956 969 q 915 951 922 961 q 899 929 907 940 q 899 882 894 907 q 871 887 883 881 q 846 900 858 893 q 820 913 833 907 q 792 918 807 919 q 760 919 776 921 q 728 915 743 917 q 698 918 713 914 q 671 938 683 922 q 603 944 639 943 q 539 931 568 946 q 531 933 536 933 q 524 939 526 933 q 519 956 526 949 q 521 972 513 963 q 522 1002 525 988 q 513 1031 518 1017 q 506 1058 508 1044 q 511 1086 504 1072 q 497 1131 510 1110 q 461 1160 485 1153 q 457 1182 450 1171 q 498 1209 475 1200 q 546 1222 521 1218 q 597 1228 571 1226 q 649 1233 624 1229 q 766 1227 713 1231 q 881 1213 819 1224 q 933 1197 910 1210 q 978 1166 957 1185 q 1017 1126 999 1147 q 1056 1086 1036 1106 q 1061 1006 1075 1046 m 1274 553 q 1274 517 1274 535 q 1261 485 1274 500 q 1247 495 1253 488 q 1231 499 1242 503 q 1222 483 1228 488 q 1209 475 1217 478 q 1194 469 1201 472 q 1183 457 1188 465 q 1169 457 1175 454 q 1156 464 1163 460 q 1144 471 1150 468 q 1129 469 1138 474 q 1115 477 1122 472 q 1101 475 1108 482 q 1096 460 1099 468 q 1082 457 1093 453 q 1080 478 1078 467 q 1067 496 1082 490 q 1057 496 1060 493 q 1053 503 1054 499 q 1051 511 1051 507 q 1046 518 1050 515 q 1042 542 1046 529 q 1047 564 1038 554 q 1044 569 1044 567 q 1042 574 1043 571 q 1035 583 1043 581 q 1024 588 1028 585 q 1006 597 1015 592 q 990 608 997 601 q 930 613 961 604 q 871 635 899 622 q 870 647 874 642 q 860 654 867 651 q 846 654 851 657 q 835 648 840 651 q 825 642 831 644 q 813 642 819 639 q 796 655 801 649 q 788 672 790 661 q 740 649 754 676 q 669 615 707 625 q 588 617 631 604 q 540 636 564 624 q 504 672 515 649 q 506 683 501 678 q 514 694 510 689 q 518 703 518 699 q 508 713 518 707 q 489 710 497 717 q 481 693 481 703 q 488 651 475 668 q 519 618 501 633 q 539 608 528 611 q 560 600 550 604 q 577 589 569 596 q 588 568 585 582 q 594 494 594 533 q 578 424 594 457 q 559 417 567 415 q 544 424 551 418 q 528 438 536 431 q 511 450 521 446 q 479 463 493 451 q 446 471 465 475 q 437 461 440 467 q 438 450 433 456 q 476 438 454 439 q 514 422 497 436 q 540 393 528 407 q 557 360 551 379 q 547 345 551 353 q 544 331 542 338 q 553 322 551 328 q 556 310 556 315 q 560 299 557 304 q 571 293 563 294 q 576 243 579 267 q 564 198 574 219 q 540 158 554 176 q 510 124 526 139 q 481 111 493 121 q 453 96 468 101 q 403 92 426 92 q 350 89 379 92 q 338 96 342 88 q 333 113 335 104 q 326 124 331 121 q 313 115 322 128 l 311 94 q 301 99 303 93 q 297 113 299 106 q 292 126 296 121 q 279 128 289 132 q 274 112 272 121 q 274 96 276 103 q 196 94 236 100 q 115 96 156 88 q 107 106 110 99 q 108 121 104 114 q 122 135 113 132 q 141 142 132 139 q 156 149 150 144 q 160 168 163 154 q 167 174 164 171 q 174 179 171 176 q 170 194 176 189 q 157 203 164 200 q 156 239 160 221 q 151 275 153 257 q 151 309 149 293 q 167 340 154 325 q 161 350 165 347 q 151 353 157 353 q 140 353 146 353 q 129 357 133 354 q 110 368 118 360 q 94 383 103 376 q 99 397 93 392 q 115 403 106 403 l 124 403 q 116 394 124 396 q 111 383 108 392 q 125 376 118 376 q 139 378 132 375 q 153 385 146 382 q 167 390 160 389 q 171 400 172 396 q 168 411 169 404 q 182 417 174 414 q 188 432 190 421 q 163 442 169 433 q 156 464 157 451 q 155 491 154 476 q 153 518 156 506 q 151 562 154 540 q 144 605 147 583 q 140 648 142 626 q 143 693 139 669 q 131 860 132 779 q 153 1017 129 942 q 163 1072 151 1047 q 174 1125 174 1096 q 199 1156 188 1139 q 221 1189 210 1172 q 244 1222 232 1206 q 274 1250 257 1238 q 304 1272 288 1264 q 339 1285 321 1279 q 374 1295 357 1290 q 408 1308 392 1300 q 717 1326 564 1329 q 1014 1275 869 1324 q 1084 1239 1051 1263 q 1146 1188 1117 1215 q 1192 1090 1179 1143 q 1208 983 1206 1036 q 1183 896 1203 939 q 1117 833 1163 853 q 1096 819 1107 822 q 1072 815 1085 815 q 1047 815 1060 814 q 1022 814 1035 815 q 992 826 1006 818 q 963 843 978 835 q 956 860 963 854 q 942 871 950 867 q 926 881 933 875 q 919 899 919 888 q 926 929 915 918 q 933 929 931 926 q 938 936 936 932 q 943 944 940 940 q 951 947 946 947 q 981 952 965 950 q 1007 938 997 954 q 1030 944 1019 936 q 1049 960 1040 951 q 1069 974 1058 969 q 1092 971 1079 979 q 1105 974 1099 972 q 1115 982 1111 975 q 1111 987 1117 988 q 1111 992 1106 986 q 1105 997 1108 996 q 1097 997 1101 997 q 1090 999 1093 997 q 1085 1004 1086 1000 q 1092 1011 1086 1010 q 1105 1014 1099 1013 q 1115 1018 1111 1015 q 1119 1031 1119 1021 q 1108 1038 1115 1040 q 1096 1039 1101 1035 q 1092 1056 1088 1050 q 1103 1067 1097 1063 q 1113 1078 1110 1072 q 1107 1092 1117 1083 q 1095 1088 1100 1094 q 1082 1085 1090 1082 q 1081 1097 1078 1090 q 1086 1110 1083 1104 q 1088 1119 1089 1115 q 1075 1125 1088 1124 q 1067 1119 1072 1119 q 1057 1119 1063 1119 q 1056 1129 1054 1124 q 1061 1139 1057 1135 q 1065 1143 1065 1139 q 1068 1150 1065 1147 q 1058 1158 1065 1157 q 1047 1154 1051 1160 q 1032 1150 1039 1143 q 1034 1162 1029 1157 q 1033 1174 1039 1167 q 1025 1177 1029 1178 q 1017 1175 1021 1176 q 1009 1174 1013 1174 q 1003 1182 1006 1175 q 1006 1193 1001 1189 q 1008 1204 1011 1197 q 997 1209 1001 1214 q 986 1201 993 1204 q 983 1199 985 1199 q 979 1199 981 1200 q 974 1213 972 1204 q 965 1224 976 1221 q 943 1221 956 1214 q 938 1234 940 1226 q 926 1240 935 1242 q 916 1231 921 1235 q 904 1231 911 1228 q 896 1236 901 1236 q 886 1236 892 1236 q 885 1245 883 1242 q 881 1253 888 1249 q 871 1251 875 1254 q 863 1246 867 1249 q 856 1242 860 1243 q 846 1243 851 1240 q 844 1255 843 1250 q 836 1263 844 1260 q 822 1251 826 1260 q 804 1250 817 1243 q 801 1261 801 1256 q 793 1271 801 1268 q 786 1267 788 1271 q 783 1260 785 1264 q 780 1253 782 1256 q 772 1253 778 1251 q 760 1267 767 1267 q 746 1263 753 1267 q 731 1256 739 1258 q 715 1261 724 1253 q 708 1263 713 1264 q 701 1259 704 1261 q 694 1258 697 1257 q 692 1265 692 1258 q 679 1269 686 1272 q 665 1263 672 1267 q 652 1259 658 1260 q 642 1271 646 1258 q 633 1267 636 1271 q 626 1259 629 1263 q 620 1254 624 1256 q 611 1256 617 1253 q 609 1264 611 1260 q 601 1269 607 1268 q 592 1265 596 1269 q 586 1256 589 1260 q 581 1251 583 1251 q 574 1260 578 1250 q 573 1266 576 1264 q 567 1271 569 1268 q 554 1265 557 1272 q 549 1251 551 1257 q 543 1242 551 1244 q 534 1248 539 1242 q 525 1259 529 1254 q 515 1264 521 1264 q 506 1253 511 1264 q 508 1238 508 1244 q 497 1231 501 1235 q 485 1232 492 1228 q 481 1238 483 1236 q 475 1243 478 1240 q 465 1241 467 1247 q 460 1232 463 1235 q 461 1222 460 1226 q 461 1211 463 1217 l 457 1214 q 450 1210 453 1210 q 445 1214 447 1211 q 440 1220 443 1217 q 433 1224 438 1224 q 423 1210 421 1218 q 428 1194 425 1203 q 432 1179 432 1186 q 417 1169 432 1172 q 412 1161 413 1167 q 414 1153 411 1156 q 435 1137 424 1140 q 461 1131 447 1133 q 450 1124 458 1124 q 438 1115 442 1124 q 442 1107 438 1110 q 450 1101 446 1104 q 469 1105 460 1099 q 485 1101 478 1111 q 475 1090 485 1093 q 456 1085 465 1088 q 444 1079 447 1083 q 453 1063 440 1075 l 471 1061 l 471 1038 q 458 1037 465 1038 q 447 1028 450 1036 q 455 1015 447 1017 q 469 1010 463 1013 q 483 1013 476 1011 q 496 1014 489 1015 q 491 998 503 1000 q 472 993 479 996 q 446 986 454 996 q 449 976 443 979 q 457 971 454 974 l 494 968 l 494 967 q 483 965 488 964 q 471 960 478 967 q 462 949 465 954 q 461 935 458 943 q 474 925 465 928 q 492 919 483 922 q 505 912 500 917 q 506 896 510 907 q 519 888 510 885 q 535 890 528 890 q 561 913 544 907 q 596 920 578 919 q 633 918 614 921 q 668 911 651 915 q 702 888 683 900 q 743 890 721 876 q 794 893 769 903 q 843 875 819 883 q 847 865 840 868 q 856 856 853 861 l 914 856 q 977 803 942 825 q 1053 788 1013 781 q 1088 765 1069 775 q 1125 744 1107 756 q 1160 720 1143 733 q 1189 689 1176 707 q 1208 676 1197 683 q 1222 658 1218 669 q 1224 642 1219 649 q 1233 630 1228 636 q 1242 616 1239 624 q 1242 599 1246 608 q 1260 578 1254 589 q 1274 553 1267 568 m 1053 463 q 1043 451 1053 453 q 1028 442 1033 449 q 1000 405 1013 424 q 976 367 988 386 q 918 342 949 349 q 855 334 888 335 q 790 336 822 333 q 724 342 757 339 q 655 351 690 344 q 592 379 619 357 q 614 465 604 422 q 611 554 624 507 l 604 560 q 610 571 611 563 q 614 583 610 579 q 656 585 636 581 q 694 597 675 589 q 730 617 713 606 q 765 636 747 628 q 803 623 783 629 q 843 622 822 617 q 904 594 869 599 q 969 583 939 589 q 990 565 975 567 q 1017 558 1004 564 q 1022 533 1021 546 q 1026 507 1024 519 q 1035 483 1029 494 q 1053 463 1040 472 m 1194 404 q 1175 360 1189 381 q 1144 322 1161 340 q 1106 289 1126 304 q 1067 260 1086 274 q 1040 248 1054 251 q 1010 242 1025 244 q 983 236 996 240 q 957 221 969 232 q 933 215 943 219 q 908 207 922 210 q 860 198 883 204 q 808 196 836 192 l 803 189 q 796 195 801 196 q 788 197 790 194 q 718 204 754 203 q 653 225 682 206 q 638 222 644 221 q 626 226 632 224 q 613 232 619 229 q 600 235 607 235 q 595 284 600 261 q 585 331 590 307 l 586 347 q 643 326 613 332 q 706 318 674 321 q 769 314 738 315 q 831 308 801 313 q 860 315 846 311 q 889 307 875 318 q 928 326 908 319 q 969 340 949 332 q 986 340 978 342 q 999 350 994 338 q 1003 367 994 358 q 1028 383 1018 367 q 1024 404 1017 393 q 1033 421 1031 410 q 1042 424 1036 418 q 1056 432 1049 431 q 1076 427 1067 425 q 1096 433 1086 429 q 1115 439 1106 436 q 1136 438 1125 442 q 1167 424 1154 431 q 1194 404 1181 417 m 1269 424 q 1270 347 1278 385 q 1244 274 1263 308 q 1200 210 1226 239 q 1143 160 1174 181 q 1017 106 1085 121 q 876 85 949 92 q 818 81 849 82 q 758 86 788 81 q 708 84 733 82 q 656 90 682 86 q 604 99 631 94 q 553 104 578 103 l 539 111 q 569 160 554 135 q 594 208 583 185 q 625 192 608 196 q 659 185 642 188 q 695 183 676 183 q 731 176 714 182 l 788 169 l 793 176 l 792 178 l 797 183 q 794 179 797 181 q 793 174 790 178 q 828 169 808 168 q 863 172 847 169 q 950 195 908 178 q 1036 221 992 213 q 1107 260 1074 233 q 1172 314 1140 288 q 1183 316 1179 311 q 1189 324 1186 321 l 1185 328 q 1196 329 1194 325 q 1197 340 1197 333 q 1195 353 1196 346 q 1201 364 1194 360 q 1217 388 1217 371 q 1221 421 1218 404 q 1218 433 1211 432 q 1232 440 1225 433 q 1269 424 1258 440 m 335 521 q 321 528 329 528 q 309 458 314 492 q 301 389 304 425 q 311 381 304 379 q 321 415 318 397 q 325 450 324 432 q 328 486 326 468 q 335 521 329 504 m 286 481 q 283 499 283 489 q 281 520 282 510 q 275 538 279 531 q 260 549 271 546 q 255 540 251 546 q 258 528 258 533 q 272 453 265 492 q 272 375 278 415 q 276 369 272 369 q 283 367 281 369 q 291 422 294 393 q 286 481 288 451 m 538 215 q 545 250 542 232 q 535 281 549 268 q 523 278 525 282 q 521 267 521 274 q 522 254 521 261 q 519 242 522 247 q 503 303 508 269 q 479 364 497 336 q 445 367 464 365 q 411 367 426 369 q 394 365 403 364 q 376 368 385 367 q 362 368 368 369 q 354 360 356 367 q 363 346 354 349 q 382 342 372 343 q 405 312 393 328 q 407 274 417 296 l 319 274 q 313 278 314 275 q 310 286 311 282 q 308 293 310 290 q 301 297 307 296 l 288 283 q 288 242 289 265 q 306 206 288 218 q 318 217 314 208 q 325 232 322 225 q 338 249 329 246 q 358 253 347 253 q 381 251 369 253 q 401 251 393 249 q 410 239 410 246 q 409 224 411 232 q 405 209 407 217 q 404 193 403 201 q 398 175 404 181 q 383 166 392 169 q 365 160 374 163 q 350 149 356 157 q 353 138 350 139 q 400 131 375 135 q 451 128 425 126 q 486 149 475 128 q 504 188 497 169 q 508 199 504 196 q 517 204 511 203 q 528 208 522 206 q 538 215 535 210 m 231 322 l 213 346 q 212 356 210 350 q 207 365 214 363 q 192 365 199 372 q 194 343 189 354 q 206 322 199 332 q 219 313 211 315 q 231 322 228 311 m 240 174 q 233 180 236 181 q 226 176 229 179 q 219 169 222 174 q 213 163 217 164 q 204 147 208 156 q 207 131 200 138 q 222 133 217 128 q 229 144 226 138 q 234 160 232 151 q 240 174 236 168 m 178 140 q 164 149 174 146 q 140 135 153 142 q 125 114 128 129 q 133 107 129 106 q 142 113 138 108 q 151 120 146 117 q 160 121 156 124 q 172 128 167 124 q 178 140 178 133 m 463 338 l 421 336 l 418 342 q 440 345 429 349 q 463 342 450 342 l 463 338 m 475 307 q 451 303 464 307 q 431 308 438 300 q 453 313 442 311 q 475 310 464 315 l 475 307 m 485 269 l 481 269 q 476 276 482 274 q 472 269 474 272 q 463 264 469 267 q 447 267 456 267 q 433 274 439 267 q 447 277 440 279 q 461 281 454 275 q 469 279 464 278 q 478 281 474 281 q 484 278 482 281 q 485 269 486 276 m 489 232 q 460 228 476 229 q 433 235 444 226 l 433 240 q 463 241 449 238 q 489 242 476 244 l 489 232 m 482 201 q 479 194 483 196 q 471 193 475 192 q 450 194 460 199 q 431 197 440 189 q 451 205 438 210 q 481 203 465 200 l 482 201 m 465 168 q 459 158 464 160 q 448 156 454 156 q 435 157 442 157 q 424 153 429 157 l 414 154 q 435 170 418 171 q 465 168 453 169 z "},"C":{"ha":1483,"x_min":53,"x_max":1454,"o":"m 1451 714 q 1401 760 1428 740 q 1348 800 1375 781 q 1293 839 1321 819 q 1240 883 1265 858 q 1257 916 1244 901 q 1279 946 1269 931 q 1290 981 1282 965 q 1294 1019 1297 997 q 1288 1028 1293 1025 q 1286 1038 1283 1031 q 1299 1062 1293 1049 q 1313 1083 1304 1075 l 1321 1160 l 1313 1169 q 1272 1154 1292 1164 q 1232 1138 1251 1144 l 1221 1143 q 1188 1180 1210 1168 q 1146 1203 1165 1192 q 1122 1221 1126 1208 q 1122 1249 1118 1233 q 1129 1282 1125 1265 q 1131 1311 1133 1299 q 1106 1321 1124 1324 l 1036 1272 q 1025 1271 1029 1267 q 1015 1281 1021 1275 q 928 1349 976 1325 q 884 1360 904 1351 q 840 1369 864 1368 q 806 1387 825 1381 q 771 1386 788 1393 q 700 1379 739 1378 q 626 1369 661 1381 q 603 1374 615 1374 q 580 1372 592 1374 q 556 1368 568 1369 q 533 1369 544 1367 l 529 1364 q 401 1317 460 1356 q 288 1233 343 1278 q 189 1123 235 1182 q 111 999 143 1064 q 66 860 79 933 q 65 710 53 788 q 75 639 67 674 q 96 570 83 604 q 124 503 108 536 q 153 439 139 471 q 282 284 210 351 q 431 151 354 217 q 482 118 458 139 q 538 92 506 97 q 658 35 596 57 q 790 6 721 13 q 814 3 801 1 q 838 5 826 4 q 861 4 850 6 q 882 -6 872 3 q 1031 -1 961 -17 q 1168 49 1100 15 q 1194 53 1182 47 q 1217 64 1206 60 q 1294 125 1253 94 q 1368 194 1336 156 q 1373 210 1375 201 q 1382 225 1371 219 q 1400 264 1397 242 q 1404 307 1403 286 q 1390 353 1400 331 q 1360 388 1381 375 q 1308 398 1333 400 q 1261 385 1283 396 q 1219 356 1239 374 q 1181 317 1199 338 q 1129 274 1158 292 q 1076 232 1100 256 q 1063 228 1068 233 q 1051 219 1057 224 q 1039 211 1046 214 q 1024 215 1032 208 q 967 200 996 204 q 910 186 938 196 q 879 183 896 186 q 847 177 863 179 q 816 178 831 175 q 790 192 801 181 q 759 191 774 186 q 730 203 744 196 q 701 215 715 210 q 674 218 688 221 q 634 234 654 226 q 594 257 614 242 q 589 268 592 263 q 589 279 586 274 q 603 286 597 279 q 617 297 610 293 q 621 311 617 306 q 631 322 625 317 q 642 331 636 326 q 650 343 647 336 q 663 374 663 358 q 658 404 663 389 q 644 434 653 419 q 631 463 636 449 q 610 488 624 478 q 590 514 596 497 q 600 551 599 532 q 601 588 601 569 q 598 626 600 607 q 597 663 596 644 q 568 759 592 715 q 510 839 544 803 q 483 860 497 853 q 453 873 468 867 q 424 887 438 879 q 400 911 410 894 q 478 1026 419 982 q 526 1056 501 1040 q 579 1068 550 1072 q 632 1031 603 1044 q 690 1006 661 1018 q 696 983 693 994 q 706 961 699 971 q 763 912 733 935 q 829 886 792 889 q 846 867 842 879 q 857 844 850 856 q 873 832 871 840 q 874 814 875 824 q 873 794 872 804 q 885 776 874 783 q 908 758 900 772 q 929 740 915 743 q 949 721 938 726 q 972 714 960 715 q 999 714 985 713 q 1025 715 1013 715 q 1044 697 1032 700 q 1068 688 1057 694 q 1092 690 1079 690 q 1117 690 1104 689 q 1142 694 1131 690 q 1163 707 1154 697 q 1201 774 1197 732 q 1196 851 1204 815 q 1235 815 1215 836 q 1275 778 1254 793 q 1292 761 1285 771 q 1308 741 1300 751 q 1324 722 1315 731 q 1344 710 1332 714 q 1351 717 1347 714 q 1353 725 1356 719 q 1219 863 1288 796 l 1221 864 q 1288 817 1257 844 q 1354 769 1318 790 q 1399 733 1379 754 q 1446 703 1418 713 q 1451 714 1454 706 m 1106 1281 l 1094 1285 q 1099 1290 1097 1286 q 1106 1292 1101 1293 l 1106 1281 m 907 1014 l 903 1019 l 907 1014 m 1181 815 q 1178 763 1188 788 q 1151 722 1168 738 q 1136 715 1143 719 q 1118 714 1129 711 q 1114 721 1117 718 q 1108 726 1111 724 q 1095 721 1101 718 q 1083 727 1089 724 q 1072 731 1078 731 q 1061 719 1067 732 q 1049 726 1050 719 q 1054 751 1046 744 q 1068 772 1063 757 l 1071 817 q 1123 819 1097 814 q 1172 833 1149 824 l 1181 815 m 1378 258 q 1367 240 1378 246 q 1348 231 1357 235 q 1335 220 1339 226 q 1344 200 1332 214 q 1319 174 1332 189 q 1292 147 1306 160 q 1263 125 1278 135 q 1229 114 1247 115 q 1214 90 1222 101 q 1192 71 1206 78 q 1169 73 1179 75 q 1148 65 1158 71 q 1127 52 1138 58 q 1107 42 1117 46 q 1017 19 1063 32 q 928 22 972 7 q 897 16 913 11 q 867 26 882 21 q 590 86 718 24 q 561 107 576 99 q 529 122 546 115 q 497 138 513 129 q 468 160 482 146 q 438 178 450 164 q 414 207 425 193 q 326 274 365 231 q 246 356 286 317 q 185 432 210 389 q 140 518 161 475 q 129 548 139 535 q 117 576 119 561 q 92 667 97 621 q 81 763 86 714 q 83 806 78 786 q 85 847 88 825 q 117 958 96 904 q 169 1063 139 1013 q 263 1184 210 1128 q 378 1280 315 1240 q 510 1339 440 1319 q 656 1349 581 1358 q 694 1355 675 1360 q 733 1357 714 1350 q 744 1363 738 1367 q 758 1357 751 1358 q 766 1353 763 1347 q 774 1363 769 1360 q 785 1350 779 1349 q 798 1356 792 1351 q 810 1363 804 1361 q 821 1351 817 1364 q 840 1346 829 1340 q 863 1346 851 1351 q 934 1319 899 1336 q 997 1271 969 1303 q 1015 1246 1004 1260 q 1042 1239 1025 1232 q 1054 1260 1046 1250 q 1075 1274 1063 1271 q 1076 1260 1079 1267 q 1070 1247 1074 1254 q 1067 1233 1067 1240 q 1076 1224 1067 1228 q 1092 1238 1088 1229 q 1101 1257 1096 1247 q 1099 1240 1103 1247 q 1092 1226 1096 1232 q 1086 1213 1088 1219 q 1090 1197 1085 1206 q 1128 1186 1108 1193 q 1165 1169 1147 1179 q 1195 1144 1182 1158 q 1214 1107 1208 1129 q 1227 1095 1219 1100 q 1242 1100 1235 1090 q 1263 1128 1244 1122 q 1294 1142 1282 1133 q 1294 1102 1301 1119 q 1276 1068 1286 1085 q 1262 1035 1267 1051 q 1271 997 1257 1018 q 1250 946 1264 969 q 1217 903 1236 922 q 1193 913 1201 901 q 1178 938 1185 925 q 1176 958 1174 949 q 1167 974 1178 968 q 1154 957 1164 964 q 1151 938 1144 950 q 1113 917 1136 919 q 1071 922 1089 914 q 1056 933 1064 926 q 1051 950 1049 939 q 1077 981 1064 965 q 1113 993 1090 996 q 1119 1001 1117 996 q 1118 1013 1122 1007 q 1098 1031 1111 1025 q 1082 1053 1085 1038 q 1074 1059 1079 1056 q 1065 1057 1069 1063 q 1058 1051 1061 1054 q 1051 1044 1054 1049 q 1058 1014 1058 1031 q 1051 985 1058 999 q 1042 972 1047 974 q 1032 974 1038 971 q 1020 980 1026 976 q 1008 982 1014 983 q 991 1015 997 997 q 993 1051 985 1032 q 1010 1063 1001 1057 q 1024 1081 1019 1069 q 1021 1093 1022 1088 q 1013 1103 1019 1099 q 1001 1103 1004 1107 q 994 1094 997 1100 q 988 1085 992 1089 q 976 1083 985 1081 q 970 1100 971 1090 q 958 1110 969 1110 q 948 1103 953 1107 q 942 1092 943 1099 q 950 1070 942 1079 q 968 1056 958 1061 q 969 1007 963 1032 q 989 963 975 982 q 1015 942 1003 954 q 1039 917 1026 929 q 1065 896 1051 904 q 1099 888 1079 888 q 1117 892 1108 888 q 1135 899 1126 896 q 1153 904 1144 903 q 1171 901 1163 906 q 1184 896 1175 894 q 1192 886 1193 897 q 1138 849 1169 858 q 1072 844 1106 839 q 1020 863 1046 849 q 972 897 994 876 q 935 942 950 917 q 914 997 919 968 q 915 1024 914 1011 q 926 1047 915 1038 q 913 1060 922 1058 q 894 1064 904 1061 q 869 1092 885 1085 q 836 1103 853 1099 q 805 1115 819 1107 q 783 1146 790 1124 l 754 1174 q 746 1155 743 1164 q 756 1137 749 1146 q 769 1119 764 1128 q 769 1099 775 1110 q 785 1084 778 1086 q 802 1083 793 1082 q 820 1085 811 1085 q 839 1081 829 1086 q 889 1026 869 1061 q 900 954 889 992 q 916 931 914 944 q 928 906 918 917 q 979 857 949 874 q 1039 824 1010 840 q 1047 806 1046 817 q 1046 785 1049 796 q 1040 769 1043 778 q 1029 757 1036 761 l 1032 756 q 1010 740 1022 749 q 986 742 999 732 q 981 740 983 739 q 976 740 979 740 q 971 753 976 747 q 960 763 965 760 q 950 760 956 763 q 939 761 944 757 q 941 776 942 765 q 929 790 940 788 q 900 790 915 786 q 897 802 893 797 q 905 812 900 807 q 913 822 910 817 q 907 836 915 828 q 881 856 896 849 q 867 883 867 863 q 857 899 864 893 q 843 911 850 906 q 774 933 806 914 q 719 985 743 953 q 719 996 717 990 q 723 1006 721 1001 q 726 1014 725 1010 q 721 1024 726 1018 q 699 1034 714 1038 q 674 1036 685 1031 q 610 1072 639 1053 q 565 1132 581 1090 q 574 1144 568 1139 q 571 1156 579 1149 q 561 1163 565 1160 q 550 1165 557 1167 q 538 1160 543 1157 q 526 1168 532 1163 q 513 1180 519 1174 q 500 1185 507 1186 l 488 1171 q 520 1133 511 1160 q 532 1083 529 1107 q 515 1078 526 1075 q 493 1126 504 1100 q 454 1160 482 1153 q 449 1148 447 1153 q 455 1138 450 1143 q 465 1127 460 1132 q 472 1115 471 1122 q 488 1067 483 1090 q 463 1112 483 1093 q 421 1142 442 1131 l 411 1128 q 428 1108 418 1118 q 447 1088 439 1099 q 460 1066 456 1078 q 460 1040 464 1054 q 426 1083 449 1067 q 382 1115 404 1100 q 368 1111 376 1119 q 390 1082 372 1090 q 418 1060 407 1074 q 426 1047 421 1053 q 431 1032 431 1040 q 406 1050 418 1040 q 381 1066 394 1060 q 355 1074 368 1072 q 328 1067 342 1075 q 331 1052 325 1057 q 343 1044 336 1047 q 382 1038 363 1047 q 411 1008 401 1028 l 413 997 q 369 1018 390 1008 q 319 1025 347 1028 q 313 1017 317 1022 q 313 1008 308 1013 q 336 999 322 1001 q 363 994 350 997 q 385 984 375 992 q 397 958 394 976 q 334 972 369 968 q 274 957 299 976 q 279 942 272 949 q 306 945 292 943 q 332 947 319 947 q 358 943 346 947 q 381 929 371 939 q 374 906 382 914 q 347 910 360 907 q 319 913 333 913 q 295 909 307 913 q 272 894 283 906 q 283 880 271 879 q 303 876 296 881 q 337 885 318 889 q 371 879 356 882 q 321 878 346 886 q 274 856 296 869 q 242 812 257 835 q 239 761 226 789 q 249 747 246 754 q 263 738 253 740 q 269 751 274 742 q 264 768 265 761 q 259 785 258 775 q 263 804 260 796 q 291 838 272 828 q 331 853 310 849 q 401 841 367 850 q 458 800 435 832 q 517 696 494 751 q 539 574 540 640 q 524 535 535 553 q 511 494 513 518 q 531 474 518 482 q 556 458 544 467 q 576 439 568 450 q 581 408 583 428 q 603 390 594 401 q 619 364 613 379 l 617 340 q 599 342 607 338 q 582 340 592 346 q 579 324 575 331 q 590 310 583 317 q 580 304 586 306 q 567 302 574 303 q 557 298 561 301 q 553 286 553 294 q 507 298 528 283 q 463 321 486 313 q 442 344 450 331 q 428 370 435 357 q 414 394 421 383 q 394 413 407 406 q 392 427 390 418 q 394 443 393 436 q 392 456 396 450 q 376 461 389 461 q 366 431 360 446 q 374 400 372 417 q 353 388 360 397 q 367 371 356 376 l 399 372 q 393 367 397 368 q 385 364 389 365 q 377 360 381 363 q 374 350 374 358 q 382 341 378 343 q 392 340 386 339 q 402 341 397 340 q 413 340 407 342 q 407 328 411 333 q 411 317 403 322 q 422 311 415 307 q 436 315 429 315 q 492 278 464 297 q 553 257 519 260 q 540 251 549 250 q 525 243 531 251 q 532 233 526 236 q 543 226 538 229 q 555 227 549 224 q 567 235 561 231 q 576 239 572 239 q 585 231 582 239 q 577 233 581 229 q 571 232 574 238 q 566 222 568 228 q 567 211 564 217 q 581 202 574 200 q 599 204 589 204 q 617 218 607 214 q 614 202 615 211 q 621 188 613 193 q 631 190 626 186 q 639 197 635 193 q 647 202 643 200 q 658 200 651 204 q 656 185 658 193 q 663 172 654 178 q 673 178 668 172 q 683 188 678 183 q 692 195 688 193 q 706 189 697 197 q 717 174 715 186 q 718 150 718 161 q 721 136 718 140 q 739 146 724 132 q 741 163 738 154 q 751 171 744 171 q 753 161 754 167 q 753 150 753 156 q 755 140 753 144 q 764 133 757 135 q 776 147 775 136 q 779 168 776 158 q 803 161 792 171 q 815 136 804 149 q 827 142 825 133 q 833 156 829 151 q 858 158 844 157 q 878 146 871 158 q 881 131 883 139 q 878 116 879 124 q 878 103 876 108 q 890 97 879 99 q 902 124 903 110 q 904 156 901 139 q 915 153 908 154 q 926 151 921 153 q 934 146 931 150 q 938 133 938 142 q 937 110 942 122 q 943 89 932 97 q 953 94 950 89 q 960 104 957 100 q 960 138 965 122 q 951 171 956 154 q 989 133 985 171 q 986 107 992 121 q 993 82 981 93 q 1012 117 1013 96 q 1008 160 1011 139 l 1006 172 q 1023 161 1019 175 q 1033 139 1026 147 q 1036 124 1038 133 q 1033 107 1035 115 q 1034 94 1032 99 q 1049 93 1036 90 q 1058 117 1058 104 q 1053 142 1057 129 q 1049 166 1050 154 q 1057 188 1049 178 q 1078 159 1072 176 q 1081 124 1083 142 q 1099 121 1089 108 q 1106 147 1111 132 q 1099 175 1101 161 l 1081 200 q 1095 205 1088 199 q 1111 204 1103 211 q 1124 190 1121 197 q 1132 171 1126 182 q 1129 159 1131 164 q 1128 146 1128 154 q 1138 140 1133 143 q 1147 144 1143 138 q 1156 174 1158 158 q 1146 203 1153 189 l 1122 229 q 1168 186 1156 221 q 1169 174 1165 178 q 1178 164 1174 169 q 1190 166 1186 161 q 1196 176 1193 171 q 1178 220 1189 200 q 1144 251 1167 240 q 1179 235 1164 249 q 1200 200 1194 222 q 1202 188 1197 193 q 1211 179 1207 182 q 1225 194 1225 179 q 1207 238 1224 221 q 1176 274 1190 254 q 1185 273 1181 275 q 1192 278 1189 271 q 1238 246 1222 274 q 1240 233 1242 239 q 1236 220 1238 226 q 1237 210 1235 214 q 1250 204 1239 206 q 1265 225 1264 210 q 1261 251 1265 240 q 1242 281 1256 271 q 1214 300 1228 290 q 1267 257 1249 290 q 1270 244 1264 249 q 1279 238 1276 240 q 1288 240 1283 238 q 1293 247 1292 242 q 1281 281 1293 268 q 1257 307 1268 293 q 1245 313 1250 307 q 1238 325 1240 319 q 1260 319 1250 328 q 1281 306 1269 311 q 1290 288 1285 297 q 1306 274 1296 279 q 1317 279 1313 274 q 1295 322 1314 307 q 1257 350 1276 336 q 1275 367 1264 360 q 1297 372 1286 375 q 1322 376 1308 372 q 1346 371 1336 381 q 1378 321 1369 351 q 1378 258 1388 290 m 639 388 q 628 402 635 396 q 616 415 622 408 q 606 428 610 421 q 603 446 601 435 q 590 458 594 450 q 579 474 585 467 q 567 488 574 482 q 550 493 560 493 q 549 528 546 511 q 556 563 551 546 q 562 599 560 581 q 560 635 564 617 q 542 697 551 665 q 517 757 532 728 q 483 811 503 786 q 438 856 464 836 q 490 824 465 844 q 532 776 514 803 q 561 719 550 750 q 575 658 572 689 q 576 622 575 640 q 578 583 578 603 q 575 547 578 565 q 563 514 572 529 q 565 498 561 504 q 574 488 568 492 q 587 479 581 483 q 597 468 593 475 q 639 388 626 435 m 1281 1103 q 1276 1110 1278 1106 q 1267 1113 1274 1115 q 1250 1075 1247 1100 q 1265 1068 1257 1067 q 1277 1082 1276 1071 q 1281 1103 1278 1093 m 1217 1035 q 1207 1041 1214 1042 q 1194 1036 1200 1040 q 1195 1021 1197 1029 q 1206 1013 1193 1013 q 1215 1021 1210 1015 q 1217 1035 1219 1026 m 1078 1158 q 1072 1167 1076 1163 q 1062 1172 1067 1171 q 1053 1171 1057 1174 q 1049 1158 1049 1168 q 1058 1145 1051 1151 q 1071 1146 1064 1139 q 1076 1151 1074 1151 q 1078 1158 1081 1151 m 1006 1154 q 940 1224 974 1190 q 868 1288 907 1257 l 860 1276 q 909 1231 883 1254 q 950 1178 935 1207 q 922 1200 935 1189 q 894 1221 910 1211 q 881 1231 886 1224 q 869 1244 875 1238 q 858 1253 864 1250 q 843 1251 851 1257 q 861 1219 844 1229 q 893 1197 878 1210 q 913 1183 904 1193 q 928 1162 921 1172 q 945 1144 936 1151 q 968 1138 954 1136 q 972 1147 969 1146 q 979 1148 975 1149 q 988 1145 983 1147 q 997 1143 993 1143 q 1006 1154 1004 1150 z "},"D":{"ha":1211,"x_min":56,"x_max":1175,"o":"m 1172 758 q 1174 791 1175 774 q 1169 826 1172 808 q 1164 860 1167 843 q 1163 893 1161 878 q 1123 1012 1143 954 q 1058 1121 1103 1069 q 961 1217 1014 1171 q 842 1282 908 1263 q 763 1311 801 1293 q 678 1329 725 1329 q 592 1347 635 1340 q 506 1360 550 1354 q 425 1347 465 1351 q 349 1328 385 1343 q 332 1323 342 1321 q 317 1314 322 1325 q 249 1285 283 1303 q 186 1242 214 1267 q 141 1186 158 1217 q 124 1121 124 1156 q 126 1101 121 1111 q 134 1081 131 1090 q 135 1064 138 1072 q 115 1050 133 1056 q 108 1019 108 1035 q 108 990 107 1004 q 108 960 110 975 q 99 932 107 946 q 96 876 99 904 q 92 819 93 847 q 94 763 92 790 q 107 708 96 735 q 85 656 92 682 q 74 603 79 629 q 59 492 63 549 q 63 381 56 436 q 92 272 71 325 q 151 172 114 219 q 153 163 154 168 q 149 154 151 158 q 146 146 147 150 q 147 138 144 142 q 149 106 142 122 q 157 74 156 89 q 213 44 181 50 q 278 42 246 39 q 288 52 282 51 q 301 51 294 53 q 315 46 308 49 q 331 46 322 43 q 353 38 342 38 q 374 43 364 39 q 396 53 385 47 q 418 58 407 58 q 433 49 424 51 q 451 46 442 47 q 469 43 460 44 q 485 36 478 42 q 494 39 489 43 q 504 42 500 35 q 535 45 522 39 q 558 60 547 51 q 578 79 568 69 q 603 93 589 89 q 615 107 610 100 q 631 117 619 114 q 764 140 704 113 q 879 204 824 167 q 1091 458 1013 319 q 1172 758 1169 596 m 985 746 q 967 648 985 694 q 931 554 949 601 q 867 472 901 511 q 782 406 833 433 l 779 400 q 740 372 760 389 q 697 351 721 354 q 688 521 721 438 q 583 664 656 604 q 558 672 567 664 q 544 690 550 679 q 532 710 538 700 q 517 729 526 721 q 481 764 504 753 q 469 769 472 765 q 467 779 467 774 q 468 792 467 786 q 469 803 469 799 q 469 834 468 818 q 471 867 471 850 q 467 900 471 883 q 453 932 464 917 q 445 958 453 946 q 432 983 438 971 q 426 1009 428 994 q 420 1037 424 1024 q 409 1062 417 1050 q 385 1079 401 1074 q 377 1098 382 1088 q 369 1119 372 1108 q 368 1140 367 1129 q 379 1158 369 1150 q 444 1189 410 1179 q 516 1201 479 1199 q 590 1201 553 1204 q 664 1193 628 1199 q 753 1165 708 1181 q 829 1119 797 1150 q 904 1049 872 1089 q 943 961 936 1010 q 965 890 963 926 q 978 815 967 853 q 985 746 971 781 m 401 994 q 397 995 401 994 q 388 998 393 996 q 381 1003 383 1000 q 382 1014 378 1007 l 390 1032 q 399 1015 396 1024 q 401 994 403 1006 m 353 999 l 347 982 l 333 983 q 342 991 336 988 q 353 999 347 994 m 1142 833 q 1147 731 1144 783 q 1129 629 1149 678 q 1122 601 1129 615 q 1118 571 1115 586 q 992 349 1076 454 q 785 172 908 243 q 719 148 754 156 q 649 138 685 140 q 631 153 642 146 q 607 156 619 160 q 599 143 599 151 q 599 128 599 136 q 595 117 599 121 q 579 119 592 114 q 563 110 568 117 q 560 88 563 100 q 542 71 557 76 q 525 80 533 72 q 506 81 517 88 q 501 74 501 78 q 499 67 500 71 q 494 60 497 63 q 485 58 492 58 q 491 67 488 61 q 489 78 494 72 q 478 82 485 81 q 467 81 472 83 q 456 72 460 76 q 443 69 453 67 l 432 78 q 438 94 432 86 q 447 111 443 103 q 449 128 450 119 q 436 144 447 136 q 450 175 438 164 q 476 200 463 186 q 471 214 476 208 q 458 224 465 219 q 444 233 451 228 q 435 246 438 238 q 421 289 426 267 q 415 333 415 311 q 422 378 415 357 q 446 418 429 399 q 461 437 449 429 q 488 447 474 444 q 506 451 496 456 q 524 443 515 447 q 541 438 533 439 q 554 451 549 438 q 499 471 532 474 q 435 441 461 469 q 396 385 408 413 q 394 297 382 338 q 426 213 407 256 q 419 172 425 192 q 411 131 413 151 q 407 120 401 125 q 411 108 413 115 q 408 97 408 104 q 406 87 408 92 q 400 79 404 82 q 386 81 396 76 q 378 82 385 82 q 368 76 369 81 q 367 65 367 71 q 365 58 367 61 q 353 58 363 56 q 350 74 349 67 q 340 86 351 81 q 331 85 333 88 q 326 78 328 82 q 320 71 324 74 q 311 71 317 68 l 311 86 q 315 87 314 85 q 317 89 315 89 l 300 104 q 307 155 303 132 q 308 204 311 178 q 315 217 315 210 q 307 228 315 225 q 324 235 313 235 q 342 246 336 235 q 335 257 340 256 q 323 258 329 258 q 310 256 317 257 q 301 263 304 256 q 333 267 317 265 q 354 283 350 268 q 333 290 346 294 q 308 289 321 286 q 341 293 321 290 q 368 314 361 296 q 353 324 363 328 q 333 317 343 319 q 277 313 307 314 q 226 329 247 311 q 208 328 217 329 q 196 318 199 328 q 210 301 199 304 q 235 296 222 297 q 260 290 249 294 q 274 271 271 286 q 283 210 282 243 q 281 149 283 178 q 269 128 269 139 q 272 105 269 117 q 275 83 274 93 q 267 64 276 72 q 254 74 260 67 q 238 78 249 81 l 222 61 q 217 64 221 64 q 211 76 218 71 q 197 83 204 82 q 190 81 194 81 q 183 82 186 82 q 169 131 167 103 q 185 150 188 136 q 183 175 183 164 q 158 201 168 189 q 140 225 147 214 q 125 249 132 236 q 110 279 118 263 q 112 290 107 286 q 115 301 117 294 q 106 310 111 307 q 103 319 100 313 q 110 324 107 321 q 115 329 113 326 q 110 342 117 336 l 96 342 q 106 356 96 351 q 113 372 115 361 q 104 375 110 375 q 94 375 99 375 q 88 376 90 375 q 90 386 86 378 q 106 395 100 388 q 122 407 113 403 q 106 413 114 410 q 89 411 97 415 q 86 417 86 414 q 86 424 86 421 q 94 428 89 426 q 105 431 100 429 q 112 435 110 432 q 110 446 114 439 q 101 449 107 449 q 90 449 96 449 q 82 453 85 450 q 82 464 79 456 q 95 469 89 467 q 107 479 101 472 q 99 492 110 489 l 82 492 q 89 499 81 499 q 103 501 97 499 q 110 513 110 506 l 96 522 q 90 521 96 521 q 84 529 83 524 q 85 539 85 535 q 105 544 93 543 q 115 560 117 546 q 108 565 113 564 q 98 568 103 567 q 90 572 93 569 q 90 583 88 575 q 110 585 97 586 q 131 596 124 585 q 126 607 132 604 q 115 610 121 610 q 105 613 108 611 q 107 624 101 615 q 132 621 122 615 l 143 635 q 133 641 140 639 q 119 645 125 643 q 112 651 114 647 q 117 663 110 654 q 136 658 128 664 q 156 658 144 653 q 160 665 161 661 q 160 672 158 669 q 143 682 154 679 q 133 696 132 685 q 144 704 139 700 q 143 714 149 708 q 126 725 136 721 q 117 740 117 729 q 114 774 117 756 q 115 808 111 793 q 113 831 113 821 q 115 851 113 842 q 119 872 117 861 q 122 894 121 882 q 131 903 125 900 q 133 913 136 906 q 149 901 138 903 q 169 904 161 899 q 182 901 175 904 q 195 895 189 897 q 207 894 201 893 q 217 904 213 894 q 203 919 214 915 q 185 928 193 924 q 157 928 171 928 q 133 918 144 928 q 128 944 121 931 q 145 944 135 942 q 157 954 156 946 q 160 966 154 961 q 163 979 165 971 q 165 969 165 975 q 166 960 165 965 q 169 951 167 956 q 181 946 172 947 q 250 969 213 967 q 328 961 288 971 q 344 946 335 954 q 365 946 354 938 q 373 965 374 954 q 379 982 372 976 q 381 970 382 976 q 378 958 379 964 q 379 948 378 953 q 389 939 381 943 q 407 956 403 943 l 407 972 q 417 956 414 965 q 423 938 421 947 q 428 920 425 929 q 439 904 432 911 q 447 851 446 881 q 446 797 449 821 q 428 781 436 790 q 431 763 421 772 q 449 749 436 749 q 472 742 463 749 q 507 703 500 726 q 521 657 514 681 q 548 649 532 646 q 575 640 564 651 q 627 582 604 613 q 665 517 650 551 q 683 447 679 483 q 676 372 688 411 q 669 359 674 365 q 660 346 664 353 q 657 332 657 339 q 664 318 657 325 q 678 311 672 318 q 689 298 683 304 q 700 290 694 292 q 714 300 706 289 q 707 311 711 306 q 706 324 703 317 q 719 317 713 324 q 732 306 725 311 q 746 301 739 301 q 761 308 753 300 l 756 322 q 772 323 763 321 q 783 335 782 325 q 780 342 783 339 q 772 347 776 344 q 765 351 768 349 q 764 358 763 354 q 779 345 769 351 q 800 342 789 339 q 810 357 810 351 q 794 365 804 364 q 788 378 785 367 q 798 375 793 378 q 808 369 803 372 q 817 363 813 365 q 829 364 822 361 q 837 373 838 369 q 832 380 836 376 q 822 387 828 383 q 815 396 817 390 q 831 388 824 394 q 850 386 839 382 q 860 395 854 390 q 861 406 865 400 q 856 409 860 408 q 848 410 851 410 q 843 413 844 411 q 846 419 842 415 q 861 411 854 417 q 878 408 868 406 q 888 417 889 413 q 883 426 888 422 q 876 435 879 431 q 876 446 872 440 q 890 438 882 439 q 904 438 897 438 q 913 444 908 440 q 914 453 917 447 q 906 459 911 458 q 899 465 900 460 q 915 460 906 457 q 932 465 925 463 q 939 472 935 468 q 939 481 943 476 q 926 485 936 486 q 919 494 917 485 q 931 497 925 497 q 941 495 936 496 q 951 495 946 494 q 960 503 956 496 q 959 511 961 508 q 953 515 957 514 q 945 519 949 517 q 943 526 942 521 q 963 526 951 526 q 981 538 975 526 q 974 547 979 543 q 966 553 969 550 q 961 560 963 556 q 964 571 960 564 q 975 572 969 574 q 985 567 981 569 q 995 566 990 565 q 1004 576 1000 567 q 992 590 1001 585 q 981 604 982 596 q 1006 606 992 607 q 1026 617 1019 606 q 1018 627 1025 625 q 1003 629 1011 629 q 992 631 996 629 q 993 644 988 633 q 1007 646 999 646 q 1024 647 1017 646 q 1038 650 1032 647 q 1044 663 1044 653 q 1024 670 1036 675 q 1004 674 1013 665 q 1019 678 1010 678 q 1035 681 1028 679 l 1047 692 q 1038 701 1044 700 q 1024 703 1032 703 q 1011 704 1017 703 q 1006 714 1006 706 q 1031 715 1018 711 q 1051 729 1044 719 q 1040 738 1049 738 q 1025 738 1033 738 q 1013 740 1018 738 q 1008 753 1007 742 q 1047 764 1035 750 q 1038 774 1046 774 q 1021 774 1029 775 q 1006 776 1013 774 q 1004 792 1000 779 q 1026 794 1013 794 q 1044 807 1040 793 q 1038 816 1043 814 q 1026 818 1033 818 q 1014 818 1021 818 q 1004 821 1008 818 q 1019 828 1008 828 q 1039 836 1032 828 q 1046 849 1047 840 q 1032 853 1040 854 q 1016 850 1024 851 q 1003 851 1008 849 q 997 865 997 853 q 1019 867 1008 863 q 1039 881 1031 872 q 1030 891 1036 890 q 1015 890 1024 892 q 999 890 1007 889 q 988 899 992 890 q 994 908 989 906 q 1008 913 1000 911 q 1024 917 1017 914 q 1038 926 1032 919 q 1031 939 1039 935 q 989 933 1008 932 q 981 940 982 935 q 981 950 981 944 q 1033 967 1014 946 q 1031 972 1035 969 q 1025 976 1028 975 q 994 973 1010 975 q 967 982 979 971 q 965 988 963 985 q 971 990 967 990 q 994 994 986 985 q 1010 1008 1003 1004 q 1003 1017 1007 1017 q 993 1017 999 1018 q 982 1015 988 1017 q 971 1014 976 1013 q 953 1019 958 1014 q 967 1031 954 1031 q 988 1036 979 1031 q 994 1046 990 1040 q 992 1056 999 1051 q 963 1053 978 1060 q 932 1054 947 1047 l 931 1058 q 957 1069 943 1061 q 974 1090 971 1076 q 963 1095 968 1096 q 953 1092 958 1094 q 943 1086 949 1089 q 932 1085 938 1083 l 904 1088 q 915 1101 906 1096 q 933 1110 924 1106 q 945 1119 942 1114 q 940 1135 949 1125 q 908 1122 925 1128 q 872 1121 890 1115 q 883 1134 874 1129 q 902 1144 893 1139 q 915 1155 911 1149 q 910 1171 919 1161 q 894 1163 901 1168 q 878 1153 886 1158 q 862 1145 871 1147 q 842 1147 853 1143 q 849 1158 843 1154 q 861 1165 854 1161 q 874 1172 868 1168 q 883 1182 881 1175 q 883 1188 886 1186 q 878 1193 881 1190 q 847 1180 860 1190 q 813 1172 833 1169 q 820 1183 813 1178 q 835 1195 828 1189 q 843 1208 842 1201 q 833 1221 844 1214 q 805 1197 822 1210 q 768 1189 788 1183 q 776 1201 769 1196 q 788 1213 782 1207 q 796 1224 794 1218 q 789 1236 797 1229 q 773 1225 781 1232 q 758 1212 765 1218 q 741 1203 750 1206 q 722 1204 732 1200 q 728 1214 724 1210 q 739 1222 733 1218 q 748 1231 744 1226 q 750 1243 751 1236 l 739 1250 q 724 1240 731 1246 q 712 1226 718 1233 q 698 1215 706 1219 q 681 1211 690 1211 q 685 1222 681 1217 q 692 1233 689 1228 q 695 1244 694 1239 q 688 1254 696 1249 q 674 1246 679 1251 q 665 1234 669 1240 q 656 1224 661 1228 q 640 1221 650 1219 q 644 1231 640 1226 q 651 1242 649 1236 q 653 1252 654 1247 q 642 1261 651 1257 q 634 1260 636 1264 q 628 1254 632 1257 q 622 1237 631 1243 q 607 1225 613 1231 l 599 1225 q 602 1249 597 1236 q 594 1272 607 1263 q 578 1262 581 1269 q 574 1246 575 1254 q 570 1231 574 1238 q 550 1225 567 1225 q 540 1247 544 1236 q 522 1265 536 1258 q 510 1254 513 1265 q 515 1241 510 1247 q 517 1226 519 1235 q 508 1222 514 1221 q 496 1222 501 1224 q 492 1244 499 1235 q 475 1261 486 1254 q 465 1260 468 1264 q 458 1253 463 1256 q 469 1239 465 1246 q 469 1222 472 1232 q 426 1217 451 1208 q 414 1232 419 1224 q 396 1239 408 1240 q 390 1230 389 1236 q 393 1218 390 1224 q 401 1209 396 1213 q 399 1199 407 1206 q 385 1200 392 1196 q 374 1208 379 1204 q 363 1213 368 1213 q 353 1204 358 1213 q 354 1193 349 1197 q 365 1185 360 1189 q 372 1178 371 1182 q 361 1171 374 1175 q 338 1174 350 1169 q 317 1167 325 1178 q 320 1156 314 1160 q 332 1149 326 1151 l 344 1147 q 338 1141 343 1143 q 326 1138 332 1139 q 316 1133 319 1136 q 315 1124 313 1131 q 329 1116 321 1117 q 344 1113 338 1115 q 360 1069 354 1093 q 347 1026 365 1046 q 288 1003 322 1007 q 226 1013 254 1000 q 166 1067 183 1032 q 147 1142 149 1101 q 193 1224 154 1189 q 279 1281 232 1260 q 424 1328 349 1311 q 583 1329 500 1344 q 669 1313 625 1321 q 756 1296 713 1304 q 826 1266 792 1281 q 897 1236 861 1251 q 1076 1057 1014 1161 q 1142 833 1138 953 m 225 985 l 193 979 l 176 1014 q 202 1000 189 1007 q 225 985 215 993 m 149 1004 l 133 1004 l 136 1018 q 145 1013 143 1019 q 149 1004 147 1007 m 751 328 l 750 326 l 743 335 l 751 328 m 382 917 q 349 926 369 925 q 317 915 328 926 q 324 903 318 906 q 336 902 329 901 q 352 904 343 903 q 368 903 361 906 q 379 906 374 903 q 382 917 385 910 m 426 811 q 425 819 429 817 q 418 825 421 822 q 401 824 407 821 q 389 831 394 826 q 378 843 383 836 q 368 854 374 850 q 352 843 351 850 q 358 828 353 836 q 365 813 363 821 q 351 797 367 804 q 330 788 340 794 q 307 785 319 782 q 302 793 300 788 q 296 801 304 799 q 294 817 296 808 q 294 834 293 826 q 301 847 296 842 q 319 853 307 853 l 313 865 q 274 865 293 867 q 238 872 254 863 q 223 866 231 872 q 222 853 215 860 q 250 837 242 847 q 271 815 258 826 q 271 800 271 808 q 264 788 271 793 q 221 789 242 778 q 204 803 206 793 q 203 822 203 813 q 201 838 204 831 q 181 847 199 846 q 168 835 168 844 q 165 817 168 826 q 149 816 157 813 q 133 808 140 819 q 134 800 136 804 q 139 792 132 796 q 172 792 157 797 q 199 780 186 788 q 226 765 213 772 q 258 760 240 758 q 247 753 253 757 q 239 743 240 750 q 247 735 242 738 q 257 729 251 732 q 282 724 268 721 q 307 735 296 728 q 301 750 314 742 q 279 751 288 742 q 258 760 271 760 q 277 765 265 769 q 300 763 289 761 q 336 769 319 763 q 368 786 353 776 q 378 801 371 799 q 393 803 385 804 q 410 803 401 803 q 426 811 419 803 m 374 640 q 378 649 378 643 q 372 658 379 656 q 353 655 358 663 q 338 640 349 647 q 282 632 314 633 q 228 644 250 631 q 228 651 229 647 q 231 657 228 654 q 210 669 224 665 q 190 657 197 672 q 195 643 190 650 q 204 629 200 636 q 216 623 208 625 q 231 619 224 621 q 243 614 239 617 q 246 603 247 611 q 253 592 247 596 q 266 585 258 588 q 280 581 274 582 q 290 578 286 579 l 268 571 q 275 554 264 563 q 297 554 288 547 q 315 567 307 561 q 315 575 317 572 q 311 582 313 578 q 347 596 326 592 q 351 608 354 601 q 342 618 347 614 q 358 630 349 626 q 374 640 367 633 m 296 531 q 281 534 290 540 q 275 521 272 528 q 279 517 278 519 q 283 515 281 515 q 293 521 288 518 q 296 531 299 524 m 317 611 q 296 606 307 608 q 274 607 285 604 q 296 609 285 610 q 317 611 307 608 z "},"E":{"ha":1193,"x_min":39,"x_max":1157,"o":"m 500 1129 q 492 1142 496 1135 q 478 1143 488 1150 q 459 1180 471 1163 q 442 1217 447 1197 q 423 1219 433 1219 q 403 1221 413 1218 q 361 1220 383 1217 q 318 1225 339 1224 l 310 1217 q 328 1204 318 1210 q 348 1191 339 1199 q 363 1174 357 1183 q 368 1151 369 1164 q 357 1142 363 1142 q 346 1145 351 1142 q 334 1153 340 1149 q 322 1160 328 1158 q 312 1151 317 1156 q 308 1140 307 1147 q 315 1124 314 1133 q 316 1105 315 1114 q 319 1089 317 1096 q 332 1078 322 1082 q 338 1086 338 1081 q 339 1099 339 1092 q 356 1111 347 1107 q 361 1099 361 1104 q 359 1088 361 1093 q 355 1076 357 1082 q 356 1061 353 1069 q 343 1039 350 1050 q 319 1031 336 1028 q 313 1014 308 1022 q 338 1001 324 1001 q 367 994 351 1000 q 403 997 385 993 q 435 1013 421 1000 q 449 1028 444 1018 q 459 1049 454 1039 q 470 1067 464 1058 q 488 1078 476 1075 q 500 1101 501 1088 q 500 1129 499 1115 m 246 1199 q 247 1205 246 1201 q 243 1211 247 1208 q 233 1223 232 1214 q 225 1236 233 1232 q 204 1233 213 1242 q 214 1213 207 1222 q 228 1194 221 1204 q 238 1192 232 1192 q 246 1199 243 1192 m 1157 1061 q 1143 1092 1150 1076 q 1143 1126 1136 1108 q 1132 1142 1132 1135 q 1135 1158 1132 1150 q 1141 1175 1138 1167 q 1142 1193 1144 1183 q 1122 1235 1136 1217 q 1083 1264 1107 1254 q 1055 1264 1068 1269 q 1026 1263 1042 1258 q 969 1255 999 1256 q 910 1256 940 1254 q 849 1258 879 1257 q 792 1257 819 1260 l 786 1261 q 696 1255 742 1258 q 606 1263 650 1251 q 549 1252 578 1256 q 492 1251 521 1249 q 431 1277 464 1272 q 367 1294 399 1282 q 370 1347 367 1321 q 371 1399 374 1374 l 353 1399 q 353 1347 353 1375 q 349 1297 353 1321 l 338 1297 q 333 1349 335 1324 q 332 1399 331 1375 l 313 1399 l 318 1308 q 310 1298 315 1300 q 299 1296 306 1296 q 285 1295 292 1296 q 274 1289 278 1294 q 273 1283 271 1286 q 278 1276 275 1279 q 293 1274 286 1274 q 308 1279 300 1274 q 313 1269 317 1276 q 313 1254 310 1261 q 317 1246 313 1250 q 325 1242 321 1242 q 335 1256 333 1247 q 339 1275 338 1265 q 344 1263 346 1271 q 349 1247 343 1254 q 356 1245 351 1246 q 361 1249 360 1244 q 368 1272 361 1269 q 384 1268 375 1274 q 403 1256 393 1263 q 422 1253 414 1250 q 451 1249 439 1257 q 473 1229 464 1242 q 490 1202 482 1217 q 506 1176 497 1188 q 510 1078 522 1128 q 476 989 499 1029 q 433 944 461 960 q 372 931 404 928 q 354 935 358 929 q 349 949 350 940 q 347 965 349 957 q 338 978 346 974 l 332 974 q 335 885 335 933 q 342 792 335 838 q 353 796 350 792 q 356 806 356 800 q 357 819 357 813 q 360 832 357 828 q 351 861 350 846 q 349 893 351 876 q 351 911 346 907 q 365 915 357 915 q 383 913 374 915 q 399 913 393 910 q 442 927 422 915 q 481 950 461 939 q 492 929 489 944 q 492 896 496 913 q 472 872 488 879 q 476 860 471 865 q 474 847 482 854 q 490 819 485 836 q 488 788 494 803 q 482 768 490 776 q 476 746 474 760 q 447 742 463 743 q 417 741 432 742 q 389 736 403 740 q 364 724 375 732 q 370 710 365 711 q 383 713 375 708 q 399 721 390 717 q 414 722 407 725 q 456 726 436 721 q 496 722 475 731 q 535 699 519 715 q 563 663 551 683 q 563 646 571 653 q 556 629 556 639 q 566 618 558 621 q 582 617 574 615 q 589 625 586 621 q 594 633 592 629 q 649 646 618 642 q 704 635 681 650 q 708 626 704 628 q 717 622 713 624 q 727 619 722 621 q 733 614 732 618 q 742 601 733 604 q 757 597 750 597 q 765 585 760 588 q 778 583 771 583 q 790 583 785 583 q 803 578 797 583 q 808 583 804 581 q 810 590 811 585 q 799 599 808 596 q 797 606 794 603 q 800 614 800 610 q 844 621 821 621 q 888 626 868 621 q 899 586 904 607 q 897 542 894 565 q 903 537 899 536 q 910 535 907 538 q 915 579 913 556 q 918 626 918 603 l 922 626 q 928 588 931 607 q 939 556 926 569 q 945 556 943 553 q 950 560 947 558 q 946 624 946 590 q 969 621 957 624 q 993 611 982 618 q 1008 613 1003 606 q 1021 622 1014 621 q 1039 622 1031 619 q 1054 627 1047 625 q 1068 629 1061 629 q 1088 624 1076 629 q 1101 615 1094 622 q 1108 600 1108 608 q 1106 589 1110 593 q 1094 586 1101 585 q 1085 578 1088 585 q 1083 565 1082 572 q 1092 557 1086 558 q 1106 551 1099 556 q 1113 537 1111 544 q 1107 522 1115 529 q 1099 522 1103 521 q 1092 524 1096 524 q 1077 513 1076 518 q 1084 503 1078 508 q 1097 491 1090 497 q 1101 476 1103 485 q 1079 458 1096 461 q 1047 454 1063 456 q 1015 469 1032 467 q 978 472 997 472 q 939 471 960 471 q 901 478 919 471 l 897 475 q 880 487 889 482 q 860 494 871 492 q 849 489 853 488 q 842 494 846 490 q 835 500 839 497 q 824 501 831 503 q 765 477 800 476 q 700 481 731 478 q 703 489 701 485 q 710 496 704 493 q 720 522 710 510 q 722 546 731 533 q 698 515 706 535 q 674 483 690 494 q 689 527 676 506 q 715 568 701 549 l 710 576 q 688 558 696 569 q 672 532 679 546 q 658 505 665 518 q 640 481 651 492 q 613 470 624 482 q 586 456 601 458 q 538 453 563 457 q 492 463 514 449 l 490 536 l 478 551 l 471 546 q 474 503 474 526 q 468 460 475 479 q 452 474 456 464 q 449 496 449 483 q 451 522 450 508 q 450 544 453 535 q 440 556 450 553 q 433 537 433 547 q 433 516 432 526 q 435 494 435 506 q 431 472 435 483 q 417 466 419 472 q 415 453 415 460 q 411 441 414 446 q 396 436 408 436 q 383 431 389 429 q 373 438 378 433 q 363 446 368 442 q 350 447 357 450 q 326 432 339 435 q 298 431 313 429 q 269 433 283 432 q 240 429 254 435 q 222 432 233 429 q 204 426 211 435 q 219 410 207 414 q 239 401 232 407 l 231 396 q 233 382 222 388 l 310 382 q 318 365 321 375 q 319 346 315 356 q 335 276 314 306 q 383 224 356 247 q 360 121 382 171 l 368 110 q 381 122 376 114 q 387 140 385 131 q 391 158 389 149 q 399 174 393 167 q 400 197 394 188 q 407 218 406 207 q 410 217 408 215 q 411 167 414 193 q 401 119 408 142 q 407 113 404 117 q 414 113 410 110 q 424 147 426 126 q 428 186 422 168 q 434 192 433 189 q 433 198 435 194 q 431 204 432 201 q 435 210 431 207 q 459 210 447 211 q 482 203 471 210 q 600 203 544 201 q 711 190 656 204 l 850 197 q 889 200 868 199 q 925 190 910 201 q 931 167 929 179 q 935 144 933 156 q 942 124 938 133 q 956 107 946 114 q 963 115 960 108 q 951 156 953 133 q 949 197 950 178 l 954 197 q 967 167 963 185 q 983 139 971 150 l 990 144 q 989 164 993 154 q 979 183 985 174 q 982 203 976 199 q 997 206 988 207 q 1015 206 1006 206 q 1033 213 1026 206 q 1048 205 1047 215 q 1057 190 1049 194 q 1078 200 1068 188 q 1099 194 1089 197 q 1115 183 1108 190 q 1131 144 1135 167 q 1124 100 1126 122 q 1115 90 1121 92 q 1101 87 1108 88 q 1089 84 1094 86 q 1082 74 1083 82 q 1081 64 1076 69 q 1078 56 1085 58 q 1072 54 1075 51 q 1065 57 1068 57 q 1055 49 1060 50 q 1044 49 1050 47 q 1033 51 1039 50 q 1019 49 1026 51 q 976 53 996 56 q 929 57 956 51 q 863 47 893 50 q 796 46 832 44 l 790 51 q 800 65 793 58 q 813 79 807 72 q 822 93 819 86 q 817 108 825 100 q 789 80 800 97 q 763 49 778 63 l 757 49 q 763 67 754 60 q 775 86 772 75 q 791 113 781 101 q 808 138 801 124 q 801 142 806 140 q 792 140 796 144 l 722 44 q 635 42 678 42 q 547 35 592 42 q 476 45 511 42 q 406 55 440 49 q 340 72 372 61 q 278 104 307 83 q 232 155 254 129 q 197 213 210 181 q 222 230 207 224 q 249 243 236 236 q 244 260 254 251 q 219 249 232 254 q 193 236 206 243 l 182 236 l 182 243 q 226 269 204 258 q 271 296 249 281 q 269 302 272 300 q 264 307 267 304 q 238 297 250 303 q 214 283 226 290 q 189 270 201 276 q 163 261 176 264 q 140 349 143 303 q 133 442 136 394 q 136 493 136 468 q 151 540 136 519 q 150 552 154 547 q 140 563 146 557 q 142 569 138 567 q 139 575 146 572 q 144 608 144 593 q 142 642 144 625 q 138 675 140 658 q 139 711 136 692 l 143 718 q 176 715 163 714 q 208 710 190 717 q 217 719 215 713 q 217 729 218 725 q 199 735 208 735 q 181 734 190 735 q 163 734 172 733 q 146 742 154 735 q 146 750 146 746 q 151 757 146 754 q 187 756 169 758 q 221 751 204 754 q 228 764 229 760 q 210 774 221 771 q 188 776 200 776 q 165 777 176 776 q 146 781 154 778 q 147 813 144 796 q 161 842 149 829 q 151 885 147 861 q 164 929 156 910 q 151 957 154 942 q 143 969 149 967 q 129 971 138 971 q 115 970 122 971 q 103 974 108 969 q 84 988 93 981 q 72 1007 75 996 q 88 1021 78 1018 q 108 1024 97 1024 q 130 1026 119 1025 q 149 1035 140 1026 q 151 1049 150 1042 q 144 1061 151 1057 q 144 1128 139 1096 q 149 1194 150 1160 q 158 1208 151 1203 q 164 1224 165 1214 q 151 1242 163 1238 q 128 1249 139 1247 q 115 1258 122 1257 q 104 1269 107 1258 q 123 1278 111 1276 q 143 1276 135 1279 l 131 1265 l 136 1257 q 145 1258 140 1258 q 154 1256 150 1257 q 163 1255 158 1254 q 169 1261 167 1256 q 171 1267 172 1264 q 167 1272 169 1269 q 174 1285 163 1283 q 193 1288 186 1286 q 205 1285 199 1288 q 217 1281 211 1283 q 229 1281 224 1279 q 239 1289 235 1282 q 217 1302 229 1300 q 190 1303 204 1304 q 160 1299 175 1301 q 133 1299 146 1296 q 116 1294 125 1296 q 98 1291 107 1293 q 82 1284 89 1289 q 72 1269 75 1279 q 103 1244 86 1253 q 135 1224 119 1235 q 126 1136 126 1179 q 126 1051 126 1093 q 83 1038 107 1044 q 43 1013 58 1031 q 41 1004 39 1008 q 44 996 43 1000 q 71 974 58 988 q 99 954 83 961 q 132 941 125 953 q 138 912 139 929 q 133 876 138 894 q 133 843 129 857 q 128 803 135 824 q 132 763 121 782 q 122 706 119 736 q 125 647 124 676 q 124 594 131 619 q 128 542 117 568 q 118 406 113 479 q 139 271 124 333 q 153 238 147 256 q 174 208 158 219 q 197 167 181 185 q 228 131 214 150 q 282 76 251 94 q 347 47 313 57 q 418 33 382 38 q 490 22 454 28 q 526 15 508 15 q 562 17 544 15 q 597 19 579 18 q 635 18 615 21 l 631 31 q 635 33 633 33 q 638 32 636 32 q 647 22 642 25 q 657 11 651 18 l 664 21 q 763 26 713 24 q 860 25 814 28 q 950 33 904 40 q 990 34 969 38 q 1029 28 1010 31 q 1067 30 1049 26 q 1101 50 1085 33 q 1142 105 1131 72 q 1143 174 1154 138 q 1128 197 1139 189 q 1106 208 1118 204 q 1079 217 1093 213 q 1056 228 1065 221 q 994 222 1024 221 q 933 214 965 224 q 841 215 889 219 q 746 208 793 210 q 732 210 738 214 q 718 207 726 207 q 665 216 690 214 q 611 221 640 218 l 536 224 q 502 219 519 218 q 467 224 485 221 q 433 232 450 228 q 400 238 417 236 q 360 269 376 249 q 336 313 343 290 q 335 358 338 332 q 343 401 332 385 q 380 414 358 411 q 417 428 401 417 q 456 440 433 440 q 501 437 478 440 q 548 432 524 433 q 593 440 572 431 q 638 458 614 454 q 685 461 661 461 q 733 459 710 461 q 781 460 757 457 q 790 464 786 460 q 799 465 794 468 q 814 471 806 471 q 831 469 822 471 q 847 467 839 468 q 863 472 856 467 q 918 456 886 457 q 978 449 950 456 q 1006 451 993 454 q 1032 440 1019 447 q 1078 438 1056 433 q 1118 463 1101 442 q 1119 481 1121 472 q 1115 500 1117 490 l 1135 532 q 1129 552 1133 543 q 1119 569 1125 561 l 1129 601 q 1122 617 1122 608 q 1123 635 1122 626 q 1123 651 1124 643 q 1113 664 1122 660 q 1071 677 1094 679 q 1024 675 1047 675 q 999 669 1011 668 q 975 673 988 669 q 949 679 963 676 q 922 678 936 682 l 919 672 q 883 681 904 681 q 844 681 863 681 q 811 678 828 681 q 777 675 794 676 q 744 677 760 674 q 714 692 728 681 q 692 696 703 696 q 669 693 681 696 q 642 694 657 697 q 617 703 626 692 q 578 745 606 731 q 524 763 551 760 q 511 770 514 764 q 508 785 508 776 q 509 803 508 794 q 508 819 510 813 q 500 847 499 833 q 506 875 501 861 q 513 903 510 889 q 508 932 515 917 q 508 958 500 946 q 513 982 515 969 q 519 990 513 989 q 531 994 525 992 q 610 978 569 982 q 693 976 651 974 q 776 982 735 978 q 857 990 817 986 q 890 994 872 997 q 922 990 907 990 q 934 986 928 989 q 946 981 940 983 q 957 977 951 978 q 969 979 963 976 q 992 975 982 975 q 1014 972 1003 975 q 1043 969 1029 974 q 1071 962 1057 965 q 1098 960 1085 958 q 1125 972 1111 961 q 1143 989 1139 978 q 1148 1013 1147 1000 q 1149 1038 1149 1025 q 1157 1061 1150 1051 m 240 1069 q 238 1076 240 1072 q 231 1078 236 1081 q 219 1065 226 1071 q 206 1051 213 1058 q 197 1036 200 1044 q 200 1018 194 1028 q 213 1021 207 1019 q 222 1028 218 1022 q 228 1050 218 1042 q 240 1069 238 1058 m 318 982 q 307 978 310 985 q 301 967 304 972 q 296 882 299 926 q 286 800 293 838 q 288 787 290 794 q 284 773 286 779 q 283 762 282 767 q 296 756 285 757 q 309 842 308 796 q 314 929 310 889 q 320 956 315 942 q 318 982 325 969 m 151 997 l 146 1006 q 133 1006 139 1003 q 122 1011 128 1008 q 112 1015 117 1014 q 103 1010 107 1015 q 106 999 101 1001 q 113 990 111 997 q 135 987 122 988 q 151 997 147 986 m 325 608 q 321 621 326 618 q 308 623 315 624 q 292 622 300 622 q 278 624 283 621 q 249 622 263 619 q 222 617 236 624 q 228 604 222 608 q 271 602 247 601 q 318 601 294 603 l 325 608 m 322 574 q 283 584 307 589 q 238 578 260 579 l 226 572 q 232 558 225 564 q 276 562 254 560 q 318 563 297 564 q 323 567 321 565 q 322 574 325 569 m 256 506 l 253 506 l 232 492 l 256 506 m 651 149 q 636 156 644 160 q 619 156 628 153 q 574 159 599 161 q 529 163 549 157 l 524 150 q 551 142 536 143 q 582 141 567 140 q 613 142 597 142 q 644 136 629 142 q 651 149 654 139 m 644 113 q 639 122 644 119 q 631 131 633 125 q 627 130 629 129 q 624 128 625 131 q 578 132 600 126 q 532 125 556 138 q 532 110 519 117 l 622 110 q 633 105 626 103 q 644 113 639 107 m 1121 1175 q 1112 1165 1118 1167 q 1099 1164 1106 1163 q 1084 1167 1092 1165 q 1071 1165 1076 1168 q 1056 1170 1064 1172 q 1039 1167 1047 1168 q 929 1167 983 1175 q 926 1181 926 1172 q 924 1197 925 1189 q 919 1210 922 1204 q 906 1217 915 1215 q 903 1189 899 1203 q 903 1161 908 1175 l 897 1161 q 894 1191 894 1175 q 882 1218 893 1207 q 872 1209 874 1215 q 872 1196 871 1203 q 874 1181 872 1189 q 874 1165 875 1172 l 747 1164 l 747 1154 q 740 1160 743 1156 q 732 1161 738 1164 q 721 1156 728 1156 q 708 1157 715 1156 q 694 1160 701 1158 q 678 1160 686 1161 q 630 1163 654 1160 q 582 1161 606 1165 l 535 1154 q 525 1185 532 1171 q 511 1215 518 1200 q 528 1231 511 1231 q 570 1235 549 1231 q 611 1239 592 1239 q 603 1225 610 1231 q 590 1215 596 1219 q 581 1203 583 1210 q 588 1189 579 1197 q 606 1198 599 1190 q 619 1214 613 1206 q 634 1228 626 1222 q 654 1233 642 1235 q 634 1213 649 1221 q 619 1189 619 1204 l 629 1182 l 700 1236 q 819 1240 761 1243 q 939 1236 876 1236 q 968 1235 953 1233 q 997 1236 983 1238 q 1010 1241 1004 1244 q 1025 1242 1017 1238 q 1041 1233 1033 1231 q 1057 1240 1049 1235 q 1074 1247 1065 1244 q 1092 1239 1082 1249 l 1107 1224 q 1105 1208 1101 1214 q 1114 1198 1108 1203 q 1123 1188 1119 1193 q 1121 1175 1126 1183 m 1136 1064 l 1135 1043 q 1118 1043 1125 1043 q 1108 1035 1113 1043 q 1106 1025 1107 1031 q 1111 1015 1106 1019 q 1121 1008 1115 1011 q 1124 996 1126 1004 q 1100 981 1111 988 q 1072 982 1089 975 q 1060 990 1067 990 q 1047 990 1053 990 q 1034 990 1040 989 q 1024 1000 1028 990 q 1004 997 1013 999 q 985 997 996 994 q 1008 1036 994 1018 q 1032 1074 1021 1054 q 1023 1078 1029 1079 q 1014 1076 1017 1078 q 990 1046 1001 1061 q 968 1015 979 1031 q 987 1049 975 1035 q 1011 1078 999 1063 q 1006 1094 1014 1086 q 977 1071 986 1088 q 957 1039 968 1054 q 944 1013 954 1018 q 919 1010 933 1008 q 889 1014 904 1011 q 861 1013 874 1017 q 758 1000 813 1006 q 657 997 704 994 q 647 1015 649 1004 q 643 1037 644 1025 q 640 1059 642 1049 q 631 1076 639 1069 q 622 1059 624 1068 q 622 1040 621 1050 q 624 1018 624 1029 q 624 997 625 1007 l 618 997 q 615 1021 614 1008 q 615 1046 615 1033 q 614 1069 615 1058 q 606 1089 613 1081 l 596 1079 l 594 1001 q 576 1002 585 997 q 558 1012 567 1007 q 542 1019 550 1017 q 524 1014 533 1022 l 518 1014 q 528 1072 518 1043 q 536 1131 539 1100 q 590 1142 563 1142 q 645 1141 618 1143 q 699 1138 672 1139 q 754 1143 726 1136 l 768 1143 q 742 1119 756 1131 q 718 1093 728 1108 q 726 1082 721 1086 q 774 1119 751 1099 q 824 1147 796 1140 q 872 1143 847 1142 q 918 1135 896 1144 q 953 1149 935 1147 q 991 1149 971 1151 q 1031 1144 1011 1147 q 1072 1143 1051 1140 q 1087 1143 1081 1136 q 1101 1143 1093 1150 q 1115 1134 1108 1140 q 1121 1119 1122 1128 q 1113 1113 1117 1117 q 1107 1107 1110 1110 q 1113 1084 1110 1096 q 1131 1069 1117 1072 q 1136 1064 1136 1069 m 422 1190 q 408 1192 415 1190 q 396 1188 401 1193 l 379 1194 q 401 1194 389 1193 q 422 1190 413 1196 m 443 1160 q 418 1158 432 1163 q 392 1161 404 1154 q 417 1167 403 1169 q 443 1160 432 1164 m 454 1119 q 433 1118 443 1118 q 418 1125 425 1118 q 405 1122 411 1118 q 392 1125 399 1125 q 401 1134 393 1135 q 417 1136 410 1133 q 438 1134 425 1133 q 454 1124 450 1135 l 454 1119 m 450 1092 q 442 1084 447 1085 q 432 1085 438 1083 q 422 1088 426 1086 q 413 1088 417 1089 q 399 1091 406 1092 q 386 1093 393 1090 l 386 1100 q 419 1097 406 1103 q 450 1092 433 1092 m 1096 644 q 1050 646 1072 649 q 1006 640 1028 643 q 963 636 985 636 q 919 647 942 636 q 862 643 889 644 q 803 642 835 642 q 792 635 799 635 q 779 635 786 635 q 767 633 774 635 q 758 622 761 632 q 749 635 756 631 q 736 642 743 639 q 722 647 729 644 q 708 654 714 649 q 649 665 682 669 q 589 657 617 660 q 560 702 578 681 q 518 736 543 724 q 529 740 521 744 q 544 739 538 736 q 573 724 557 729 q 596 701 589 719 q 601 682 601 693 q 613 668 600 671 q 683 675 643 676 q 747 651 722 674 q 803 659 775 663 q 861 661 832 656 q 893 655 876 654 q 926 656 910 656 q 960 655 943 657 q 990 642 976 653 q 1007 647 1000 640 q 1024 656 1014 653 q 1063 657 1042 657 q 1096 644 1085 657 m 436 1060 l 382 1061 q 397 1066 388 1072 q 418 1061 407 1060 l 436 1060 m 417 1033 q 396 1031 407 1029 q 382 1036 385 1033 l 417 1033 m 308 404 q 297 406 303 407 q 284 404 290 406 q 272 403 278 403 q 261 410 267 404 q 285 409 272 408 q 308 407 297 410 l 308 404 m 826 1119 q 822 1124 824 1122 q 817 1126 819 1126 l 783 1106 q 773 1096 779 1100 q 762 1087 767 1092 q 754 1077 757 1082 q 756 1064 751 1072 q 790 1087 774 1074 q 824 1113 807 1100 l 826 1119 z "},"F":{"ha":1161,"x_min":47,"x_max":1151,"o":"m 1147 1163 q 1136 1215 1151 1192 q 1101 1258 1121 1239 q 1083 1274 1094 1269 q 1060 1278 1072 1278 q 1037 1281 1049 1279 q 1017 1289 1025 1282 q 981 1296 999 1294 q 946 1297 964 1297 q 910 1298 928 1297 q 875 1304 893 1299 q 816 1302 846 1300 q 760 1289 786 1304 q 641 1290 701 1293 q 526 1268 581 1286 q 511 1297 515 1282 q 500 1328 507 1313 q 486 1350 494 1338 q 465 1357 478 1363 q 444 1318 451 1339 q 421 1281 436 1297 q 359 1290 393 1289 q 297 1285 325 1292 q 283 1307 289 1294 q 269 1331 276 1319 q 252 1353 261 1343 q 229 1367 243 1363 q 217 1351 218 1361 q 210 1336 217 1342 q 175 1350 194 1347 q 136 1356 156 1353 q 91 1339 113 1353 q 58 1301 69 1325 q 49 1261 51 1282 q 58 1222 47 1240 q 74 1206 68 1215 q 85 1186 79 1196 q 96 1167 90 1176 q 113 1153 101 1158 q 100 1113 110 1129 q 94 1069 90 1096 q 97 1035 92 1051 q 108 1003 103 1018 q 115 972 113 988 q 113 939 118 956 q 106 845 111 893 q 110 749 101 797 l 101 740 q 91 603 86 676 q 106 464 96 531 q 113 438 107 450 q 125 414 119 426 q 134 388 131 401 q 133 360 138 375 q 136 332 132 344 q 145 308 140 319 q 151 283 150 296 q 147 256 153 269 q 147 183 144 219 q 169 115 149 147 q 174 66 168 92 q 207 28 181 40 q 238 22 221 25 q 267 26 254 19 q 292 17 279 18 q 317 19 304 17 q 343 22 331 21 q 368 21 356 24 q 385 28 378 21 q 401 24 393 35 q 417 19 408 21 q 433 22 426 17 q 480 26 457 18 q 526 38 503 33 q 551 65 547 46 q 557 101 556 83 q 547 122 549 111 q 547 144 546 132 q 549 167 549 156 q 547 192 550 179 q 536 213 543 203 q 532 236 529 222 q 546 351 543 293 q 546 467 549 410 l 536 492 q 539 550 539 519 q 536 613 539 581 q 533 638 529 625 q 543 661 536 651 q 651 669 599 663 q 761 672 704 675 l 771 663 q 787 656 781 663 q 799 643 793 650 q 810 630 804 636 q 828 625 817 624 q 848 631 839 632 q 865 625 857 629 q 883 618 874 621 q 903 618 892 615 q 919 623 910 624 q 937 621 928 622 q 954 621 946 619 q 969 632 963 622 q 998 671 988 650 q 1001 718 1008 692 q 993 739 997 728 q 983 760 989 750 q 971 779 978 771 q 951 792 964 788 q 853 814 903 811 q 751 815 803 817 q 739 813 744 813 q 727 816 733 814 q 715 818 721 818 q 704 814 710 818 q 658 817 679 821 q 613 807 636 813 q 588 813 601 814 q 564 819 575 813 q 565 841 564 831 q 571 861 565 851 q 576 888 576 875 q 571 913 575 900 q 563 940 567 926 q 560 967 560 953 q 563 1008 572 988 q 549 1049 554 1029 q 553 1092 550 1071 q 574 1129 557 1113 q 657 1128 615 1136 q 743 1122 699 1121 q 783 1129 763 1128 q 824 1131 803 1131 q 865 1131 844 1131 q 904 1138 885 1132 q 942 1127 924 1126 q 979 1132 960 1128 q 1005 1124 992 1125 q 1031 1123 1018 1122 q 1058 1124 1044 1124 q 1086 1118 1072 1124 q 1120 1133 1103 1124 q 1147 1163 1138 1143 m 1125 1163 q 1106 1145 1117 1153 q 1083 1140 1096 1138 q 1073 1160 1074 1147 q 1058 1178 1072 1174 q 1044 1157 1043 1169 q 1040 1132 1046 1144 l 1039 1147 q 1030 1144 1035 1149 q 1018 1142 1025 1139 q 1012 1155 1014 1147 q 1007 1169 1010 1163 q 1000 1180 1004 1175 q 986 1183 996 1185 q 978 1172 979 1179 q 976 1158 976 1164 q 953 1149 967 1151 q 929 1147 940 1146 q 919 1160 924 1154 q 908 1169 915 1167 q 897 1164 901 1171 q 886 1153 892 1157 q 772 1146 828 1153 q 657 1146 715 1139 q 591 1151 626 1150 q 531 1131 556 1153 q 535 1092 538 1113 q 521 1057 532 1072 q 513 1049 517 1050 q 503 1049 508 1049 q 494 1048 499 1049 q 486 1039 489 1047 q 483 1029 486 1033 q 475 1021 479 1025 q 467 1012 471 1017 q 465 1001 464 1007 q 424 974 446 988 q 378 968 401 961 q 342 968 360 979 q 284 982 311 967 q 235 1019 257 997 q 238 1035 232 1028 q 232 1049 244 1042 q 222 1053 228 1051 q 210 1053 215 1056 q 201 1041 206 1047 q 203 1028 197 1035 q 249 977 218 993 q 310 946 281 961 q 391 944 350 943 q 463 974 432 944 q 497 1008 482 989 q 536 1032 513 1026 q 540 1017 536 1025 q 544 1001 543 1008 q 543 985 546 993 q 531 974 540 978 q 530 965 528 968 q 535 960 532 963 q 539 956 538 958 q 536 949 540 953 q 540 933 533 940 q 553 922 546 926 q 556 872 564 897 q 536 825 549 846 q 506 824 521 826 q 477 821 492 822 q 450 823 463 819 q 428 842 438 826 q 420 869 429 857 q 400 893 411 881 l 396 889 q 357 924 383 913 q 307 944 331 935 q 301 929 299 938 q 314 918 304 921 q 369 891 340 907 q 407 843 397 875 q 399 831 400 836 q 401 822 399 826 q 408 812 404 817 q 413 800 413 807 q 428 794 421 793 q 444 797 436 794 q 460 801 451 799 q 476 803 468 804 q 547 801 513 806 q 614 783 582 796 q 663 800 639 799 q 710 799 686 801 q 760 795 735 797 q 815 801 786 793 q 840 797 825 794 q 868 796 856 800 q 898 789 882 792 q 928 781 914 786 q 954 767 943 776 q 968 740 965 758 q 986 713 989 731 q 981 678 983 694 q 963 653 974 665 q 936 643 951 642 q 938 654 939 649 q 938 667 938 660 q 918 671 929 682 q 910 653 911 664 q 897 639 908 643 l 881 642 q 885 654 878 649 q 886 669 892 660 q 876 680 883 675 q 864 678 869 685 q 855 658 858 668 q 838 649 851 649 q 824 649 831 647 q 815 657 818 650 q 817 671 819 665 q 809 680 814 676 q 798 686 804 683 q 788 693 792 689 q 778 693 781 690 q 769 697 775 696 q 699 691 733 694 q 631 685 665 688 l 625 681 q 609 683 618 688 q 590 681 600 679 q 560 683 575 685 q 530 681 544 682 q 501 683 515 681 q 476 700 488 686 q 453 701 464 701 q 429 693 442 700 q 411 699 419 694 q 396 711 403 704 q 379 725 381 714 q 313 758 346 739 q 254 806 279 776 q 256 813 251 810 q 263 818 260 815 q 257 830 261 825 q 247 840 253 835 q 225 825 232 840 q 234 793 225 806 q 256 771 243 781 q 282 752 268 761 q 307 732 296 743 q 338 720 324 729 q 367 701 353 711 q 395 682 381 690 q 428 672 410 674 q 444 674 435 675 q 461 675 454 674 q 477 664 465 667 q 499 658 489 661 q 513 649 508 656 q 506 628 517 643 q 503 614 508 619 q 506 601 499 608 q 519 565 521 586 q 519 525 518 544 q 513 494 513 511 q 524 467 513 479 q 527 410 524 439 q 531 351 531 381 q 524 297 531 324 q 500 246 518 269 q 506 237 506 242 q 506 227 507 232 q 502 217 504 222 q 501 208 500 213 q 531 169 529 197 q 527 155 532 163 q 519 141 522 147 q 515 129 515 135 q 528 119 515 124 q 535 89 533 106 q 525 60 536 72 q 514 59 517 56 q 509 68 511 63 q 504 77 507 74 q 493 76 501 81 q 488 67 489 72 q 487 56 488 61 q 483 48 486 51 q 471 47 481 44 q 472 66 474 56 q 460 81 471 76 q 447 73 449 79 q 443 60 444 67 q 440 47 442 53 q 426 42 438 42 q 415 49 414 39 q 411 64 417 58 q 412 78 414 71 q 408 92 410 85 q 406 107 406 100 q 413 121 406 114 q 418 177 414 147 q 408 232 422 207 q 412 252 413 242 q 410 273 411 263 q 410 293 410 283 q 415 315 410 304 q 443 331 431 311 q 442 344 436 339 q 453 355 447 350 q 463 365 460 360 q 456 381 467 371 q 438 369 449 374 q 415 368 426 364 l 413 371 q 404 439 410 403 q 408 507 399 475 q 428 513 419 510 q 444 525 438 515 q 442 533 444 529 q 435 539 440 538 q 408 532 422 536 q 383 536 394 528 q 415 539 400 540 q 444 546 429 538 q 448 554 444 550 q 453 563 451 558 q 454 570 456 567 q 444 576 453 574 q 411 563 432 563 q 375 567 392 563 q 373 582 378 575 q 361 592 368 589 q 340 588 350 590 q 324 579 331 586 q 328 566 321 569 q 340 556 336 563 l 342 557 q 352 548 343 547 q 367 544 361 549 q 347 532 351 547 q 355 519 349 525 q 368 511 361 514 l 375 508 q 383 451 381 481 q 389 394 386 422 q 356 371 378 372 q 338 374 349 374 q 328 386 326 375 q 319 392 324 389 q 310 392 315 394 q 304 388 307 390 q 301 382 301 385 q 308 364 299 371 q 324 354 317 357 q 333 341 331 351 q 347 328 336 331 q 370 326 358 321 q 393 332 382 331 q 394 306 396 319 q 385 283 393 293 q 386 275 385 279 q 389 267 388 271 q 388 259 390 263 q 379 256 386 256 q 381 235 371 243 q 396 218 392 226 q 399 171 403 194 q 378 131 394 147 q 385 117 385 125 q 384 103 385 110 q 383 88 383 96 q 390 75 383 81 q 383 56 388 65 q 368 44 379 47 q 360 60 363 51 q 347 71 357 68 q 335 52 336 65 q 319 38 335 39 q 301 41 306 33 q 295 58 297 49 q 288 75 293 68 q 269 78 283 82 q 265 68 265 75 q 265 57 265 63 q 263 47 265 51 q 250 44 260 43 q 233 49 243 49 q 215 50 224 49 q 200 56 207 51 q 192 71 193 60 q 199 88 192 82 q 194 104 206 94 q 189 125 200 118 q 175 143 178 132 q 164 228 165 185 q 178 313 163 272 q 162 328 167 318 q 167 349 157 338 q 164 353 165 351 q 160 358 163 356 q 160 376 163 367 q 154 393 158 385 q 146 410 150 401 q 142 429 142 419 q 124 478 129 451 q 116 532 118 504 q 114 588 114 560 q 111 642 114 615 q 114 664 114 651 q 115 688 114 676 q 119 710 115 700 q 136 728 124 721 q 121 665 129 700 q 121 600 113 629 q 122 576 124 589 q 119 551 119 564 q 124 530 119 539 q 144 518 128 521 q 155 535 147 526 q 154 553 163 544 q 144 558 146 554 q 143 567 143 561 q 143 576 143 572 q 138 586 143 582 q 140 610 140 596 q 140 638 139 624 q 143 662 140 651 q 157 676 146 672 l 147 682 q 155 703 147 693 q 170 723 163 713 q 179 743 178 733 q 167 764 181 753 q 173 835 163 803 q 182 903 183 867 q 190 920 190 911 q 186 938 189 929 q 181 954 183 946 q 185 972 178 963 q 186 1012 189 992 q 188 1054 183 1032 q 173 1112 169 1078 q 185 1171 176 1146 q 196 1231 185 1203 q 225 1282 207 1258 q 231 1311 228 1297 q 235 1339 233 1325 q 244 1335 242 1340 q 249 1326 246 1329 q 245 1317 249 1322 q 239 1308 242 1313 q 235 1300 236 1304 q 240 1290 235 1296 q 247 1284 243 1288 q 254 1285 251 1281 l 264 1296 q 266 1280 268 1290 q 271 1263 264 1269 q 283 1255 276 1254 q 297 1259 290 1256 q 310 1267 303 1263 q 324 1271 317 1271 q 369 1269 349 1269 q 413 1254 392 1269 q 432 1253 422 1256 q 446 1263 442 1251 q 449 1284 447 1274 q 460 1301 451 1294 q 467 1279 465 1293 q 483 1264 468 1265 q 491 1281 494 1271 q 486 1299 488 1290 q 475 1310 482 1306 q 461 1308 468 1315 q 466 1320 463 1315 q 471 1332 469 1325 l 476 1332 q 488 1303 485 1319 q 497 1270 492 1286 q 513 1244 503 1254 q 546 1236 524 1233 q 555 1245 553 1239 q 558 1258 557 1251 q 579 1263 568 1263 q 601 1267 590 1264 l 601 1271 q 607 1268 603 1268 q 608 1278 614 1272 l 607 1281 q 613 1272 608 1274 q 622 1272 617 1271 q 631 1273 626 1272 q 640 1272 636 1274 q 644 1282 644 1276 q 646 1274 642 1276 q 653 1271 650 1271 q 713 1272 685 1271 q 769 1257 742 1272 q 778 1265 776 1257 q 783 1276 779 1272 q 809 1281 794 1282 q 835 1289 824 1279 q 847 1282 840 1282 q 863 1283 856 1282 q 877 1286 869 1285 q 893 1283 885 1288 q 932 1277 913 1278 q 970 1275 951 1276 q 1007 1271 989 1274 q 1042 1258 1025 1268 q 1086 1245 1068 1261 q 1115 1207 1104 1229 q 1122 1185 1115 1196 q 1125 1163 1128 1174 m 192 1281 q 175 1225 183 1253 q 161 1169 167 1197 q 153 1113 156 1142 q 157 1057 151 1085 q 155 1044 153 1050 q 160 1031 157 1038 q 164 1019 163 1025 q 161 1007 165 1014 q 165 990 167 999 q 162 973 164 982 q 158 955 160 964 q 161 938 157 946 q 158 886 154 911 q 154 833 161 861 q 145 788 146 813 q 147 740 144 764 l 143 736 q 141 758 146 749 q 130 775 136 767 q 120 793 124 783 q 122 815 117 803 q 124 838 124 825 q 126 861 125 850 q 131 883 126 872 q 144 900 135 893 q 142 910 146 906 q 135 919 139 915 q 132 926 132 924 q 143 933 132 931 q 147 942 147 935 q 140 956 136 947 q 143 971 143 964 q 114 1048 122 1006 q 128 1126 106 1090 q 135 1153 129 1139 q 126 1175 140 1167 q 126 1184 128 1181 q 120 1190 124 1188 q 115 1196 117 1193 q 113 1203 113 1199 q 90 1218 99 1207 q 72 1240 81 1229 q 71 1278 63 1260 q 89 1311 79 1296 q 138 1336 107 1333 q 189 1324 168 1339 q 198 1302 193 1313 q 192 1281 203 1292 m 481 1224 q 479 1231 481 1228 q 476 1236 478 1233 l 468 1236 q 456 1235 461 1232 q 444 1241 450 1238 q 434 1245 439 1244 q 425 1240 429 1246 q 433 1222 422 1226 q 453 1215 443 1218 q 467 1217 460 1218 q 481 1224 475 1217 m 285 1240 q 279 1247 282 1243 q 274 1250 276 1250 q 261 1249 268 1247 q 250 1256 254 1250 q 238 1253 242 1258 q 226 1244 233 1247 q 238 1228 226 1232 q 264 1227 250 1225 q 285 1240 278 1229 m 497 1129 q 490 1133 494 1136 q 481 1132 486 1129 q 465 1143 469 1133 q 454 1160 460 1153 q 449 1174 449 1165 q 436 1181 449 1183 q 431 1165 429 1174 q 432 1147 433 1156 q 438 1141 435 1144 q 439 1132 442 1138 q 415 1113 431 1115 q 383 1108 399 1110 q 367 1126 367 1113 q 365 1157 367 1142 q 378 1165 371 1164 q 393 1174 386 1167 q 389 1185 396 1182 q 378 1190 382 1188 q 356 1190 367 1186 q 337 1197 346 1193 q 320 1199 328 1200 q 307 1185 313 1197 q 314 1176 311 1182 q 324 1174 317 1171 q 343 1119 349 1153 q 311 1113 328 1115 q 281 1124 294 1111 q 274 1139 281 1131 q 275 1156 268 1147 q 274 1171 281 1164 q 260 1178 268 1178 q 248 1163 249 1172 q 243 1146 247 1154 l 225 1156 q 211 1149 218 1153 q 204 1133 204 1144 q 224 1121 210 1122 q 249 1119 238 1119 q 267 1103 256 1107 q 291 1097 279 1100 q 312 1090 303 1094 q 324 1071 321 1085 q 333 1063 331 1068 q 336 1051 335 1057 q 340 1041 338 1046 q 351 1033 343 1036 q 367 1033 364 1029 q 372 1045 371 1038 q 374 1060 372 1053 q 388 1069 376 1068 q 381 1082 386 1081 q 370 1081 376 1083 q 356 1078 364 1079 q 343 1082 349 1076 q 344 1086 343 1085 q 347 1090 346 1088 q 386 1088 365 1088 q 425 1096 407 1089 q 435 1101 431 1096 q 444 1110 440 1106 q 453 1117 449 1114 q 465 1117 458 1119 q 483 1110 469 1107 q 494 1117 490 1111 q 497 1129 499 1122 z "},"G":{"ha":1325,"x_min":36,"x_max":1271,"o":"m 1238 624 q 1210 665 1225 644 q 1182 706 1196 686 l 1213 715 l 1211 717 q 1215 722 1211 718 q 1210 731 1215 729 q 1201 735 1206 733 q 1169 728 1183 725 q 1140 739 1154 731 q 1115 759 1126 747 q 1090 779 1103 771 l 1088 769 l 1078 783 q 1059 794 1067 786 q 1044 789 1051 801 l 1040 801 q 1032 805 1036 801 q 1025 801 1028 808 q 969 818 997 813 q 911 818 942 824 q 901 839 904 826 q 895 863 899 851 q 885 882 892 874 q 863 893 878 890 q 838 851 846 872 q 814 808 829 829 q 774 817 794 817 q 731 814 753 817 q 688 809 710 811 q 649 813 667 807 q 630 849 638 831 q 610 885 622 867 q 588 875 597 885 q 578 833 588 851 q 556 799 568 815 q 534 764 544 782 q 519 725 524 746 q 501 726 510 722 q 486 726 493 729 q 474 727 479 732 q 463 731 468 722 q 442 730 451 726 q 422 737 432 733 q 403 742 413 740 q 382 738 393 743 q 375 744 375 740 q 371 753 375 750 q 393 818 382 785 q 401 888 404 851 q 425 919 413 904 q 440 954 438 933 q 444 974 447 963 q 440 994 440 986 q 418 1013 438 1013 q 385 1017 399 1014 q 360 1033 368 1019 q 339 1050 353 1047 q 349 1072 342 1063 q 367 1090 357 1082 q 385 1107 376 1099 q 401 1126 394 1115 q 552 1206 468 1189 q 721 1211 636 1224 q 806 1203 769 1221 q 877 1158 843 1185 q 945 1106 911 1131 q 1021 1079 979 1081 q 1056 1092 1039 1083 q 1086 1117 1074 1101 q 1086 1187 1094 1150 q 1057 1251 1078 1224 q 1020 1286 1039 1268 q 981 1320 1001 1304 q 937 1347 960 1336 q 889 1363 914 1358 q 850 1376 872 1376 q 808 1385 828 1376 q 749 1385 781 1389 q 690 1385 718 1382 q 620 1372 654 1378 q 554 1350 586 1365 q 535 1352 543 1356 q 519 1344 526 1349 q 505 1336 513 1339 q 486 1339 497 1333 q 460 1323 474 1328 q 431 1314 446 1318 q 402 1305 417 1310 q 374 1292 388 1300 q 257 1206 313 1254 q 158 1099 201 1157 q 85 974 114 1040 q 47 836 56 908 q 40 790 44 815 q 40 742 36 765 q 51 619 43 676 q 86 508 58 561 q 108 435 93 471 q 143 367 124 400 q 183 301 163 333 q 224 235 204 268 q 260 185 233 204 q 311 146 288 165 q 333 122 319 131 q 360 106 346 113 q 389 93 375 100 q 415 74 403 86 q 517 44 468 63 q 619 25 567 26 q 697 11 658 22 q 776 4 736 0 q 868 7 825 1 q 951 40 911 13 q 1072 98 1018 54 q 1172 194 1125 142 q 1233 290 1210 236 q 1263 401 1256 344 q 1265 516 1271 458 q 1238 624 1258 574 m 1247 508 q 1225 330 1256 415 q 1126 182 1194 244 q 1032 101 1085 131 q 919 54 979 72 q 881 33 904 35 q 839 25 858 32 q 632 42 736 25 q 428 93 528 58 q 334 151 378 118 q 247 225 290 183 q 213 294 233 261 q 173 359 193 326 q 135 426 153 392 q 110 499 118 460 q 90 552 97 524 q 78 610 82 581 q 70 668 74 639 q 61 725 67 697 q 76 876 58 800 q 126 1018 94 951 q 221 1142 171 1082 q 339 1243 271 1201 l 342 1242 q 398 1277 369 1257 q 463 1297 426 1297 q 476 1292 468 1290 q 485 1300 482 1294 q 490 1310 488 1306 q 497 1315 493 1314 q 508 1310 501 1315 q 523 1323 514 1321 q 542 1325 532 1325 q 561 1326 551 1325 q 578 1336 571 1328 q 662 1357 617 1349 q 751 1360 707 1365 q 769 1363 758 1363 q 788 1367 779 1364 q 840 1354 814 1360 q 892 1340 867 1349 q 940 1319 917 1332 q 985 1285 964 1306 q 1050 1218 1025 1258 q 1067 1132 1075 1178 q 1035 1108 1054 1117 q 992 1106 1015 1099 q 917 1153 950 1119 q 844 1213 883 1186 q 781 1228 813 1224 q 718 1234 750 1233 q 654 1234 686 1235 q 590 1235 622 1233 q 433 1177 506 1226 q 311 1057 361 1128 q 304 1049 308 1050 q 294 1048 300 1047 q 283 1049 289 1049 q 272 1044 278 1049 q 244 1023 251 1038 q 234 992 238 1008 q 226 958 231 975 q 207 929 222 942 q 196 881 197 906 q 193 831 194 856 q 187 783 192 807 q 167 738 182 758 q 155 690 163 715 q 144 640 147 665 q 147 592 142 615 q 176 549 153 568 q 187 552 181 550 q 193 561 193 554 q 185 592 194 576 q 169 608 172 597 q 167 633 165 619 q 172 660 168 646 q 175 685 175 674 q 185 717 183 699 q 207 746 188 736 q 213 758 213 751 q 213 774 213 767 q 215 788 213 781 q 225 800 217 794 q 213 821 215 810 q 213 843 211 832 q 217 867 214 854 q 219 890 219 879 q 231 924 225 906 q 257 946 238 942 q 264 1004 265 979 q 271 1014 264 1014 q 282 1021 278 1014 q 292 1014 288 1021 q 299 1001 296 1007 q 308 992 303 994 q 321 1000 313 990 q 328 1013 326 1004 q 342 1017 331 1021 q 345 1003 346 1011 q 344 988 344 996 q 347 974 344 981 q 357 964 349 968 q 372 976 367 965 q 388 986 378 988 q 388 958 397 971 q 375 933 379 946 q 355 919 358 928 q 352 899 351 910 q 353 876 353 888 q 347 854 354 864 q 286 726 335 783 q 288 708 282 715 q 303 696 294 701 q 358 668 335 694 q 393 615 381 642 q 405 556 407 588 q 399 493 403 524 q 384 444 396 468 q 347 404 372 419 q 344 394 344 401 q 349 385 343 388 q 356 380 351 378 q 365 383 361 382 q 377 395 372 388 q 387 410 382 403 q 398 421 392 417 q 414 424 404 425 q 447 400 431 413 q 468 367 464 388 q 468 342 460 356 q 478 334 472 335 q 491 335 485 333 q 503 337 497 336 q 517 333 510 338 q 544 326 532 333 q 564 308 557 318 q 567 294 561 301 q 579 286 572 288 q 613 297 596 296 q 644 286 629 297 q 637 258 642 274 q 618 235 632 243 q 618 225 618 231 q 614 217 618 221 q 622 174 614 193 q 631 135 631 156 q 660 99 644 117 q 703 85 676 82 q 739 87 724 88 q 774 93 754 86 q 794 91 783 93 q 817 88 806 89 q 838 88 828 86 q 857 97 849 90 l 861 93 q 944 131 903 110 q 1025 178 986 151 q 1097 239 1064 206 q 1153 314 1129 272 q 1166 349 1163 331 q 1172 387 1169 368 q 1176 424 1174 406 q 1185 463 1178 443 q 1180 476 1185 469 q 1168 486 1175 482 q 1153 458 1156 474 q 1150 425 1150 442 q 1151 391 1150 408 q 1144 357 1151 374 q 1113 294 1129 324 q 1067 242 1096 265 q 1051 241 1057 244 q 1042 231 1046 238 q 1033 219 1038 225 q 1022 213 1029 213 q 926 145 978 172 q 813 111 874 118 q 797 113 804 110 q 783 118 790 115 q 768 121 775 121 q 753 115 761 121 q 733 128 744 122 q 711 124 722 135 q 695 113 708 110 q 675 118 682 115 q 661 133 668 125 q 657 151 654 142 q 668 156 664 151 q 676 164 672 160 q 675 176 679 171 q 665 185 671 182 q 645 186 656 183 q 636 200 635 189 q 638 221 632 217 q 651 227 643 225 q 669 231 660 229 q 681 246 678 233 q 672 256 681 254 q 667 267 664 258 q 677 272 674 267 q 683 283 681 278 q 688 290 685 288 q 699 286 690 292 q 709 286 704 289 q 719 282 714 283 q 733 258 721 267 q 757 242 746 249 q 822 238 788 242 q 883 243 856 235 q 979 290 932 257 q 1047 375 1026 322 q 1059 440 1056 407 q 1036 500 1063 472 q 1025 500 1031 500 q 1017 493 1019 500 q 1022 478 1014 482 q 1031 465 1031 474 q 1021 371 1042 415 q 956 300 1000 326 q 869 266 914 276 q 772 261 825 256 q 761 274 765 267 q 761 288 757 281 q 831 318 790 313 q 908 326 872 324 q 918 329 915 324 q 924 338 921 335 q 926 369 915 356 q 948 397 936 383 q 963 425 960 411 q 940 456 965 439 q 931 490 935 472 q 933 526 926 508 q 946 545 940 535 q 949 567 951 556 q 932 571 940 579 q 876 508 915 531 q 796 482 838 485 q 772 491 785 490 q 747 482 758 492 q 660 494 701 479 q 588 544 618 508 q 592 564 593 556 q 586 583 590 572 q 563 603 571 590 q 551 631 554 615 q 546 662 547 646 q 543 690 544 678 q 549 694 544 690 l 547 696 q 558 708 553 701 q 554 722 563 715 q 547 731 546 722 q 549 746 547 740 q 571 766 556 760 q 594 789 586 772 q 592 817 585 804 q 601 843 599 829 q 622 808 615 829 q 622 794 624 800 q 626 782 619 789 q 656 778 642 769 q 686 786 671 786 q 724 791 704 783 q 760 792 743 799 q 783 791 772 796 q 803 781 793 786 q 824 776 814 776 q 843 788 833 775 q 848 825 840 808 q 865 858 856 842 l 871 858 q 885 812 881 836 q 908 769 889 788 q 924 782 918 769 q 922 788 921 785 q 921 796 922 792 q 985 791 953 796 q 1044 772 1017 786 q 1078 759 1064 772 q 1106 735 1092 746 l 1100 731 q 1008 729 1051 731 q 919 731 965 728 q 906 725 911 731 q 897 713 901 719 q 907 702 900 704 q 921 700 914 700 q 937 701 929 700 q 950 699 944 701 q 972 703 961 708 q 996 706 983 699 q 1064 705 1029 704 q 1133 703 1099 706 q 1138 706 1136 706 q 1142 708 1140 706 q 1212 616 1182 667 q 1247 508 1242 565 m 401 924 q 397 921 400 924 l 401 928 l 401 924 m 519 699 l 513 692 q 465 691 492 689 q 418 685 439 693 q 409 695 411 689 q 406 708 407 701 q 441 710 424 713 q 478 707 458 707 q 498 703 486 706 q 519 699 510 701 m 906 490 q 920 419 919 454 q 889 357 921 385 q 857 344 876 346 q 822 340 838 342 q 790 330 806 339 q 758 313 774 321 q 725 302 742 304 q 690 314 708 300 q 672 306 682 306 q 653 308 663 306 q 635 315 644 311 q 618 318 626 318 q 582 324 601 325 q 540 351 564 343 q 493 364 517 358 q 481 391 490 379 q 460 413 471 403 q 441 435 450 424 q 429 460 432 446 q 422 469 421 463 q 424 483 422 476 q 443 570 447 524 q 428 663 439 617 q 463 663 444 665 q 499 668 481 661 q 508 666 503 665 q 517 667 513 667 q 533 616 525 640 q 556 569 540 592 q 555 551 551 558 q 565 538 558 544 q 577 524 571 531 q 588 510 583 518 q 644 472 611 486 q 707 456 676 458 q 718 458 719 458 q 729 456 717 458 q 765 456 747 457 q 801 457 783 456 q 834 463 818 458 q 867 478 850 467 q 886 483 878 474 q 906 490 894 492 m 393 667 q 365 697 379 682 q 328 717 350 713 q 323 731 321 722 q 328 746 325 739 q 363 813 349 778 q 379 889 376 849 q 374 819 385 853 q 343 758 363 786 q 353 735 346 746 q 369 713 361 724 q 385 692 378 703 q 393 667 392 681 m 1079 675 q 1017 684 1051 683 q 958 682 983 685 q 947 690 954 689 q 933 696 940 692 q 920 687 926 693 q 915 672 914 681 q 922 668 918 669 q 928 664 925 667 q 965 665 946 667 q 1003 662 983 664 q 1040 660 1022 660 q 1078 664 1060 660 q 1079 675 1078 671 m 847 751 q 841 760 847 758 q 828 761 835 763 q 817 754 821 760 q 814 742 813 749 q 824 734 818 735 q 838 733 831 733 q 844 740 843 735 q 847 751 846 744 m 632 749 q 619 758 629 758 q 610 753 613 758 q 606 742 607 747 q 622 735 611 735 q 630 740 625 738 q 632 749 635 743 m 893 660 q 889 671 893 668 q 869 681 878 672 q 854 699 860 689 q 847 703 850 700 q 839 709 843 707 q 831 710 835 711 q 824 703 828 710 q 828 685 824 693 q 840 671 833 678 q 835 646 846 656 q 814 628 824 636 q 788 623 799 622 q 764 625 778 624 q 760 630 764 632 q 753 635 756 628 q 754 653 749 647 q 767 665 760 660 q 780 676 774 671 q 782 692 786 681 q 740 695 763 696 q 697 703 718 694 q 687 687 683 693 q 699 674 690 681 q 717 661 708 668 q 721 644 725 654 q 681 628 703 622 q 640 642 660 635 q 638 655 633 649 q 646 667 643 661 q 646 678 644 671 q 648 692 647 685 q 645 703 649 699 q 632 708 642 708 q 623 699 624 706 q 622 685 622 692 q 608 674 619 668 q 590 681 597 679 q 578 654 574 672 q 597 642 585 640 q 619 638 610 644 q 625 626 619 631 q 635 617 631 622 q 659 610 647 614 q 683 606 671 607 q 708 606 696 604 q 732 617 721 608 q 747 612 744 619 q 761 601 750 604 q 756 595 761 599 q 743 592 750 592 q 732 592 739 590 q 719 595 725 594 q 708 594 713 596 q 703 583 703 593 q 717 563 713 575 q 728 540 722 551 q 740 541 736 538 q 746 550 743 544 q 751 561 749 556 q 761 569 754 567 q 770 583 769 575 q 768 597 771 590 q 824 608 797 594 q 865 650 851 622 q 881 650 872 649 q 893 660 889 651 z "},"H":{"ha":1106,"x_min":46,"x_max":1039,"o":"m 1035 1001 l 1032 1001 q 1030 1081 1024 1042 q 1032 1161 1036 1121 q 1031 1205 1028 1182 q 1036 1251 1033 1228 q 1037 1297 1039 1275 q 1022 1336 1035 1318 q 988 1374 1014 1363 q 933 1386 961 1385 q 887 1369 910 1382 q 858 1329 864 1356 q 855 1308 853 1318 q 860 1288 857 1297 q 866 1267 864 1278 q 864 1243 868 1256 q 872 1224 871 1233 q 879 1204 872 1214 q 873 1176 876 1190 q 874 1147 869 1161 q 874 1079 871 1111 q 881 1015 878 1047 q 871 935 869 975 q 875 854 872 894 l 869 846 q 857 861 858 851 q 844 878 856 871 q 831 876 836 874 q 821 881 825 878 q 812 889 817 885 q 800 893 807 893 q 762 901 781 890 q 719 908 743 911 q 687 919 704 918 q 652 917 669 919 q 617 916 635 915 q 586 928 600 917 q 549 924 567 931 q 515 915 531 918 q 483 908 500 908 q 449 907 467 907 q 415 905 432 907 q 385 893 399 903 q 378 943 376 917 q 376 993 379 969 q 372 1011 376 1003 q 362 1027 367 1019 q 354 1044 357 1035 q 354 1064 351 1053 q 347 1079 347 1071 q 348 1098 347 1089 q 349 1117 349 1107 q 344 1135 349 1126 q 333 1172 336 1153 q 328 1210 329 1190 q 324 1249 326 1231 q 314 1286 322 1268 q 311 1314 311 1301 q 294 1332 311 1326 q 277 1323 281 1336 q 267 1301 274 1310 q 254 1254 258 1278 q 240 1207 250 1231 q 207 1213 221 1204 q 178 1204 193 1210 q 151 1211 164 1199 q 101 1325 135 1271 q 90 1330 97 1328 q 81 1325 83 1332 q 68 1258 72 1290 q 64 1189 64 1225 l 69 1185 l 58 1179 q 53 1081 60 1131 q 49 979 46 1032 q 63 904 56 943 q 72 825 69 865 q 81 800 75 814 q 76 775 86 786 q 72 651 68 714 q 85 531 75 589 q 94 501 97 517 q 93 468 92 485 q 93 355 96 413 q 94 239 90 297 q 96 222 93 231 q 102 206 99 214 q 106 190 106 199 q 101 174 107 182 q 100 110 100 142 q 115 51 100 79 q 132 28 121 32 q 157 26 143 25 q 184 26 171 28 q 207 11 197 25 q 231 8 219 6 q 253 13 242 10 q 276 17 264 15 q 300 14 288 19 q 329 26 315 15 q 349 53 343 36 q 374 105 368 78 q 381 161 381 132 q 376 219 381 190 q 371 278 372 249 q 376 319 375 299 q 375 360 376 340 q 374 400 374 381 q 376 439 374 419 q 373 456 376 446 q 376 475 369 467 q 388 491 385 481 q 401 499 390 501 q 421 521 413 510 q 436 544 429 532 q 492 574 460 571 q 554 567 525 578 q 593 563 569 561 q 633 561 617 565 q 631 509 632 536 q 635 455 631 482 q 649 403 639 428 q 678 358 658 378 q 699 320 685 339 q 733 290 714 301 q 742 285 736 286 q 752 281 747 283 q 760 275 757 279 q 761 263 763 271 q 771 239 769 251 q 771 212 772 226 q 769 183 769 197 q 771 157 768 169 q 774 101 778 132 q 774 46 771 71 q 794 21 776 26 q 828 11 813 15 q 865 -3 847 7 q 903 -6 883 -12 q 919 -12 911 -12 q 938 -10 929 -12 q 956 -6 947 -8 q 972 -6 964 -4 q 1005 17 992 0 q 1022 53 1018 33 q 1025 109 1022 81 q 1030 166 1028 138 q 1032 222 1032 194 q 1025 278 1032 250 q 1017 331 1015 304 q 1022 386 1018 358 q 1028 441 1025 414 q 1022 494 1031 468 q 1026 525 1026 510 q 1025 556 1026 540 q 1023 589 1024 572 q 1025 624 1022 606 q 1025 687 1026 656 q 1022 749 1024 718 q 1021 810 1021 779 q 1026 874 1021 842 q 1025 939 1024 904 q 1035 1001 1026 974 m 1017 1239 q 1011 1158 1011 1199 q 1014 1079 1011 1119 q 1006 985 1007 1033 q 1007 892 1006 936 q 1001 780 999 838 q 1008 668 1004 722 q 1006 602 1007 633 q 1007 536 1004 571 q 1005 524 1004 529 q 1001 513 1006 519 q 992 513 997 515 q 985 507 988 510 q 987 497 982 500 q 996 490 992 493 q 1004 485 1004 493 q 1004 472 1004 479 q 997 464 1004 467 q 983 467 989 467 q 976 459 979 464 q 978 450 974 454 q 986 444 979 444 q 999 442 993 443 q 1007 438 1004 440 q 1004 425 1010 435 q 990 422 997 421 q 976 425 983 424 q 964 424 969 426 q 957 411 958 422 q 978 400 965 400 q 1001 397 990 400 q 999 381 1003 389 q 990 364 994 372 q 985 347 986 356 q 990 331 983 339 q 1010 292 1010 317 q 1013 247 1010 267 q 1015 160 1018 207 q 989 81 1013 114 q 998 52 992 67 q 989 25 1004 38 q 978 18 983 22 q 965 18 972 14 q 957 28 963 24 q 944 29 951 32 q 938 24 940 28 q 935 15 936 19 q 932 9 935 11 q 922 10 929 7 q 911 28 922 19 q 899 17 904 25 q 883 15 893 10 q 881 28 881 21 q 874 39 881 35 q 866 36 869 39 q 859 30 863 33 q 852 24 856 26 q 844 25 849 22 q 834 42 832 33 q 841 59 836 50 q 847 77 846 68 q 833 96 847 86 q 830 167 826 132 q 833 236 833 203 q 833 253 831 244 q 839 269 836 261 q 844 284 842 276 q 842 299 846 292 q 833 314 835 306 q 822 328 831 322 q 769 340 794 325 q 728 381 743 354 q 702 427 714 403 q 696 479 690 451 q 712 494 703 488 q 714 514 721 501 q 704 522 708 518 q 692 525 700 526 q 687 568 679 547 q 707 608 694 589 q 722 622 713 619 q 742 629 732 625 q 758 622 750 626 q 774 629 767 618 q 776 638 776 632 q 774 646 776 643 q 754 651 765 653 q 736 660 743 650 q 724 651 726 660 q 711 644 721 642 q 711 664 710 653 q 706 682 713 675 q 692 674 694 681 q 689 657 689 667 q 689 639 689 649 q 685 624 689 631 q 680 606 682 615 q 672 589 678 596 q 674 631 668 608 q 674 676 681 653 l 667 682 q 656 665 658 675 q 653 642 653 654 q 653 618 653 631 q 649 596 653 606 q 642 592 646 592 q 636 590 639 592 q 634 612 633 601 q 636 632 635 622 q 636 651 638 642 q 629 669 635 660 q 623 668 625 672 q 618 663 621 664 l 610 585 l 593 585 q 599 630 600 608 q 596 675 597 651 q 590 681 594 678 q 582 681 586 683 q 576 667 571 676 q 579 651 581 657 q 577 621 578 633 q 574 590 576 608 l 568 585 q 560 605 557 593 q 563 628 563 617 q 564 642 563 633 q 565 658 565 650 q 560 674 564 667 q 547 683 557 681 l 540 675 l 540 610 q 533 607 538 607 q 524 607 529 607 q 520 647 522 626 q 500 676 518 667 q 492 669 492 674 q 494 660 492 665 q 500 651 497 656 q 501 640 503 646 q 501 628 500 635 q 503 614 503 621 q 501 603 503 608 q 492 596 499 599 l 481 599 q 475 638 476 618 q 458 671 474 658 q 446 663 447 668 q 457 626 453 646 q 458 590 461 607 q 449 587 456 585 q 435 586 442 589 q 422 607 425 596 q 407 625 419 618 q 399 618 406 625 q 410 590 401 603 q 422 561 418 576 q 406 561 413 554 q 392 571 400 568 q 385 580 392 578 q 376 589 379 582 q 371 585 374 586 q 365 582 368 585 q 381 556 369 567 q 404 536 393 546 q 391 531 397 535 q 378 532 385 528 q 367 549 371 539 q 353 561 364 558 q 342 547 340 557 q 349 532 343 538 q 360 499 367 521 q 348 490 353 496 q 342 478 343 485 q 347 462 338 468 q 356 446 356 456 q 359 423 356 435 q 356 400 363 411 q 357 368 356 385 q 358 334 358 351 q 353 301 357 317 q 338 272 349 285 q 340 259 336 264 q 349 250 344 254 q 353 242 353 246 q 347 229 354 238 q 348 213 344 221 q 360 203 351 206 q 362 147 365 175 q 350 93 358 119 q 332 86 340 93 q 321 69 324 79 q 322 49 324 60 q 310 35 321 38 q 293 33 299 29 q 283 44 288 38 q 272 53 278 50 q 256 50 267 57 q 242 40 246 47 q 232 29 239 32 q 231 42 232 36 q 225 50 231 47 q 210 58 214 49 q 200 74 206 67 q 203 93 203 82 q 206 114 204 104 q 213 131 208 124 q 231 143 218 139 q 232 168 239 156 q 232 192 225 181 q 233 235 232 215 q 231 276 233 254 q 233 281 232 278 q 238 283 233 285 q 267 283 251 275 q 276 299 276 288 q 253 306 267 304 q 228 313 239 307 q 232 322 228 318 q 313 321 272 300 q 313 340 322 331 q 301 340 307 339 q 292 335 294 342 q 256 338 272 338 q 231 361 239 338 q 231 424 236 393 q 228 489 225 454 q 242 502 233 499 q 260 509 251 506 q 278 517 269 513 q 289 532 286 521 q 271 539 279 542 q 253 531 263 536 q 235 523 244 526 q 214 526 226 519 q 208 540 211 533 q 194 544 204 547 q 181 540 188 542 q 172 531 175 538 q 188 511 176 517 q 210 503 199 506 q 205 474 201 489 q 208 443 208 458 q 213 403 214 422 q 209 365 211 383 q 206 327 207 346 q 210 288 204 308 q 203 226 207 257 q 203 163 200 196 q 185 115 193 138 q 181 64 178 92 q 169 60 172 65 q 165 50 167 56 q 159 42 163 44 q 147 47 156 40 q 128 78 140 64 q 118 114 115 92 q 122 121 118 118 q 131 126 126 124 q 136 133 135 129 q 133 142 138 136 q 124 151 129 146 q 122 163 119 156 q 132 183 136 171 q 125 207 128 196 l 117 215 q 111 278 113 244 q 115 336 110 313 q 144 326 129 325 q 175 331 160 326 l 185 342 q 170 351 178 350 q 154 350 163 351 q 138 349 146 349 q 124 358 131 350 l 115 358 q 115 381 115 368 q 115 408 114 394 q 118 433 115 421 q 129 454 121 444 q 122 475 118 463 q 131 499 126 488 q 132 519 135 511 q 107 531 129 528 q 87 641 90 579 q 99 756 83 703 q 108 772 106 763 q 111 792 110 782 q 89 839 90 810 q 88 892 88 868 q 91 922 90 907 q 89 951 92 936 q 72 967 78 956 q 65 989 65 978 l 67 992 q 63 993 65 994 q 57 993 60 992 l 57 997 q 61 994 61 997 q 68 1046 68 1018 q 72 1099 68 1075 q 81 1114 79 1106 q 81 1131 82 1122 q 80 1149 81 1140 q 83 1165 79 1157 q 81 1231 76 1196 q 94 1294 86 1267 q 107 1276 103 1288 q 113 1253 111 1264 q 106 1255 110 1256 q 99 1254 103 1254 q 92 1244 92 1251 q 97 1236 92 1239 q 107 1219 107 1232 q 106 1198 107 1208 q 107 1180 104 1188 q 125 1176 110 1172 q 139 1172 132 1169 q 153 1179 146 1175 l 153 1181 q 199 1188 172 1186 q 244 1175 225 1190 q 260 1181 257 1175 q 265 1197 264 1188 q 266 1214 265 1206 q 274 1225 267 1222 q 279 1210 279 1219 q 278 1193 279 1201 q 281 1179 278 1185 q 296 1176 283 1174 q 305 1207 308 1189 q 300 1239 301 1225 q 276 1253 290 1250 q 279 1275 278 1263 q 290 1296 281 1288 q 299 1272 297 1286 q 303 1244 301 1258 q 306 1214 304 1229 q 313 1186 307 1199 q 315 1164 311 1175 q 322 1142 318 1153 q 328 1119 326 1131 q 326 1097 331 1108 q 326 1074 331 1086 q 332 1056 321 1063 q 341 1026 329 1038 q 356 999 353 1014 q 359 935 363 969 q 358 874 356 901 q 375 864 364 860 q 396 865 386 868 q 417 883 401 882 q 446 890 433 883 q 461 889 453 893 q 477 882 469 885 q 492 880 485 879 q 506 893 500 881 q 519 889 514 896 q 532 890 525 882 q 548 905 538 901 q 569 911 558 908 q 578 908 575 908 q 586 911 581 908 q 594 903 590 908 q 601 895 597 899 q 610 890 606 892 q 621 896 615 889 q 635 891 628 892 q 649 889 642 890 q 669 901 656 901 q 694 900 683 901 q 703 893 699 899 q 714 883 708 888 q 724 879 719 879 q 736 888 729 879 q 742 879 740 883 q 747 872 743 875 q 772 878 758 879 q 799 874 786 878 q 817 858 808 867 q 839 854 825 850 q 848 841 844 850 q 855 825 851 832 q 864 815 858 818 q 881 818 869 811 q 896 847 897 828 q 893 883 894 867 q 888 925 888 904 q 892 967 889 946 q 898 1010 896 989 q 897 1053 900 1032 q 894 1145 890 1096 q 894 1236 897 1194 q 885 1248 889 1242 q 883 1263 881 1254 q 894 1278 896 1271 q 885 1292 892 1285 q 874 1306 879 1299 q 876 1325 869 1314 q 901 1352 888 1342 q 935 1364 915 1363 q 1011 1324 986 1367 q 1017 1282 1021 1304 q 1017 1239 1014 1260 m 818 79 q 813 61 817 69 q 806 44 808 53 q 794 47 797 42 q 788 58 790 51 q 792 81 790 68 q 806 96 793 93 q 806 102 807 100 q 801 107 804 104 q 797 113 799 110 q 799 119 796 115 q 801 138 810 131 q 789 156 793 146 l 792 242 q 799 252 800 246 q 796 265 799 258 q 792 277 793 271 q 794 289 790 283 q 775 299 786 297 q 753 304 764 300 q 738 315 746 310 q 722 327 729 321 q 709 341 714 333 q 707 361 704 349 q 657 443 667 394 q 654 542 647 492 l 664 553 q 675 514 674 535 q 677 472 676 493 q 681 429 678 450 q 697 392 685 408 q 732 340 708 364 q 783 307 756 317 q 790 297 785 300 q 800 288 796 293 l 813 285 l 815 233 l 811 225 q 813 188 814 207 q 812 151 813 169 q 812 115 811 133 q 818 79 813 97 m 203 518 l 199 525 l 203 518 m 285 1128 q 267 1144 282 1144 q 254 1136 256 1144 q 256 1121 253 1128 q 276 1111 258 1111 q 281 1119 281 1114 q 285 1128 282 1124 m 146 1138 q 133 1145 142 1147 q 121 1138 124 1143 q 117 1126 118 1133 q 122 1117 117 1119 q 131 1115 126 1119 q 143 1124 138 1118 q 146 1138 149 1129 m 239 1051 q 225 1060 233 1058 q 207 1061 217 1061 q 188 1060 197 1061 q 169 1063 178 1060 q 162 1056 165 1060 q 161 1046 158 1053 q 183 1030 172 1039 q 207 1017 193 1021 q 226 1033 213 1029 q 239 1051 239 1036 m 208 942 q 197 956 207 950 q 182 951 186 963 l 186 854 q 190 844 186 850 q 199 842 193 839 q 208 865 207 853 q 209 890 210 876 q 207 916 208 903 q 208 942 206 929 m 297 751 q 299 764 306 757 q 286 765 293 771 q 236 733 265 743 q 176 733 207 722 q 162 740 169 736 q 157 756 154 744 q 151 763 154 758 q 143 765 147 768 q 132 759 135 765 q 129 746 129 753 q 140 732 135 739 q 154 722 146 725 q 178 717 168 724 q 196 703 188 711 q 213 687 204 694 q 233 678 221 679 q 249 693 243 682 q 263 711 256 704 q 276 734 264 726 q 297 751 289 742 m 264 271 q 253 273 260 276 q 249 263 246 269 l 254 260 q 263 260 261 253 q 264 271 264 267 m 163 304 q 150 315 160 314 q 133 322 140 315 q 126 311 126 318 q 133 301 126 306 q 148 295 140 296 q 163 304 156 294 z "},"I":{"ha":435,"x_min":43,"x_max":403,"o":"m 396 206 q 397 282 403 244 q 388 356 390 319 q 387 375 385 365 q 390 394 389 385 q 390 413 390 404 q 382 431 389 422 q 381 569 399 504 q 378 579 378 574 q 380 590 379 585 q 380 599 381 594 q 374 608 379 604 q 374 723 382 663 q 354 838 367 783 q 352 874 351 854 q 332 900 353 893 q 307 919 321 910 q 297 949 293 929 q 288 965 294 958 q 273 977 281 972 q 258 988 265 982 q 246 1000 250 993 q 257 1010 250 1007 q 271 1017 264 1014 q 292 1042 281 1031 q 303 1072 304 1054 q 284 1108 300 1094 q 251 1135 268 1122 q 264 1149 254 1146 q 281 1161 274 1151 q 292 1181 293 1171 q 286 1199 292 1190 q 274 1218 281 1208 q 267 1239 267 1228 q 291 1285 282 1260 q 286 1336 300 1311 q 242 1376 269 1364 q 189 1389 218 1392 q 136 1375 160 1386 q 100 1350 117 1367 q 79 1310 83 1333 q 92 1247 74 1275 q 136 1199 110 1218 q 116 1183 125 1192 q 96 1169 107 1174 q 83 1149 90 1158 q 79 1125 75 1140 q 93 1106 82 1111 q 113 1090 104 1101 q 127 1087 119 1089 q 138 1078 135 1085 q 94 1052 118 1065 q 64 1011 71 1039 q 66 991 61 1000 q 79 974 71 982 q 97 957 88 965 q 111 940 106 949 q 79 899 89 922 q 61 850 69 875 q 59 815 63 831 q 52 783 56 799 q 47 750 49 767 q 50 715 46 733 q 52 680 53 697 q 49 644 51 663 q 45 571 47 604 q 46 503 43 538 q 48 486 49 494 q 44 471 47 478 l 57 417 q 58 302 56 358 q 72 189 61 246 q 83 135 74 163 q 79 97 79 115 q 81 61 79 81 q 88 50 83 54 q 89 36 93 46 q 92 19 88 25 q 105 10 97 14 q 121 5 113 7 q 136 0 129 3 q 165 4 150 4 q 197 6 182 4 q 224 15 211 8 q 247 39 238 21 q 272 20 258 29 q 301 18 286 11 q 317 13 310 13 q 331 15 324 13 q 346 19 339 17 q 361 21 353 21 q 390 53 383 32 q 393 97 396 74 q 387 151 382 124 q 396 206 392 179 m 128 1339 l 107 1314 l 128 1339 m 115 1157 q 110 1148 115 1151 q 101 1142 106 1144 q 115 1157 101 1151 m 107 1036 q 99 1026 104 1029 q 90 1021 93 1024 q 98 1032 94 1025 q 107 1036 101 1039 m 375 81 q 372 60 374 69 q 361 44 371 51 q 351 53 356 44 q 339 57 347 63 q 333 44 331 53 q 325 32 335 35 q 313 35 315 29 q 308 47 310 40 q 302 58 306 54 q 289 57 299 63 q 284 52 285 56 q 283 45 283 49 q 281 41 282 42 q 275 44 279 40 q 294 74 282 60 q 300 106 306 89 q 288 99 293 104 q 279 88 283 93 q 274 76 279 81 q 270 78 271 75 q 267 82 269 81 q 284 117 272 99 q 303 154 296 135 q 289 156 297 164 q 277 138 282 147 q 265 121 272 128 q 280 159 264 143 q 306 196 296 175 q 302 201 303 199 q 299 206 301 204 q 283 194 288 204 q 271 181 278 183 q 270 198 268 190 q 278 213 272 206 q 290 226 283 219 q 300 240 296 233 q 293 247 297 243 q 285 247 289 250 q 279 239 282 243 q 272 231 276 235 q 272 247 268 240 q 281 260 275 254 q 292 272 286 265 q 299 286 297 278 q 288 292 294 299 q 275 285 282 286 q 278 297 272 290 q 289 310 283 304 q 296 323 294 317 q 286 335 297 329 q 215 329 254 321 q 216 339 218 333 q 211 349 214 344 q 186 351 200 358 q 179 325 171 340 q 198 313 188 315 q 218 304 208 310 q 226 274 225 289 q 226 242 226 258 q 224 209 225 225 q 228 179 224 193 q 231 128 231 151 q 224 81 232 104 q 229 67 225 74 q 228 53 233 60 l 221 46 q 210 56 215 49 q 197 56 204 63 q 192 46 192 51 q 192 35 192 40 q 191 27 193 31 q 179 24 189 24 q 168 31 171 25 q 165 42 165 36 q 162 51 164 47 q 151 56 160 56 q 137 40 143 50 q 119 28 131 31 q 135 66 126 47 q 150 106 143 85 q 147 108 147 107 q 144 111 147 110 q 125 89 129 104 q 111 63 121 74 l 104 65 q 122 113 107 90 q 146 161 138 136 q 132 164 140 172 l 100 114 q 117 161 103 138 q 140 208 131 185 q 132 215 138 215 q 124 208 126 214 q 113 188 115 199 q 99 169 110 178 q 101 194 96 182 q 113 219 106 207 q 128 244 119 232 q 140 269 136 257 q 131 275 133 276 q 106 243 115 260 q 85 215 97 226 q 83 224 82 219 q 83 233 83 228 q 110 275 96 254 q 133 319 124 296 q 128 323 131 321 q 124 324 126 325 q 101 295 111 310 q 79 267 90 281 q 80 284 75 276 q 90 299 85 292 q 99 313 96 306 q 93 329 101 321 q 81 324 86 332 q 72 325 75 317 q 87 354 85 339 q 85 385 89 369 q 76 415 82 400 q 69 446 71 431 q 65 464 64 454 q 67 483 65 474 q 69 500 69 492 q 61 518 69 510 q 63 558 65 536 q 61 599 61 579 q 68 637 61 619 q 97 663 75 654 q 97 670 100 668 q 90 675 93 672 l 75 667 q 76 694 71 682 q 93 715 82 706 q 84 725 90 722 q 71 725 78 728 q 77 743 67 736 q 90 761 88 750 q 88 769 93 767 q 81 775 83 772 l 67 767 q 72 781 65 774 q 83 794 78 788 q 92 807 89 800 q 86 822 94 814 q 85 855 89 839 q 92 886 81 871 q 103 906 94 899 q 122 919 113 913 q 137 933 131 925 q 142 954 143 940 q 151 967 143 961 q 166 977 160 972 q 174 987 172 982 q 167 1000 176 992 q 147 985 156 994 q 126 967 138 975 l 118 969 q 128 986 119 979 q 143 1001 136 993 q 154 1016 150 1008 q 153 1033 158 1024 q 125 1010 133 1026 q 97 986 117 993 q 114 1016 99 1001 q 144 1042 129 1031 q 145 1056 140 1051 q 156 1066 150 1061 q 167 1076 163 1071 q 168 1092 172 1082 q 175 1101 169 1097 q 185 1110 181 1106 q 192 1119 190 1115 q 185 1129 193 1124 q 163 1117 172 1126 q 140 1104 153 1107 q 151 1124 140 1117 q 165 1142 163 1131 q 162 1147 164 1144 q 157 1151 160 1149 q 145 1144 150 1149 q 136 1133 140 1139 q 127 1122 132 1126 q 114 1117 122 1117 q 115 1125 119 1121 q 126 1140 119 1133 q 140 1152 133 1146 q 149 1166 146 1158 q 150 1182 153 1174 q 158 1194 151 1190 q 170 1203 164 1199 q 181 1212 176 1207 q 188 1225 186 1217 l 178 1236 q 185 1245 179 1240 q 194 1255 190 1250 q 199 1265 199 1260 q 194 1275 200 1269 q 167 1254 179 1267 q 140 1229 154 1242 l 133 1229 l 133 1236 q 185 1293 165 1265 l 174 1300 q 145 1274 158 1289 q 115 1250 132 1258 q 119 1258 113 1257 q 128 1267 126 1260 q 151 1293 138 1282 q 164 1319 164 1304 l 158 1325 q 132 1297 143 1313 q 101 1275 121 1282 l 101 1282 q 132 1313 118 1299 q 157 1346 146 1326 l 146 1354 q 156 1364 150 1361 q 168 1367 163 1367 q 181 1367 175 1367 q 193 1371 188 1368 q 234 1360 217 1372 q 268 1336 251 1347 q 276 1310 276 1322 q 272 1285 276 1297 q 259 1261 267 1272 q 246 1239 251 1250 q 248 1220 243 1228 q 259 1206 253 1213 q 269 1192 265 1200 q 271 1175 274 1185 q 256 1165 265 1169 q 240 1156 247 1161 q 229 1143 233 1150 q 229 1125 225 1136 q 248 1112 238 1118 q 267 1097 258 1106 q 281 1079 276 1089 q 281 1057 285 1069 q 265 1041 275 1047 q 246 1028 256 1035 q 229 1014 236 1022 q 225 993 222 1006 q 238 973 226 979 q 259 961 249 967 q 275 947 269 956 q 272 922 281 939 q 296 905 282 911 q 313 882 310 899 q 302 849 304 867 q 294 814 300 831 q 245 822 271 815 q 197 818 219 828 q 184 815 190 817 q 171 814 178 813 q 156 864 164 838 q 125 903 149 890 q 114 874 111 892 q 110 840 117 856 q 106 822 110 832 q 101 801 103 811 q 102 781 100 790 q 113 767 104 772 q 121 772 117 768 q 125 779 125 775 q 126 820 125 799 q 132 861 126 842 q 145 841 144 853 q 145 817 146 829 q 147 793 144 804 q 167 776 150 782 q 183 782 176 776 q 192 794 189 788 q 248 801 218 800 q 300 779 278 803 q 312 783 310 779 q 314 792 314 786 q 313 806 314 799 q 315 818 313 813 l 326 861 l 329 861 q 339 831 338 847 q 341 800 340 815 q 344 769 342 785 q 356 742 347 754 q 363 695 365 718 q 357 649 361 672 q 353 601 353 625 q 365 556 353 578 q 375 511 375 538 q 364 469 375 485 q 366 453 367 461 q 364 438 365 446 q 364 424 363 431 q 374 411 365 417 q 372 401 374 406 q 367 391 369 396 q 365 381 365 386 q 369 371 364 376 q 369 363 372 365 q 364 356 365 360 q 383 258 386 308 q 372 157 379 208 q 359 131 365 146 q 364 103 353 115 q 374 96 375 104 q 375 81 372 88 m 251 257 l 250 257 l 250 276 l 251 276 l 251 257 m 250 217 l 247 217 l 247 233 l 250 233 l 250 217 m 199 1097 q 199 1108 201 1106 q 192 1108 196 1110 q 183 1103 188 1107 q 178 1094 179 1099 q 181 1082 175 1088 q 191 1088 186 1083 q 199 1097 196 1093 m 176 951 q 163 953 169 960 q 151 943 157 947 q 151 938 151 940 q 153 932 150 935 q 156 931 156 932 q 160 929 157 929 q 172 938 167 932 q 176 951 178 944 m 313 732 q 309 746 310 739 q 299 753 308 753 q 292 744 293 750 q 289 736 290 739 q 290 727 286 731 q 297 719 294 724 q 307 724 304 719 q 313 732 310 728 m 168 746 q 163 751 165 749 q 157 754 160 754 q 147 744 147 751 q 146 728 146 736 q 158 719 147 719 q 168 746 172 731 m 340 588 q 318 604 326 593 q 301 626 310 615 q 292 619 293 624 q 294 608 292 614 q 300 594 297 601 q 301 582 303 588 q 282 547 297 558 q 265 543 275 539 q 254 557 256 547 q 258 595 261 576 q 254 635 254 614 q 266 643 257 644 q 278 651 275 642 l 271 660 q 252 660 261 658 q 235 665 243 663 q 218 667 226 667 q 201 663 210 667 q 205 651 199 656 q 215 643 211 647 q 224 627 217 635 q 236 612 231 619 q 244 595 242 604 q 240 575 246 586 q 239 565 242 567 q 231 561 236 563 q 220 558 225 560 q 213 549 215 556 q 193 553 201 546 q 178 567 185 561 q 170 580 171 572 q 169 596 169 588 q 169 613 169 604 q 163 626 168 621 q 146 621 154 632 q 151 599 144 611 q 141 582 149 590 q 122 583 133 574 q 117 578 117 582 q 114 572 117 575 q 117 560 117 568 q 126 556 118 553 q 146 565 138 567 q 162 556 154 564 q 177 541 169 549 q 194 532 185 533 q 207 528 200 528 q 218 524 214 528 q 213 517 215 521 q 214 510 211 513 q 226 494 222 503 q 236 478 229 485 q 242 477 239 475 q 247 482 244 479 q 249 496 240 493 q 264 506 258 499 q 274 525 263 519 q 294 536 285 531 q 308 556 303 544 q 325 572 313 568 q 335 578 329 575 q 340 588 342 581 m 306 453 q 306 462 308 457 q 301 469 304 467 q 288 462 290 472 q 275 447 285 451 q 237 435 257 442 q 197 442 217 429 q 182 453 189 444 q 183 471 175 461 q 170 478 178 475 q 158 474 163 482 q 160 451 150 460 q 178 432 171 443 q 188 425 182 428 q 199 419 194 422 q 207 412 204 417 q 206 397 210 407 q 209 388 206 390 q 217 385 213 386 q 224 381 221 383 q 226 372 228 379 q 238 361 229 363 q 253 363 246 360 q 255 372 260 368 q 247 382 250 376 q 255 385 253 382 q 264 386 257 389 q 274 396 269 390 q 279 408 278 401 q 269 413 274 414 q 260 408 265 411 q 250 401 256 404 q 238 400 244 397 q 231 406 235 404 q 229 413 228 408 q 250 420 239 418 q 271 424 261 422 l 306 453 m 244 519 q 233 519 238 515 q 225 525 229 524 q 235 524 231 525 q 244 519 240 524 z "},"J":{"ha":1118,"x_min":1,"x_max":1060,"o":"m 1050 597 q 1046 601 1047 599 q 1042 603 1044 604 q 1039 617 1036 611 q 1045 630 1042 624 q 1051 642 1049 636 q 1044 656 1053 649 q 1049 754 1047 703 q 1039 850 1050 806 q 1051 883 1049 865 q 1043 915 1053 900 q 1042 929 1038 922 q 1039 943 1046 936 q 1045 966 1050 954 q 1036 989 1040 978 q 1042 1009 1038 999 q 1039 1025 1046 1019 q 1038 1085 1032 1054 q 1049 1143 1044 1117 q 1049 1186 1046 1164 q 1056 1230 1053 1208 q 1059 1272 1060 1251 q 1050 1314 1058 1293 q 1035 1338 1046 1331 q 1012 1349 1025 1346 q 985 1353 999 1351 q 958 1358 971 1354 q 938 1353 950 1350 q 918 1346 925 1356 q 895 1323 910 1335 q 886 1296 881 1311 q 878 1267 878 1282 q 881 1239 879 1253 q 881 1212 883 1225 q 864 1189 879 1199 q 864 1170 858 1179 q 868 1151 869 1161 q 863 1094 860 1124 q 865 1035 867 1064 q 870 1015 876 1026 q 865 993 864 1004 q 871 981 871 988 q 871 967 871 974 q 872 954 871 960 q 881 944 874 949 q 883 920 881 931 q 882 897 886 910 q 885 878 886 888 q 883 858 885 868 q 883 839 882 849 q 890 819 883 829 q 888 718 888 771 q 888 618 888 667 q 872 615 879 614 q 858 610 865 617 q 843 597 850 606 q 840 579 836 589 q 824 550 833 564 q 805 522 814 536 q 790 493 796 508 q 785 460 783 478 q 762 459 774 450 q 738 467 750 468 q 713 452 725 453 q 689 456 701 451 q 664 467 676 461 q 638 471 651 472 q 610 461 624 461 q 584 465 597 461 q 557 470 571 468 q 528 467 543 472 q 524 476 522 469 q 522 488 525 483 q 528 498 521 496 q 542 501 535 500 q 562 503 551 499 q 579 501 572 507 q 631 495 606 500 q 682 489 657 490 q 681 497 682 493 q 674 507 681 501 q 619 517 646 510 q 560 518 592 525 q 552 522 556 522 q 545 519 549 521 q 539 518 542 518 q 533 524 536 518 q 599 527 568 533 q 665 524 629 521 q 683 517 674 519 q 700 524 692 515 q 685 535 697 533 q 667 539 674 538 q 648 542 657 540 q 628 542 639 544 q 610 545 619 546 q 594 542 601 544 q 588 546 593 549 q 578 544 582 543 q 552 545 565 550 q 528 551 539 540 q 523 578 531 567 q 517 606 515 590 q 505 628 508 615 q 501 653 501 640 q 499 678 500 665 q 492 704 497 692 q 484 722 490 714 q 467 726 478 729 q 444 688 451 708 q 431 647 438 668 l 422 644 q 400 649 411 650 q 375 650 389 649 l 383 644 l 368 639 l 368 650 q 327 650 349 649 q 286 642 306 651 q 276 667 279 654 q 271 693 274 681 q 262 717 268 706 q 242 736 256 728 q 232 730 235 735 q 225 719 229 725 q 218 651 222 683 q 196 588 214 619 q 189 562 193 575 q 178 538 185 549 q 61 543 118 535 q 47 542 54 540 q 31 545 39 543 q 16 547 24 547 q 1 539 8 546 q 7 528 1 529 q 87 521 43 524 q 171 518 131 518 q 176 511 176 518 q 153 509 165 508 q 128 507 140 510 q 107 511 117 508 q 88 511 97 514 q 79 505 85 508 q 76 496 74 501 q 88 486 81 488 q 103 486 94 485 q 120 490 111 488 q 136 490 129 492 q 159 491 149 494 q 181 485 169 488 q 187 421 183 453 q 197 358 190 389 q 217 300 204 328 q 254 249 231 272 q 258 235 258 242 q 263 222 257 228 q 353 118 299 167 q 469 50 407 69 q 557 26 514 38 q 650 25 600 15 q 724 38 686 32 q 796 60 761 43 q 795 69 794 64 q 793 78 796 75 q 750 65 774 67 q 707 54 726 64 q 690 53 699 57 q 672 47 681 50 q 600 44 636 49 q 529 54 564 39 q 422 97 474 71 q 329 167 369 122 q 314 183 322 175 q 299 199 306 190 q 287 217 292 207 q 285 238 282 226 q 276 247 282 243 q 272 258 271 251 q 235 311 249 282 q 214 371 222 340 q 210 389 215 378 q 217 407 206 400 q 219 415 219 410 q 214 424 219 421 q 207 456 215 442 q 204 489 199 471 q 224 492 214 494 q 242 486 233 490 q 258 481 250 482 q 276 488 267 479 q 303 465 288 474 q 336 453 319 457 q 357 414 338 431 q 381 412 368 408 q 401 424 393 415 q 415 444 406 438 q 435 457 425 451 q 456 469 446 463 q 469 489 465 475 q 467 525 476 506 q 451 528 454 531 q 450 519 449 525 q 453 505 451 513 q 450 493 454 497 q 428 472 443 478 q 399 472 414 467 q 390 478 392 474 q 388 486 388 482 q 388 497 388 492 q 385 508 388 504 q 400 519 389 518 q 419 528 411 521 l 417 529 q 416 533 414 532 q 419 538 418 535 q 405 546 413 544 q 389 547 397 547 q 372 546 381 546 q 357 551 364 546 q 340 552 350 556 q 326 539 331 549 q 342 522 332 525 q 357 507 353 518 q 360 492 354 499 q 356 478 367 485 q 303 488 329 468 q 299 497 299 490 q 303 507 300 503 q 300 517 300 511 q 300 526 300 522 q 298 536 300 532 q 289 543 296 540 q 276 535 281 542 q 271 521 271 528 q 263 525 264 518 q 254 526 261 532 q 242 529 250 533 q 228 528 235 525 q 215 531 221 525 q 204 528 210 536 q 203 544 200 535 q 206 561 206 553 q 211 576 206 571 q 223 585 217 581 q 235 596 229 590 q 240 611 240 601 q 237 655 235 631 q 246 699 239 679 q 259 678 260 693 q 265 651 258 663 q 269 641 269 647 q 268 628 268 635 q 270 617 268 622 q 281 610 272 611 q 303 617 293 610 q 322 633 314 625 q 329 635 325 636 q 337 634 333 635 q 342 635 340 633 q 340 642 343 636 q 344 635 346 639 q 378 634 361 636 q 414 629 396 632 q 422 617 415 622 q 435 611 428 613 q 444 633 443 621 q 450 656 444 644 q 460 675 454 665 q 474 692 465 685 q 487 627 481 660 q 511 565 493 594 l 507 563 q 508 548 511 550 q 499 546 506 546 q 485 546 492 546 q 474 539 478 546 q 480 526 471 528 q 494 518 489 524 q 494 506 497 511 q 501 496 492 500 q 507 478 508 489 q 504 458 506 468 q 506 441 503 449 q 522 432 508 433 q 551 449 533 447 q 583 449 568 451 q 594 440 589 446 q 596 428 600 435 l 583 425 q 531 398 560 404 q 475 378 501 392 q 457 364 464 372 q 438 356 450 356 q 392 378 414 369 q 339 385 369 386 q 325 376 332 382 q 318 361 318 371 q 326 353 321 354 q 338 351 331 351 q 351 364 343 361 q 367 365 358 367 q 384 360 375 363 q 401 357 393 357 q 419 344 410 351 q 425 324 429 338 q 444 313 432 314 q 458 320 456 314 q 463 334 461 326 q 465 349 464 342 q 476 360 467 357 q 519 378 497 368 q 564 378 542 389 q 571 381 569 378 q 572 386 572 383 q 573 393 572 389 q 576 400 574 397 q 599 406 588 408 q 621 407 611 403 q 642 397 629 400 q 657 382 654 393 q 654 361 654 372 q 653 341 654 351 q 648 322 651 331 q 636 307 644 313 q 624 306 629 315 q 613 294 619 297 q 596 297 603 290 q 582 311 589 304 q 573 313 576 314 q 567 308 569 311 q 562 302 564 306 q 556 299 560 299 q 549 283 547 292 q 547 267 551 275 q 515 240 531 254 q 476 225 499 225 q 448 226 461 218 q 428 250 435 235 q 422 249 425 249 q 415 246 418 250 q 415 232 413 239 q 421 219 417 225 q 447 205 433 211 q 476 204 461 199 q 485 208 479 207 q 495 210 490 208 q 502 213 500 211 q 503 222 504 215 l 507 215 l 529 228 q 560 255 547 239 q 592 276 572 271 q 620 276 607 272 q 650 282 633 281 q 660 265 657 274 q 668 247 664 256 q 677 228 672 238 q 693 214 682 219 q 706 213 700 210 q 718 221 713 217 q 723 227 721 224 q 719 233 725 231 q 709 243 717 242 q 693 243 701 244 q 672 280 676 260 q 668 321 667 300 q 676 363 669 342 q 688 403 682 383 q 705 422 692 418 q 724 442 718 426 q 755 445 739 456 q 786 429 771 435 q 800 406 786 413 l 808 411 q 808 431 814 422 q 800 447 803 439 q 817 513 799 482 q 863 560 835 544 q 865 574 864 567 q 863 590 867 582 q 874 594 867 596 q 888 593 881 592 q 901 563 906 583 q 917 556 906 553 q 922 566 924 560 q 931 572 921 572 q 940 569 938 575 q 944 561 942 564 q 934 549 935 556 q 935 537 933 543 q 937 524 936 531 q 931 510 938 517 q 933 484 935 496 q 926 460 931 472 q 917 437 922 449 q 908 413 911 425 q 914 401 911 407 q 926 396 917 394 q 935 426 939 408 q 940 456 932 443 q 946 464 943 458 q 946 474 949 469 q 953 494 943 485 q 958 510 964 504 l 963 510 q 964 515 963 515 q 969 537 965 525 q 960 556 972 549 q 963 571 965 564 q 956 583 961 578 q 944 592 950 588 q 938 604 938 597 q 931 603 933 607 q 926 597 929 600 q 920 601 921 597 q 919 608 919 606 q 934 617 926 611 q 949 629 942 624 q 961 632 956 633 q 972 628 967 631 q 981 624 976 625 q 992 626 985 622 q 993 617 1000 621 q 989 606 986 613 q 1006 599 997 594 q 1025 596 1014 603 q 1024 578 1032 585 q 1019 563 1017 572 q 1027 548 1028 556 q 1024 533 1026 540 q 1019 519 1021 526 q 1021 503 1017 511 q 1026 486 1026 494 q 1022 469 1025 478 q 1017 453 1019 461 q 1017 436 1014 444 q 1005 428 1007 433 q 1003 415 1003 422 q 1001 402 1003 408 q 990 392 1000 396 q 983 333 996 361 q 960 279 971 306 q 941 261 951 272 q 938 235 931 250 q 901 172 919 203 q 857 114 883 142 q 828 99 842 107 q 800 81 815 90 q 799 70 801 75 q 803 63 797 65 q 829 78 817 71 q 856 94 842 85 q 874 110 864 101 q 888 131 885 119 q 932 185 919 151 q 960 251 944 219 q 987 293 979 271 q 1003 339 994 315 q 1004 346 1006 342 q 1008 353 1003 350 q 1018 381 1010 368 q 1024 411 1026 393 q 1035 425 1033 417 q 1036 442 1036 433 q 1036 460 1036 451 q 1043 478 1036 469 q 1042 490 1043 485 q 1035 497 1042 494 q 1039 501 1036 500 q 1039 506 1042 501 q 1040 528 1033 517 q 1049 551 1046 540 q 1041 563 1042 557 q 1043 574 1040 568 q 1049 585 1046 579 q 1050 597 1051 590 m 449 581 q 442 590 446 585 q 432 593 439 596 q 423 590 428 592 q 419 581 418 588 q 426 572 422 576 q 435 568 429 568 q 444 573 439 572 q 449 581 449 574 m 296 593 q 290 599 293 596 q 282 600 288 603 q 274 595 279 597 q 271 586 268 593 q 276 578 269 579 q 285 575 282 578 q 293 583 294 578 q 296 593 292 589 m 33 325 l 28 317 l 33 325 m 39 307 l 39 310 q 35 309 38 310 q 32 311 33 308 l 39 307 m 949 1321 q 932 1308 942 1314 q 911 1301 922 1303 q 917 1315 910 1308 q 931 1324 924 1321 q 949 1321 942 1328 m 1024 958 q 1009 956 1017 957 q 994 957 1001 954 q 1008 961 1003 957 q 1024 963 1014 965 l 1024 958 m 1026 804 q 1027 726 1025 764 q 1021 647 1029 688 q 1003 644 1013 643 q 986 647 994 644 q 970 653 978 650 q 954 658 963 657 q 935 641 943 653 q 914 629 928 629 q 914 642 914 636 q 919 651 914 649 q 942 667 933 656 q 956 689 950 678 q 935 688 944 697 q 913 676 925 678 l 913 686 q 938 708 925 699 q 958 732 951 717 q 946 736 951 738 q 935 731 940 735 q 925 722 931 726 q 913 718 919 718 q 931 749 913 738 q 964 771 949 760 q 965 781 971 775 q 939 777 951 789 q 914 760 926 765 q 911 767 910 763 q 911 776 913 772 q 915 779 913 779 q 922 779 919 779 q 927 780 926 779 q 924 785 928 781 l 967 818 q 965 824 968 822 q 960 828 963 825 l 913 803 q 910 817 911 808 q 917 828 910 825 q 941 842 928 835 q 956 863 954 849 q 943 865 949 867 q 931 860 938 864 q 918 851 925 856 q 904 849 911 847 q 911 868 904 861 q 926 880 918 875 q 942 891 935 885 q 949 908 949 897 l 942 914 q 906 894 924 900 q 908 904 900 903 q 919 913 917 906 q 928 922 922 918 q 940 930 935 926 q 947 938 946 933 q 942 949 949 942 q 931 954 938 956 q 918 954 925 953 q 922 965 917 960 q 933 974 928 969 q 939 981 938 978 q 931 989 940 985 q 914 981 922 985 q 896 972 906 978 q 899 992 893 985 q 914 1004 906 999 q 931 1015 922 1010 q 944 1029 940 1021 q 925 1031 935 1039 q 904 1022 915 1024 l 899 1022 q 899 1035 896 1031 q 908 1044 901 1040 q 920 1052 914 1049 q 931 1060 926 1056 q 939 1065 938 1060 q 944 1072 940 1069 q 931 1079 938 1081 q 919 1072 925 1078 q 906 1062 913 1067 q 890 1060 899 1057 q 889 1067 890 1063 q 886 1075 888 1071 q 886 1081 885 1079 q 894 1083 888 1083 q 923 1105 906 1099 q 949 1126 940 1111 l 938 1136 q 912 1120 925 1126 q 886 1107 899 1114 l 886 1126 q 920 1148 903 1138 q 953 1169 938 1158 q 951 1176 956 1174 q 944 1181 947 1179 q 919 1167 931 1175 q 893 1157 908 1160 q 888 1164 888 1160 q 886 1172 888 1168 q 917 1192 901 1183 q 947 1208 932 1200 l 946 1210 q 956 1215 953 1207 q 949 1226 953 1224 q 935 1224 942 1228 q 924 1216 929 1219 q 913 1212 918 1213 q 904 1221 908 1211 l 904 1228 q 924 1241 913 1236 q 945 1251 935 1246 q 965 1262 956 1256 q 982 1279 975 1268 q 963 1281 972 1288 q 944 1271 953 1274 q 923 1260 933 1264 q 900 1253 913 1256 q 906 1273 896 1268 q 926 1285 917 1278 q 939 1293 931 1290 q 956 1299 947 1296 q 971 1308 964 1303 q 978 1324 978 1313 q 970 1329 976 1331 q 967 1335 964 1328 q 993 1331 981 1333 q 1018 1324 1006 1329 q 1040 1281 1038 1303 q 1039 1238 1043 1260 q 1029 1192 1035 1215 q 1026 1143 1024 1168 q 1019 1091 1018 1118 q 1013 1036 1019 1064 q 1019 1017 1014 1026 q 1017 999 1024 1008 q 1009 988 1010 994 q 1000 981 1008 981 q 983 981 989 976 q 973 992 978 986 q 963 999 968 997 q 947 992 957 1001 q 957 970 944 976 q 976 957 969 964 q 971 944 969 951 q 989 934 978 933 q 1010 932 1000 935 q 1015 936 1014 938 q 1019 932 1017 935 q 1024 900 1017 915 q 1026 868 1032 885 q 1017 853 1018 861 q 1020 838 1017 846 q 1026 821 1024 829 q 1026 804 1029 813 m 793 439 l 792 439 l 792 447 l 793 447 l 793 439 m 635 500 l 625 503 l 635 500 m 685 438 q 682 426 689 431 q 674 414 675 421 q 662 408 667 407 q 652 413 657 410 q 642 419 647 417 q 629 421 636 422 q 617 425 624 432 q 619 437 613 432 q 625 447 625 442 q 656 449 639 449 q 685 438 674 449 m 390 450 q 381 435 392 439 q 367 435 374 432 q 360 447 360 439 q 363 456 358 453 q 371 458 367 458 q 382 456 376 458 q 390 450 388 454 z "}}}
